<svg id="Art_copy" data-name="Art copy" xmlns="http://www.w3.org/2000/svg" viewBox="0 0 341.67 289.06"><defs><style>.cls-1{fill:#fff;}</style></defs><title>Artboard 1</title><path d="M170.66,52.7c.57,0,1.81,1.53,2.08,1.84a.51.51,0,0,1-.22.84c-1.87.39.1,1.89.79,2.93a.43.43,0,0,1,.07.37c2.88,2.64,6.66,7.41,5.9,11.58l.33.26a.44.44,0,1,1-.53.69c-.5-.4-.28-.62-.59.11a.51.51,0,0,1-.92-.12l-.9-1.27c-.17.33-.71.46-.88,0a20.31,20.31,0,0,0-.95-1.86c0,2.42.21,4.77-.68,7.06a.45.45,0,0,1-.89-.12c-.18-6.15-6.71-11.58-11.6-14.45a.47.47,0,0,1-.21-.26.45.45,0,0,1,.65-.5c4.6,2.68,10.29,7.36,11.73,12.91a22.33,22.33,0,0,0,.13-3.38l0,0c-.41-1.15-.84-2.27-1.32-3.36a7.78,7.78,0,0,1-1.72-3.29.5.5,0,0,1,.91-.39,20.13,20.13,0,0,1,1.06,1.92.48.48,0,0,1,.78.08c.8,1.28,1.64,2.52,2.35,3.84a.41.41,0,0,1,.45,0,4.43,4.43,0,0,1,1.66,1.74.42.42,0,0,1,.39-.08,2.92,2.92,0,0,1,.42.17c-.14-4.16-3-8.22-5.94-11a.48.48,0,0,1-.52-.21c-.72-1.06-1.49-2.08-2.18-3.16a.51.51,0,0,1,.3-.73c1.51-.62-.64-1.58-1.4-2.32a.53.53,0,0,1,.37-.89,2.13,2.13,0,0,0,2.12-.77c-.41-.43.13-1.2.65-.84,1,.71,2,1.52,3.07,2.23a29,29,0,0,0,3.53,1.7c-1-1.44-2.4-2.54-2.7-4.33a.52.52,0,0,1,.49-.65c1.7,0,3.6,2.15,5,3.1a.41.41,0,0,1,.51-.21,6.89,6.89,0,0,1,1.82.74,4.33,4.33,0,0,1,1.06.23c1.49.47,3.73,1.34,3-1a.52.52,0,0,1,.94-.4c1.95,3.43,1.57,9.93,4.7,12.46,2,1.58.76-4.9.71-5.31a3.88,3.88,0,0,1,.23-2.63.48.48,0,0,1,.76-.1c.41.52,1.85,2.39,2.07,2.6,2.73,2.51,1.68-5.53,1.65-5.64-.36-1.52-.7-2.76-.1-4.22a.39.39,0,0,1,.74,0c1.36,4.34,3.8,8.18,5.12,12.52.35,1.16,1.05,6.94,1.81,3.22A15.84,15.84,0,0,1,208.14,60a.49.49,0,0,1,.89.12,5.8,5.8,0,0,1,.15,2.35,26.85,26.85,0,0,0,.8-6.37,30.82,30.82,0,0,1,.13-5.37c0-1.46-.05-2.43,0-.17a13.67,13.67,0,0,1,.65-2.67.11.11,0,0,1,.21,0c-.13,3.62-.18,7.18,2.14,10.23a41.8,41.8,0,0,0,8.73,8.06,43.87,43.87,0,0,0,14.23,7.13.28.28,0,0,1,.29-.13,21.6,21.6,0,0,1,5,1.08,9.55,9.55,0,0,1-1.66-1.85.4.4,0,0,1,.34-.58,3.51,3.51,0,0,1,3,1.46c1.87,2.49-.3-1.52-.57-2.11a5.42,5.42,0,0,1-.75-2.33.51.51,0,0,1,.74-.57A5.17,5.17,0,0,1,245,70.36c1.91,2.86.84.49.69-1.3a.57.57,0,0,1,.72-.54c.89.19,3.85,1.45,3.53,2.09a.57.57,0,0,1,.89-.12,74,74,0,0,1,5.67,5.67c.28.33.15,1-.4,1-3.88-.49,2.43,5.51,3.16,7.13a.59.59,0,0,1-.34.85c-1.32.54-4.28.29-1.61,2.29a7.59,7.59,0,0,1,1.74,1.7c1.57,2,.31,3.24,2.87,5.46s1.53,3.43-.16,5c1.21.37,2.52,1,2.52,2.33,0,1.11-.83,1.71-1.74,2.17a14.71,14.71,0,0,1,1.4.57c1.11.52.71,1.61,2.17,2.12a.71.71,0,0,1,.46.82,7.76,7.76,0,0,0,1.36-.08.4.4,0,0,1,.28.68,1.83,1.83,0,0,0-.13.16.71.71,0,0,1,0,.14,99.84,99.84,0,0,0-1.86,10.81A186.61,186.61,0,0,0,265,142.4c0,5.06.74,10.08.89,15.13,1.64-3.69,1-7,1.7-11.12.45-2.84,1.23-4.29,1.12-7.06-.09-2,.39-5.54,1.42-7.29.52-.9,2.37-.15.56-2.3-.75-.89-1.55-1.56-2.22-2.52a.64.64,0,0,1,0-.68c1.76-2.59-.68-4.61-.47-7a3.52,3.52,0,0,1,.23-1,2.18,2.18,0,0,1,1-1c1.85-1.08,2.77-2.64,2.05-4.81-.37-1.13-.14-3.72,1.22-4.33,2.75-1.22,2-6.88,2-9.51a.45.45,0,1,1,.9,0c0,3.1-.59,6.25,0,9.34a.6.6,0,0,1-.42.74c-4.63.84-.37,5.79-2.17,8.42-1.23,1.8-4.31-.18-2.65,4.31.55,1.5,0,5.26,1,6.38,1.09,1.32,1.61,1.94,1.69,3.64a.64.64,0,0,1-.33.57c-2.51,1.29-2.14,6.75-1.82,8.91.2,1.35-1.12,2.7-1.3,3.89-.61,4-.1,7.45-1.18,10.81a.37.37,0,0,1,.18.22,53.09,53.09,0,0,1,.79,27.69c-1,3.83-3.66,12.52-8.59,13.11-1.43,6.49-2.69,13-4.59,19.41-4,13.46-9.14,27.62-19.17,37.83-.19,5-2.38,9.5-3.25,14.43-1.06,6-1.06,12.34-1,18.39,0,1.39,0,2.78.07,4.17a.27.27,0,0,1,.19.11c3.86,4.87,7,10.79,11.82,14.76,4.44,3.64,9.52,6.42,14.34,9.55h.05c4.68.6,9.3,1.56,13.44,3.93,3.83,2.2,8.09,3.3,11.37,6.19a5.2,5.2,0,0,1,.77-2c1.49-2.25,2.15-4.56,3.4-6.89,1.51-2.85,3.18-5.15,3.87-8.35,2.18-10.12,12.72-2,18.27-.79a.39.39,0,0,1,.32.27.49.49,0,0,1-.56.62c-2.64-.53-4.67-1.84-7.08-2.94-3-1.38-8.73-2.4-9.72,2.19-.21,1-.33,2-.62,2.92-.54,1.8-9.42,16.37-6.68,17.91h0a4,4,0,0,0,.62-.47,20.37,20.37,0,0,1,4.18-3.46c.52-.29,1,.5.47.79-2,1.16-3.17,3.43-5.17,4.49-.88.46-3,1.06-2.43,2.66a5.11,5.11,0,0,0,1.41,1.82c1.25,1.22,1.84,2.57.71,3.73.89.3,1.73.66,2.48,1,.57.26.08,1.07-.48.83-2.76-1.21-7.88-3-8.54,1.57-.48,3.28,3.53,3.37,5.21,5.42a.64.64,0,0,1,.09.73,12.14,12.14,0,0,0-.36,2c-.09.62-.93.38-1-.14a4.49,4.49,0,0,1,.15-2,6.9,6.9,0,0,0-1.82-1.24c-.27,3.18-.45,7.17,1.2,9.89.94,1.55,2.48,2.78,3.26,4.41,1.11,2.31,2.81,3.49,5.39,2.1a11.71,11.71,0,0,1,1.95-.92c-2.07-.66-3.63-2-3.54-4.56a.42.42,0,0,1,.84,0c0,3.78,4,4,7.53,4.29a.13.13,0,0,1,0-.06c.06-.43.82-.33.76.1v0a11.39,11.39,0,0,1,3.26.59c2.91,1.2,4.71,3.62,8.18,3.5a8.19,8.19,0,0,1,4.18.51c0-.35-.07-.69-.1-1-.3-3.23-1.45-5-4.22-6.8-4.44-2.86-9.62-6.63-14.78-7.81-.44-.1-.25-.78.19-.68,4.6,1,8.38,4,12.46,6.21,2.23,1.21,5.89,2.93,7,5.49,1.42,3.32.51,9.15,6.23,8,3.95-.79,8.17.49,12-.22a22.54,22.54,0,0,0-3.57-1.6c-.67-.25-.39-1.34.3-1.08,1.75.65,4.28,1.14,5.59,2.63,2.89,3.3,6.31,1.82,8.57-1.09,1.82-2.33,2.89-4.8,4.36-7.3a19.94,19.94,0,0,1,1.45-2,.44.44,0,0,1,.47-.62c1.27-1.72,2.21-3.55.46-5.65-.5-.61.31-1.46.89-.88a4.72,4.72,0,0,1,.4,6.33l-.25.38a12.58,12.58,0,0,0,2.65-.16.56.56,0,0,1,.36-.06c2.61-.53,5-2,4.92-4.76-.21.23-.42.45-.65.67s-1.38,1.25-1.8.53,1.09-1.09,1.42-1.34c.78-.58,1.38-1.38,2.15-2,.34-.25.77.32.45.58a10.5,10.5,0,0,0-1.18,1.13.29.29,0,0,1,.22.28,4.83,4.83,0,0,1-2,4.3.59.59,0,0,1,.16.23c.88,2.48,3.07.89,4.27-.37a6.57,6.57,0,0,0,2-4.26,37.19,37.19,0,0,1,.23-5.09c-1,.58-2.14,1-2.79,1.39a.43.43,0,0,1-.51-.67,26.49,26.49,0,0,1,3.51-2.53c1.13-.82,1-2.52,1.36-3.7.72-2.63,2.39-4.24,3.56-6.6,2.94-5.94-8.44-9.76-10.51-14.14-.25-.52.51-1,.76-.45,1.05,2.14,3.54,3.77,5.93,5.47-.6-2.71-2.27-5-2.73-7.78-.64-3.88-1.87-7-5.68-8.81a18.78,18.78,0,0,1-5.71-3.85c-3-3-6.66-4.22-10.64-5.24a.39.39,0,0,1-.27-.54.42.42,0,0,1,.5-.27c3,.75,6.32,1.56,8.8,3.47,1.85,1.44,3.23,3.42,5.37,4.48a43,43,0,0,1,4.78,2.56,8.85,8.85,0,0,1,3.39,5.42c.82,3.74,2.86,7.1,3.45,10.82a.61.61,0,0,1-.18.53c2.67,2,4.9,4.23,4.31,7.61-.41,2.3-3,3.91-3.61,6.21-.4,1.54-.64,3.11-1.08,4.64a2.49,2.49,0,0,1-.78,1.12c-.76,2.16-.06,4.5-.43,6.79a7.57,7.57,0,0,1-2.59,4.58c-1.91,1.69-5,3-5.69-.47a9.3,9.3,0,0,1-2.38.94,84.58,84.58,0,0,1-.91,10.81c5.71,5.52,12.15,12.94,14.25,20.73,1.26,4.7,1.54,9.55,2.6,14.28a101.45,101.45,0,0,0,4.39,13.55c7.28,19.23,13.39,39.14,18.84,59,5.74,20.89,12,41.58,17.41,62.57,2.45,9.54,4.63,19.1,7,28.66.65,2.66,2.71,5.94-.46,6.4,4.58,6.13,9.61,12.59,12,20,2.44,7.62,1.9,15.62,1.22,23.48-.74,8.46-3.4,16.3-6.14,24.29a48.16,48.16,0,0,1-4.72,10.66q-.54.84-1.14,1.65a35.4,35.4,0,0,0,.32,9.73,9.37,9.37,0,0,1,0,3.38c-.78,2.8-2.25,4.19-4.5,5.91-4.1,3.15-6.27,8.13-9.35,12.17a22.47,22.47,0,0,1-7.75,6.12c-7.23,3.78-12,6.37-20,3.06-5.27-2.19-11-5.14-13.7-10.42-3-1.29-5.64-3.67-8.42-5.33a52.79,52.79,0,0,1-11.59-9.11c-6.14-6.46-13-12.05-17.45-19.78a146.69,146.69,0,0,1,.06,18.87,29.2,29.2,0,0,1-2.74,10.3,18.51,18.51,0,0,0-1.55,9.87,19.5,19.5,0,0,1,.06,2.49,11.81,11.81,0,0,1,.63,4.3c-.2,2-1.7,4-2.67,5.63-1.83,3.14-4.53,6.54-4.35,10.37.09,2.07.17,3-.82,4.68a.45.45,0,0,1-.22.19,87.32,87.32,0,0,1-1.55,16c-1.29,8.14-2.74,16.27-3.89,24.43-.26,1.9-.44,3.86-.61,5.84.37,5.22,4.15,10.14,5.64,15.11,1.08,3.6,1.81,7.68,3.53,11,1.16,2.27,2.62,4.35,3.82,6.59,2.68,5.05,3.49,10.61,5,16.07,1.66,6.18,5.05,11.49,7.29,17.44s4.68,12.06,5.76,18.38c1,6.07,1.45,12.2,2.08,18.32.69,6.58,2.15,13,2.65,19.63a22.58,22.58,0,0,1-.53,7.73c-.57,2.18-2.39,3.63-2.46,6a.57.57,0,0,1-.63.58c-6,6.47-15.51,8.64-23.94,9.92a828.41,828.41,0,0,1-85.93,8.75c-32.61,1.48-65.16,4.92-97.82,4.78-16.41-.07-32.81-.27-49.22-.3-14.81,0-29.32-2.76-44.07-3.83-7.21-.53-13.3-3.47-20.07-5.69C12.62,911.91,6,910-2.19,910.22c-6.36.18-12.22-.51-18-3.28a33.16,33.16,0,0,0-9.45-3.38A20.64,20.64,0,0,1-37,901.29a.41.41,0,0,1-.19-.55.46.46,0,0,1,.66-.26c3.74,2.07,7.73,1.46,11.54,3,2.65,1.07,5.14,2.51,7.83,3.48,8,2.9,15.87,1.24,24.13,2.17,6.21.71,12.81,3.52,18.62,5.73,4.25,1.61,8.53,3.34,13.11,3.67,3.4.25,6.8.36,10.2.63,7,.55,13.81,2,20.77,2.77,15.86,1.73,32.32.69,48.27.81,16.36.12,32.7.25,49-.76s32.55-2.62,48.86-3.41,32.47-1.46,48.68-3.05c14.57-1.43,29-3.52,43.58-5.1,10.89-1.18,24.83-2.31,32.6-11l.08-.06c.07-1.7.78-2.66,1.56-4.45,1.42-3.22,1.19-6.72.84-10.13-.67-6.6-2.1-13.07-2.7-19.68-1.28-14-3.6-27.9-10.18-40.54a67.7,67.7,0,0,1-5.76-16.28c-1.54-6.53-4.45-11.52-7.44-17.4-2.7-5.32-3.21-11.59-5.66-17.05a41.81,41.81,0,0,1-2.48-6.42,53,53,0,0,1-2.09,11.76.49.49,0,0,1-.95-.13c-.15-6.92,1.49-14.44,2.49-21.32,1.09-7.53,2.37-15,3.58-22.55s2.59-15.15,1.55-22.88c-.93-7-.13-13.79.4-20.75,0-.59,1-.59.92,0a121.55,121.55,0,0,0,0,20.28,8.12,8.12,0,0,1,.44-2.19,31.24,31.24,0,0,1,2.74-5.45c1.34-2.17,3.66-5,4.08-7.53a6.18,6.18,0,0,0,.07-1.35c-.22.21-.68.11-.65-.26.34-4.3-1.13-8.72.46-12.87,1.85-4.86,3.54-8.89,3.76-14.21.47-11.1-.78-22.14-.81-33.23a134.85,134.85,0,0,1,3.68-30.93c1.24-5.44,3.22-10.78,4.25-16.25.24-1.29.42-2.58.56-3.87-.11-2.72.22-5.57.18-8.27-.06-3.66-.2-7.38,0-11,.32-6.14-1-11.85-1.2-17.9-1.11-.76-2.14-1.54-3.05-2.3a23.68,23.68,0,0,1-8.26-12.7A22.71,22.71,0,0,1,311,527.26c-5.61-4.38-5.89-13-4.18-19.48a.42.42,0,0,1,.32-.32c-2.53-2.89-5.16-6.23-4.67-10.26.34-2.79,1-6.88,3.58-8.62-3.7-1.22-7.6-3.89-8.91-7.53a14.57,14.57,0,0,1,1.18-11.18.36.36,0,0,1-.09-.52,14.35,14.35,0,0,1,6-5.09c-.46,0-.91,0-1.36-.09a9.21,9.21,0,0,1-8.06-6.46.67.67,0,0,1-.46-.31c-1.2-1.87-2.62-2.07-3.67-3.66s-1.94-3.58-3-5.33a61.55,61.55,0,0,1-5.31-9.81c-2.3-6-3.71-10.9,1.81-15.46,3.51-2.91,9-2.63,12.46.08a49.12,49.12,0,0,1,8.23,8c1.44,1.8,3.28,3.24,4.63,5.08.18-3.13-.64-5.38-1.31-8.42-.87-4-1.22-7.73-2.86-11.55-1.13-2.61-1.22-5.21-1.33-8a216.22,216.22,0,0,0-3.38-29.13c-.64-3.55-2.29-6.67-3-10.16a19.82,19.82,0,0,1,.11-6.47l-2.29-.27-.34-.05a.7.7,0,0,1-.67.69c-2.63.11-7.45,4.67-9.29.13-1.06-2.6-3.53-4.45-4.38-7.11a24.66,24.66,0,0,1-.57-10.19,6.25,6.25,0,0,1-1.72-1.26c-1.12-1.23-.83-3.48-.05-4.81,1.32-2.24,3.59-2.41,5.83-1.89,1.72-2.23-3.5-4-1.84-6.86a4.61,4.61,0,0,1,2.23-1.73,3,3,0,0,1-.93-1.81c-3.28-3.34-7.82-4.75-11.87-7a33.76,33.76,0,0,0-11.39-3.81c.64.44,1.28.88,1.91,1.33s0,1.29-.52.91c-1.55,3.53-.59,7-1.12,10.72a64.68,64.68,0,0,1-1.73,8.83,34.09,34.09,0,0,1-7.18,13.49,58.93,58.93,0,0,1-19,14.18,1.28,1.28,0,0,0-.07-.28,95.65,95.65,0,0,1-17.74,5.53c-1.29.27-2.58.51-3.87.73a89,89,0,0,1-12.76,2.07,104.3,104.3,0,0,1-42.72-5.76.5.5,0,0,1-.31-.65.42.42,0,0,1,.56-.28c13.09,4.5,27.27,6.8,41.12,5.67,2.34-.69,5.06-.55,7.4-1s4.8-.87,7.19-1.36c3.11-.7,6.21-1.49,9.29-2.31,3.85-1,7.83-2,11.34-3.93a30.27,30.27,0,0,1,5.93-2.77,46.43,46.43,0,0,0,14.52-13.06A39.35,39.35,0,0,0,259,332.06c.74-4.56-.15-9.53,2-13.74-5.66-3.77-12.26-6.93-17.22-11.54-4.51-4.19-7.59-9.42-11.22-14.32.14,4.09.38,8.19.66,12.27a96.05,96.05,0,0,0,1.16,10.44c.23,1.24.76,2.7.51,4a.32.32,0,0,1-.62,0,143.31,143.31,0,0,1-2.88-33.93c.18-5-.06-10.31.87-15.25,1-5.13,3.3-9.9,3.74-15.1-.39.39-.78.78-1.19,1.15a19.18,19.18,0,0,1-2.08,2.74,29.72,29.72,0,0,1-4.51,9,34.39,34.39,0,0,1-6.43,6.44c-1.15,5.2-2.92,10.33-6.79,14.16a67.39,67.39,0,0,1-12.29,9.27.27.27,0,0,1-.33-.43c3.47-3.07,7.59-5.34,10.91-8.59,4-3.89,6-8.41,7.37-13.6a27,27,0,0,1-13.71,4.59c-8.59.55-19.74-.15-27-5.44-6.67-4.87-13.68-10.65-18.64-17.28-.23-.3.27-.59.5-.3a57.56,57.56,0,0,0,10.12,9.73c3.94,3.18,7.71,7.35,12.61,9,8.41,2.89,18.2,4.12,27,2.19a25,25,0,0,0,9.6-4.53s0,0,0-.06a.39.39,0,0,1,.46-.31,29.54,29.54,0,0,0,9.69-13.49c1.41-4.17,2.31-8.48,3.91-12.58,1-2.56,3.17-4.72,5-6.74.09-.11.24,0,.15.15-3.46,4.28-4.85,9.5-6.34,14.7a15.74,15.74,0,0,1,2-1.85,0,0,0,0,1,0,0C246.3,242,251.4,227.15,255.35,213c2.2-7.88,3.22-16.05,5.51-23.89a48.22,48.22,0,0,0,2-12.73c.06-3.54-.77-6.86-.92-10.34,0-.52.79-.52.82,0a36.83,36.83,0,0,0,.66,4.79c.76-5.31,1.65-10.32,1.25-15.82s-.91-10.84-.48-16.3c.77-9.81.8-19.71,3-29.35a.45.45,0,0,1-.62-.64c.74-.92.11-.24-1.18-.06a.65.65,0,0,1-.62-1.07,33.33,33.33,0,0,0-4.4-2.71.7.7,0,0,1-.16-1.27c1.38-.78,2-2.49,0-3.08a.69.69,0,0,1-.3-1.13c1.52-1.45,3.45-1.55.3-4.49A4.11,4.11,0,0,1,258.82,93c-.69-2.61-1.42-3.35-3.25-5.33a3.64,3.64,0,0,1-1.28-2.13.63.63,0,0,1,.6-.79c5.56-.54.52-3.17-1.35-5.55a3.63,3.63,0,0,1-.72-3c0-.28.23-.62.57-.57,3.79.47-3.3-2.89-2.67-4.14a.57.57,0,0,1-.79.2c-.22-.15-3-2.13-3-1.37a24.11,24.11,0,0,1,0,2.55.59.59,0,0,1-1,.41c-.75-.66-3.31-4.25-2-1.58a4.78,4.78,0,0,1,.56,3.62.46.46,0,0,1-.57.32,2.1,2.1,0,0,1-.61-.39.44.44,0,0,1-.55.37c-1.38-.48-2.67-.93-4-1.27a.57.57,0,0,1-.67.54,40.58,40.58,0,0,1-15.56-6.81c-3.62-2.6-8.07-5.5-10.38-9.4a13.11,13.11,0,0,1-1.8-4.3c.25,3.38.5,6.61-1.47,9.67-.18.28-.73.2-.68-.18.42-3.26-1,2.9-1.28,3.64a.54.54,0,0,1-1,0c-1-2.5-1.56-5.13-2.53-7.64s-2.31-4.57-3.18-7c-.12-.35-1.36-4.68-.61-1.48.18.82.38,1.63.6,2.44a10.38,10.38,0,0,1,.33,3.51c-.1,1-.71,2.79-2,2.79-1.77,0-3.75-4.86-2.93-.85.34,1.66,1.83,7.19-1.8,5.84-3-1.11-3.71-6.64-4.68-10.49a17.69,17.69,0,0,1-3.58-.67l.07.07a.44.44,0,0,1-.42.72c-2.41-.65-4.13-2.06-6.18-3.43-3.1-2.07.7,2.12,1.2,3.12.13.27,0,.74-.41.69-2.44-.32-4.32-1.62-6.24-3a.49.49,0,0,1-.28.21A7.36,7.36,0,0,1,170.66,52.7ZM430.1,618.61c.75-8.59,1.79-18.26-2.46-26.15a151.05,151.05,0,0,0-10.37-16.85c-.73-.12-1-.79-1.69-1.12a8.76,8.76,0,0,0-2.9-.91c-1.13-.16-2.26-.22-3.4-.29,3.22,3.71,6.09,7.81,7.55,12.53a.29.29,0,0,1-.52.22c-1.78-2.79-3.21-5.79-5.19-8.45s-4.32-4.9-6.27-7.53A55.2,55.2,0,0,1,396.56,553c-2.16-7.58-4.43-14.51-8.46-21.37-3.05-5.16-6.18-10.26-8.76-15.68a19.93,19.93,0,0,1-1.24,7.3c-2.25,6.1-6.3,12.32-11.55,16.26-.25.19-.6-.18-.43-.43,4.74-7,11.86-13.09,11.8-22.31,0-3.55-1.18-6.66-.87-10.24a33.09,33.09,0,0,1,.57-3.66c-.43-4.56.16-10.13,2.17-14.27,3.36-6.94,1.74-13.55-4.14-18.45-.41-.34-.11-.85.31-.94-.38-6,3.77-13.13-.14-18.37A25.89,25.89,0,0,0,363,442a15.64,15.64,0,0,1,2.94,2.81c.44.56-.28,1.34-.79.8-3.8-4-10.37-9-15.75-10.38-7.42-1.86-14.81-.19-22.11,1.42-11.61,2.54-22.39,5.36-30.67,14.37a.27.27,0,0,1,0,.15,7,7,0,0,0-1.42,5.08l.29.46a.57.57,0,0,1,0,.67c1.28,3.63,5.93,6.09,10.2,5.86.51,0,1-.09,1.5-.13a37.06,37.06,0,0,1,8.42-1.32l2.23-.51c7.38-1.79,14.24-3.86,21.91-3a.46.46,0,0,1,0,.92c-.62,0-1.24,0-1.85.06a6.82,6.82,0,0,0,2,2.48.41.41,0,0,1,.16.29,144.59,144.59,0,0,1,19.65,2.19c.68.13.39,1.17-.29,1-11.58-2.2-23.66-2.41-35.43-2.51-2.32,0-4.92-.07-7.56,0a55,55,0,0,1-9.85,1.53,14.42,14.42,0,0,0-7.45,5.23,23.48,23.48,0,0,0-.9,4.25c-.52,2.58-1.05,5.36.54,7.71a16,16,0,0,0,9,6.27c5.12-1.94,10.49-1.79,15.9-1.09,8.25,1.07,16.42,2.65,24.71,3.33.52,0,.52.85,0,.81-10.42-.79-21.4-4.38-31.82-3.66-5.44.38-11.19,1.11-12.42,7.25-1.17,5.81,1.35,9.2,5.07,13.34a.7.7,0,0,1,.18.47c6,2.25,12.48,2.46,18.85,3l20.47,1.75c.59,0,.6,1,0,.92q-11.16-.89-22.32-1.8c-6.2-.5-12.33-.77-18.15-3.15a.57.57,0,0,1-.35-.55l-.25-.28c-.8,3.5-.75,10.07.48,13.49,1.46,4.07,6.73,7.52,10.87,8.48s8.25.21,12.17,1.65a24.35,24.35,0,0,1,7.84,4.58c.62.54-.29,1.45-.91.9-4.82-4.22-10.59-4.6-16.25-5.63a23,23,0,0,0,10.1,13c3.63,2.35,7.92,3.65,11.43,6.07a.31.31,0,0,1-.24.57,28.21,28.21,0,0,1-10-4.3c.31,3.16,1.32,6.19,1.54,9.33s-.12,6.43-.13,9.67c0,2.37-.05,4.72-.13,7.08a71.26,71.26,0,0,1-.57,13.07c-.93,5.44-2.75,10.69-3.92,16.09a144.43,144.43,0,0,0-3.73,34.35c.1,4.09.35,8.19.57,12.29,4.61,8.4,12.14,14,18.53,21,6.14,6.7,14.67,11.09,22.4,15.71.23.15.15.59-.15.56a12.54,12.54,0,0,1-1.25-.22c3.31,5,9.88,8.14,15.42,9.6,6.75,1.78,17.45-3.36,22-8.71,3.37-4,5.44-9.63,9.61-12.83,2.41-1.85,5.29-3.35,5.05-7.24-.1-1.54-.43-3-.52-4.56a24.7,24.7,0,0,1,.29-5.31,45.37,45.37,0,0,0-3.67,5.4c-.28.51-1.18.15-1-.4,1.19-2.93,3.29-5,5-7.64l.17-.29,0-.05a52.69,52.69,0,0,0,5.19-11.22C426.66,634.68,429.36,627,430.1,618.61Zm-12.71-44.88c1.51,0-.55-6-.71-6.8-.79-4.05-1.5-8.13-2.53-12.12-2.35-9.05-4.72-18.08-7-27.14-4.7-18.55-10.37-37-15.7-55.35-5.22-18-10.73-35.91-17.26-53.44-1.64-4.4-3.51-8.91-4.38-13.55-.7-3.69-1-7.47-1.83-11.14-1.95-8.74-7.78-16.6-14-22.94-1.25,8.39-3.18,16.67-3.54,25.18-.27,6.38-1.15,12.75-1.57,19.13-.4,6.08-.11,12.18-.65,18.24a20.49,20.49,0,0,1,3,.87,24.41,24.41,0,0,1,6.92,3.78c1,.84,2.12,1.58,3.2,2.33a.52.52,0,0,1,.58-.24c5.19,1.3,11,4.34,14.25,8.71,4.74,6.36.8,13.44.92,20.56a16.25,16.25,0,0,1,5.88,13.49c-.18,3.18-2.33,5.79-3,8.82a42.67,42.67,0,0,0-.86,6.22.47.47,0,0,1,.3.51c-.79,5.37-1.42,9.71-.22,15.06l0,.19a.39.39,0,0,1,.51.22c3,6.34,6.93,12.11,10.34,18.22a83,83,0,0,1,7.23,18.37c2.11,7.38,5.49,15.15,10.71,20.86l.5.55c2.15.08,6.82.15,8.63,1.49A.89.89,0,0,1,417.39,573.73ZM354,359.37a10.27,10.27,0,0,1-3,0c-1.86,3-3.37,6.14-5.69,8.77s-3.88,4.54-7.49,4.33a3.39,3.39,0,0,1-2.4-1.09,12.77,12.77,0,0,0-1.31-1.2.47.47,0,0,1-.14.08c-2.41.75-4.25.39-6.68,0-2.84-.41-4.59.51-7.17.86-2.27.3-3.78-.06-5.09-2a5.06,5.06,0,0,1-.66-1.73.52.52,0,0,1-.33-.07c-2.17-1.27-4.6,0-6.82-.86a17.7,17.7,0,0,1-3.52-1.86,12.69,12.69,0,0,0-5.25-2c-.43,6.92,2.71,13,3.64,19.85,1,7.53,2.42,14.92,2.81,22.52.38,7.28,2.45,13.92,4,21,.54,2.44,2,5,1.87,7.52-.07,1.67-.9,5.18.3,6.58l.05.1c6-2.48,12.55-3.91,19.24-5.31,5.28-1.12,11.1-2.21,16.56-1.37.57-6.57.28-13.18.76-19.76.42-5.79,1.24-11.59,1.44-17.39C349.6,383.93,353.63,371.92,354,359.37ZM338.75,462a6.58,6.58,0,0,1-1.88-2.69,93.52,93.52,0,0,0-15.7,2.41C327,461.67,332.87,461.71,338.75,462Zm-28.64-21.25a4.37,4.37,0,0,1-.73-3c-1.35-2.22-3.57-3.81-5.25-5.77a57.42,57.42,0,0,0-5.27-5.31c-2.76-2.51-6.17-5.28-10.29-4.1s-8.4,4.78-7,9.88a54.76,54.76,0,0,0,6.37,13.91c1.76,2.89,2.85,6.06,5.64,8.21a6.53,6.53,0,0,1,1,.86,7.89,7.89,0,0,1,1.19-3.74.32.32,0,0,1-.05-.45A38.66,38.66,0,0,1,310.11,440.72Zm-41.2-262c.5-7.38.82-14.59-1.22-21.76A11.78,11.78,0,0,1,266,159.8s0,0,0,0a80.49,80.49,0,0,1-1.71,12.87.41.41,0,0,1-.37.35,23.52,23.52,0,0,1,.36,5c0,.57-.09,1.12-.14,1.68a10.26,10.26,0,0,0,1.82-1.31,7.69,7.69,0,0,0,1.19-6.82c0-.08.11-.12.14,0a8.31,8.31,0,0,1-2.69,9.11,12.14,12.14,0,0,1-1.42,5.19c-.26,1.2-.55,2.4-.87,3.62-.55,2.12-1.05,4.24-1.52,6.37C266.1,194.79,268.64,182.86,268.91,178.73Z"/><path d="M281.83,72.62c.81.75,3.15,4.91.86,5.38-1.08.22-4.51-.72-2.54,1.26a7.2,7.2,0,0,1,2.36,3.63.65.65,0,0,1-.62.81c-2.1.17-7.6-1-3.4,1.74a3,3,0,0,1,1.68,3.09,1.77,1.77,0,0,1-1.69,1.36c.07,0-5.79.37-3.87,1.46A10.51,10.51,0,0,1,277,93.08a.69.69,0,0,1-.3,1.14c-2.82.47-.61,2.82-.09,3.83.41.79-.79,1.49-1.19.69l-.09-.17c-1.14-2.27-2.53-4.27-.35-5.26-1.34-.78-3.2-1.76-2.8-3.21.55-2,3-1.73,4.54-1.61,3.64.27-.17-2.62-1.18-3.38a2.66,2.66,0,0,1-1-1.38c-.33-.8.72-1.51,1.36-1.55,1.75-.1,3.53.48,5.26.31,0,0-3.19-3.33-3.43-3.77a1.53,1.53,0,0,1,1-2.45,5.78,5.78,0,0,1,2.76.28c3.23.6-3.66-3.85-4-4s-.7-.27-1-.42c-2.87-1.72-2.15-5.6-5.35-7.2a.82.82,0,0,1-.29-1.12c2.18-3.07,3.63-6.14,6.73-8.31.81-.56,5.67-3.75,1.08-4.94l-1.73-.43a11.46,11.46,0,0,1-2.85-.93c-1.07-.6-2.29-1.58-1.89-3,.22-.82,4.75-3.56,3.86-4.05a.68.68,0,0,1-.25-.93c1.68-2.31-3.85-6.76-5.3-7.07a28.44,28.44,0,0,0-4.78-.45.64.64,0,0,1-.44-1.08c2.84-3.26,7.25-3.06,10.73-5.24,5.75-3.6-3.53-2.31-5.77-1.94a19.21,19.21,0,0,1-5.35.26c-.27,0-.57-.28-.45-.59a7.4,7.4,0,0,1,1.39-2.63c2.19-2.52-2.67-.34-3.62.05-3,1.22-5.71,2.31-9,2.09a.56.56,0,0,1-.28-1,7.12,7.12,0,0,0,.89-.63c-1.89,1-3.41,2.71-5.46,3.47a.54.54,0,0,1-.69-.52,27.49,27.49,0,0,1,.39-6.13,13.81,13.81,0,0,1-4,2.78.5.5,0,0,1-.63-.49c.11-1-5-.28-6.17-.25a.42.42,0,0,1-.4-.52,7.46,7.46,0,0,1,2.9-3.92,17.15,17.15,0,0,1,2.39-1.9,59.83,59.83,0,0,0-6.3,2.9.63.63,0,0,1-.75.8c-4.77-1.19-9.77-3.39-13-7.24-2-2.41-5.38-7.21-3.77-10.43-1.46,2.91-1.51,7.1-4.89,8.55-4.87,2.11-4-6.34-10.9-3.19a.55.55,0,0,1-.74-.19c-1.75-3.26,0-4.62,2.47-5.52A47.86,47.86,0,0,0,186.54,6c-3.25,1.71-4.07,4.51-6.5,6.89a19.47,19.47,0,0,1-5.36,3.53.58.58,0,0,1-.87-.5,10.79,10.79,0,0,0-1.3-4.25l-1.71-.09a13.9,13.9,0,0,1-.19,2.5.57.57,0,0,1-.7.54c-3-.74-7.68-3.26-9.15-6.19-1.08-2.16.12-3.09,1.82-4,.79-1.25-2.69-.77-3-.67a7.69,7.69,0,0,0-4.93,3.1c0-.06,2.67.38,2.94.44a.63.63,0,0,1,.37.91c-.66,1.49-3.73,4.51-.49,4.69a4,4,0,0,1,1.47.15,3.17,3.17,0,0,1,1.27,1,5.33,5.33,0,0,0-1,1c.36,3.76-4.12,3.68-7.05,3.14a30.19,30.19,0,0,1-12.66.53c1.2,1.42,2.4,2.83,3.68,4.18a.77.77,0,0,1-.34,1.28c-3.25.57-7,2.35-10.33,2.12-1.33-.09-6.69-1.36-5.17,1.23.41.72,1.08,2.21.2,2.87a4.94,4.94,0,0,1-3.84,1.13c-1.6-.09-2.51-1.87-.66,1.53a.76.76,0,0,1-.65,1.14,1.43,1.43,0,0,1-.83.11.69.69,0,0,1,0,.32h.16a1.11,1.11,0,0,0-.17.3h-.14a1,1,0,0,1-.26.2,1,1,0,0,1-.12.56,9.63,9.63,0,0,1-3.11,3.36,1,1,0,0,1-1.36-.36c-.21-.41-.41-.78-.59-1.15-2.17,2-6.72,1.34-10.22,1.4a1,1,0,0,1-.33,1.36c-1.25.68-1.66,3.53-2.59,4.7a8.6,8.6,0,0,1-3.46,2.65c-2.8,1.24-11.48,1.61-6.5,6.09a1,1,0,0,1-.44,1.66c-3.47.72-4.84,2.37-5.93,5.58a6.34,6.34,0,0,1-2,2.9c2.57.72,5.14,0,7,2.56a1,1,0,0,1-.36,1.36c-1.94,1-4.25,1.2-1.75,3a1,1,0,0,1,.36,1.36,5.75,5.75,0,0,0-.59,2.13l.35.15c-.11.11-.25.22-.37.33s0,.09,0,.14a1.06,1.06,0,0,1-1.42.9l-1.11.67a33.8,33.8,0,0,1,7.79-.45.64.64,0,0,1,.32,1.18c-2.39,1.66-5.21,2.39-7.81,3.63-.67.32-4.28,3.19-3.92,3.19a10.7,10.7,0,0,1,3.09.33.66.66,0,0,1,.29,1.1c-1.93,2.06-4.87,2.82-6.64,4.9a16.75,16.75,0,0,1,3.34-.64.6.6,0,0,1,.52.91c-1.47,2-3.62,3.27-5.13,5.24a.66.66,0,0,1,.44.62c0,2.57-.09,3.43,2.88,3.79a6.47,6.47,0,0,1,2.41.63c.86.45.63,1.25.21,1.93,2.37.69.88,3.75,3.48,5.12a.62.62,0,0,1,0,1.07l-1.36,1.8a.65.65,0,0,1-.46.54.43.43,0,0,1-.23.58c-.75.36-7.83,6.13-5.67,7,1.14.48,2.21.61,3.32,1.05a1.48,1.48,0,0,1,.85,1.22,4.43,4.43,0,0,1-1.77,3.95c-.92.8-2.56,2.21-.68,2.74a2.05,2.05,0,0,1,.85.45c.87.86.37,2.09.11,3.08-.56,2.06-.07,2.27,1,3.56.52.62,1.55,1.57,1.12,2.54-.83,1.87-3.79,4.42-.9,5.66a.66.66,0,0,1,.31.76,13.54,13.54,0,0,0-.66,3.92c.68,6.59,1.6,2.06,1.84,3.75.19,1.33.32,1.28-.32,2.33-1.43,2.34-4.4,3.86-1.58,7.1a21,21,0,0,0,1.64,2.11c.08,0,2.05,2.43,2.07,2.47a1.72,1.72,0,0,1,.1,1.39c-.23.36.63,1.29,1.39,2.08a12.3,12.3,0,0,0-.48-2.46c-.8-2.67-2.78-6.26-1.91-9.17s2.75-5.08,4.78-7.39a.44.44,0,0,1,.18-.11,1.25,1.25,0,0,1,0-.81,1,1,0,0,1-1.11.64c-1.48-.13-2.69-2.78-3.15-3.93-.2-.48.59-.69.78-.21s2.42,4.66,3.23,2.82a.25.25,0,0,1,.45.05c.25,1.41,1.72,4,1.26,1a13.63,13.63,0,0,1-.25-2,3.26,3.26,0,0,1,.7-2.38,2.13,2.13,0,0,1,2-.58c.25,0,.51.38.6.58.65,1.41,1.46-1,1.66-1.82a.42.42,0,0,1,.83.11,8.21,8.21,0,0,0,0,1,18.9,18.9,0,0,0,1.35-1.65.33.33,0,0,1,.6.16c0,.32-.29,1.73.09,1.19a.29.29,0,0,1,.54.15c0,.42,0,.79,0,1h-.45s-.11-.06-.22,0a.34.34,0,0,1-.64-.17,5.3,5.3,0,0,0,0-.89,2.66,2.66,0,0,1-.28.23,7.07,7.07,0,0,1-1.06,1.31.43.43,0,0,1-.69-.09c-.46.82-1.09,1.41-1.92.93-3.44-2-1.57,3.32-2,5.12a.41.41,0,0,1-.68.18,12,12,0,0,1-1.31-1.27c-2.84,3.31-5.39,6.41-3.73,11.23.67,1.94,1.71,4,1.82,6.13.39,6.74.21,12.56,3.83,18.62,2.82,4.73,16.64,14,20.57,6.15a.62.62,0,0,1,.37-.33,71.07,71.07,0,0,1-1.38-16.65.46.46,0,0,1,.91,0c-.75,30.88,20.49,55.2,40.41,76.46.4.42-.13,1.18-.63.82-6.53-4.66-11-11.83-15.92-18-4.67-5.9-9.53-11.75-13.54-18.14q-1.64-2.59-3-5.3c1.54,8.92.62,18.54,1,27.42.4,9.45.76,20.52-4.59,28.83-4.8,7.43-12.31,12.23-20,16.35-4.82,2.61-9.7,5.1-14.56,7.62-4.68,2.43-10.68,4.06-14.73,7.38.6,2.53,2.36,4.33,3.3,6.75,1.46,3.76,3,7,5.92,9.95,4.07,4.1,8.47,7.89,12.63,11.9a166.67,166.67,0,0,0,17.24,14.64,12.24,12.24,0,0,1,3.72,2.23c2.41,2.06,4.93,3.2,7.53,4.88,2.24,1.45,4.6,4.3,7.12,5a15.25,15.25,0,0,1,3.53,1.13c2.33,1,4.5,2.51,7.1,3.31a63.19,63.19,0,0,1,8.36,3.23c4.63-5,7.43-11.22,9.75-17.67l-.08,0c.14-.57.33-1.13.52-1.69h0a.4.4,0,0,1,.15,0c4.32-12.49,7.35-25.66,18.87-33.24a.37.37,0,0,1,.57.29c3.47-.63,6.73.6,9.6,2.74,2.32,1.72,5.48,3.86,4.41,7.09-.4,5.34-4,10.7-7.82,15.26l.52-.24-.34.35c-.6.63-1.2,1.26-1.76,1.92l-.31.12c-1.45,1.6-2.87,3.07-4.12,4.36-3.94,4.08-8.36,7.93-11.61,12.61-2.88,4.15-5.71,9-8.17,13.47l-.4.71a.54.54,0,0,1-.15.18,16.86,16.86,0,0,1,5.18,9.22.58.58,0,0,1,.15.13,45.56,45.56,0,0,1,6.2,12.73,6,6,0,0,1-2.76,6.85,10.09,10.09,0,0,1-11.16.07c-3.81-2.24-5.15-5.91-8.13-8.82a38,38,0,0,0-3.84,4.18,17.76,17.76,0,0,1-2.15,2.52c3.78,1.08,7.81,2.4,10.57,5.25a13.82,13.82,0,0,1,3.56,13.35c-1.29,4.81-5.79,8.58-8.69,12.42a.42.42,0,0,1-.16.14,8.87,8.87,0,0,1,.86,1c6.49,8.67-.29,18.18-8.3,22.67a10,10,0,0,1,.48,4.36c-1,10.74-18.18,20.71-27.16,13.24a.72.72,0,0,1-.17-.23,23,23,0,0,1-2.89.7,15.27,15.27,0,0,1-3.67.17.38.38,0,0,1-.11.18,9.07,9.07,0,0,1-4.71,2.46.38.38,0,0,1,0,.22c-1.31,6.55-1.24,12.81-4.11,19-2.31,5-4.48,8.66-9,12s-8.58,8-13.53,10.64a14.15,14.15,0,0,1-5.48,1.6c-4.27,2.1-6.49,6.62-9,10.6-3,4.76-4.41,10.06-6.23,15.31-3.75,10.85-8.16,21.46-12.08,32.25-7.62,21-18.49,41-22.69,63.21-.86,4.55-1.44,9.47-3.3,13.75s-4.8,7.58-7.41,11.33C-.4,669-4.9,676.37-13,681.89c-3.78,2.58-7.74,4.87-11.72,7.13,0,.27.07.54.1.81,0,0,0,0,0,.07,3,18.77.61,42.58,1,61.58a196.41,196.41,0,0,1-.84,27.12c-1,8.37-3.16,16.61-4.33,25-1.28,9.11-.08,18.35-1.72,27.43s-4.94,17.74-5.56,26.84c-.59,8.69,1.86,17.11.89,25.84-.45,4.06-5,13-2.29,16.39a.58.58,0,0,1,.09.61.52.52,0,0,1-.89.19c-3-3.21-.41-8.6.62-12.13,2.56-8.74.11-17,.07-25.74s2.49-17.09,4.49-25.6c2.26-9.62,1.77-18.8,2.52-28.52.7-9.13,3-18,4.44-27,1.53-9.45,1.56-19,1.4-28.57-.31-18.76,2.36-42.21-.41-60.77a4.88,4.88,0,0,1-.2-1.37l0-.24c-.05-.31-.09-.61-.14-.91,0,0,0-.07,0-.11l-.06-.43c-3.93,2.22-7.87,4.41-11.7,6.81-4.24,2.65-8.42,5.43-12.75,7.93a49.7,49.7,0,0,0-6.07,3.94c-2.9,3-5.22,6.71-8.44,9.4-1.18,1-6.22,1.87-8.36,2.71a22.55,22.55,0,0,1-8.45,2.12c-8.85.39-14.87-3.62-21-9.54-4.24-4.08-8.82-8.12-12.17-13-2.77-4-4.39-8.45-6-13a69.68,69.68,0,0,1-3.88-14.61c-.81-6.14-1.36-12.22-3.64-18a19.15,19.15,0,0,1-3.91-7c-2.42-8.39-2.49-17.32-2-26,.09-1.48.23-2.94.38-4.39l0,.06a1,1,0,0,0,0-.44,5.17,5.17,0,0,0-.07-.55l.21-.25a189.82,189.82,0,0,1,4-21.13c1.62-6.91,4.27-13.56,6.15-20.39a.87.87,0,0,1-.31,0c-3.62-1.4-7.83-2.79-11-5.05-1.13-.8-2-1.78-1.88-3.29.47-4.29,2.22-8.45,3.61-12.51,1.86-5.39,3.53-10.83,5.38-16.22a183.78,183.78,0,0,1,11.81-27.43c2.63-4.88,3.44-10.07,4.77-15.38,1.19-4.73,2.94-9.31,4.42-14,3.42-10.74,6.56-21.59,9.18-32.55,2.23-9.3,3.34-19.57,7.34-28.31,4.41-9.63,9.34-19.26,14.24-28.65a140.5,140.5,0,0,0,7.32-15.5c1.41-3.73,3.6-7.08,4.6-11a.4.4,0,0,1,.52-.29.64.64,0,0,1-.07-.66,8,8,0,0,1,3.8-3.47,18.06,18.06,0,0,0,6.3-5.15c3.7-4.71,9.77-6.64,15.38-8.08,7-1.79,14.29-3.6,21-6.38,7.38-3,13.51-8.25,20.61-11.87,6.57-3.37,12.89-7.21,19.5-10.49,5.7-2.83,10.27-6.19,16.45-8.07,4.48-1.36,8.46-3,12.08-6,1.25-1.05,2.61-2.33,4.25-2.72,2.87-.68,5.23-.9,7.77-2.53a9.78,9.78,0,0,1,4.56-1.07.26.26,0,0,1,.3.26c2.86-2,6.09-2.83,9.23-4.46,4.82-2.52,9.68-5,14.5-7.5,7.78-4.08,16.52-8.22,22.16-15.19,7.18-8.86,7.24-20.69,6.73-31.57-.47-9.82.94-20.54-1.25-30.24a73.1,73.1,0,0,1-5-14.51c-4.25,6.41-17.69.41-21-4.54a36,36,0,0,1-4.48-9.58c-.93-3.07-.51-6.26-.59-9.37-.92-1-2.21-1.58-3.19-2.53a.62.62,0,0,1-.1-.78l-1-1.51a.69.69,0,0,1-.48-.85c.33-.87-2.48-3.87-2.83-4.33-.73-.94-.5-3,0-4a7.82,7.82,0,0,1,2-2.91c1.78-1.7.14-2.13-.32-3.26-.87-2.17-.65-3.9-.18-6.13.06-.29-1.57-1.67-1.61-2.44a5.54,5.54,0,0,1,1.79-4c.38-.42-2.29-3.39-2.63-4.32-.62-1.72,2.93-4.13-.88-5.23a.64.64,0,0,1-.44-.77c.33-1,4.54-6.64,3.34-6.83s-3.14-.46-3.78-1.56c-1.77-3,4.55-7.47,6.61-8.4a.47.47,0,0,1,0-.21c.25-1.91,1.47-1.91-.19-2.81-1.82-1,1.73-4.16-1.86-4.06a.64.64,0,0,1-.45-1.08c.58-.7-4.68-2-5.18-2.46s0-3.26-.37-3.26a.68.68,0,0,1-.58-1,11.54,11.54,0,0,1,2.56-3.06c2.84-2.49,1.43-1.68-.8-1-.61.2-1-.48-.75-1a7.17,7.17,0,0,1,3.25-3.56c1.92-1.09,4.56-2.14.66-2.25a.69.69,0,0,1-.66-.87c1.47-4.38,7-5.39,11-7.21-2.57.13-5.11.67-7.71.73a.68.68,0,0,1-.47-1.15,40.2,40.2,0,0,1,3.45-2.4c.23-1.86.85-2.55-1.06-3.68a1,1,0,0,1-.36-1.36c.92-1.66,4.62-3,1.23-3.26a11.16,11.16,0,0,1-4.87-1.13,1,1,0,0,1-.2-1.56c2.47-2.15,2.67-3.44,3.42-6.52.44-1.86,2.84-2.67,4.82-3.13-1.69-2-2.34-4.45,1-5.76,2.83-1.1,7.6-1.24,9.59-3.75,1.43-1.79,1.2-3.24,2.09-4.49-.25-.12-.54-.28-1-.54a1,1,0,0,1,.24-1.82c2.66-1.08,12.37.85,13-2.55a1,1,0,0,1,1.92,0q.45,3.59,2.18-.24a.9.9,0,0,1,1.07-.43,1.24,1.24,0,0,0-.64-1.13.88.88,0,0,1,.68-.43,5.87,5.87,0,0,1,.72-.08,4.34,4.34,0,0,1-.23-3.14A.79.79,0,0,1,122,29c5.58,3.87,4.39-.08,3.22-1.06a2.7,2.7,0,0,1-1.12-1.49c-.3-1.11.6-1.7,1.36-2.16,1.71-1,5.12.52,7,.47,2.87-.07,5.81-1.14,8.67-1.81-1.48-1.62-2.9-3.3-4.34-5a.78.78,0,0,1,.76-1.3,30.69,30.69,0,0,0,13.24.66.55.55,0,0,1,.55-.49l1.5,0a.51.51,0,0,1,.46.28c2.11.26,5,.26,4.73-2.23a.52.52,0,0,1,0-.22,10.32,10.32,0,0,0-3.21-.75c-.38-.05-.49-.47-.45-.78a8.43,8.43,0,0,1,1.3-3.52c1.16-1.91-.75-1.45-2.18-1.38a.61.61,0,0,1-.52-.9,8.61,8.61,0,0,1,8.84-4.85c1.22.18,1.92.59,2,1.2a.49.49,0,0,1,.42.88L163,5.5a.37.37,0,0,1-.16.07,2.9,2.9,0,0,1-.72.23,3.49,3.49,0,0,0,1.23,3.76,20,20,0,0,0,3.94,2.83c3.5,1.78,2.24-1,2.75-3.47a.57.57,0,0,1,.82-.34,6,6,0,0,1,2.64,2.5c.33.68,1.32,4,1.9,3.68,3.94-2.11,5.06-6.26,8.6-8.58C190.34,2,200.51-.28,208.06,0a.53.53,0,0,1,.14,1c-1.32.41-2.73.67-4,1.19-1.57,2.49-1.83,3.49-.75,3l1.32-.47a3.75,3.75,0,0,1,3.2.55c2.91,2.29,6.74,3.8,8.3-.81a13.49,13.49,0,0,1,1.82-4c.17-.21.62-.27.68.09,1.35,9.34,7.58,15,16.55,17.3a39.12,39.12,0,0,1,8.34-3.51.32.32,0,0,1,.31.54c-1.46,1.31-3.41,2.36-4.71,3.81-3.17,3.52,3.18,1.91,4.52,1.49a.49.49,0,0,1,.62.47c.16,1.73,1.78-.62,2.61-1.42.58-.56,1.16-1.12,1.72-1.7a6,6,0,0,1,3.11-3.45.47.47,0,0,1,.57.73c-.8,1-1.63,2-2.52,3a9.49,9.49,0,0,0-.82,2.25,26,26,0,0,0-.32,5s3.1-2.32,3.53-2.66a6.58,6.58,0,0,1,3.46-1.3c.55-.07.66.63.4,1a10.75,10.75,0,0,1-1.31,1.37c4.53-.28,8.48-3,13.08-3.19a.42.42,0,0,1,.29.71,7.79,7.79,0,0,0-2.07,3.86,16.78,16.78,0,0,0,3.86-.42c1.38-.26,2.75-.51,4.13-.71a9.63,9.63,0,0,1,5.26.64.53.53,0,0,1,.32.77c-2.73,4.71-8.68,4.23-12.47,7.35,4,.29,7,1.37,9.44,5.18.51.8,1.62,2.42.89,3.44-.23.32.7.87.66,1.29a2.52,2.52,0,0,1-1.3,2c-.57.38-5.13,2.65-1.44,3.83.91.29,1.82.53,2.74.78,2.26.61,4.57,2,3.47,4.63s-11.78,8.45-7.43,11.14c2.09,1.29,1.37,5.46,3.72,6.22C279.18,71.42,280.84,71.71,281.83,72.62ZM187.91,319.46a5,5,0,0,0-1.74-4,31,31,0,0,0-3-2.33c-2.82-1.85-5.69-3.18-9.11-2.21a.37.37,0,0,1-.18,0c-10.58,7.72-13.55,20.63-17.7,32.91a0,0,0,0,0,0,0c-2.34,6.92-5.07,13.62-9.76,19.07,1.06.54,2.1,1.11,3.11,1.71a30.33,30.33,0,0,1,4.21,3c4.46-8.11,9.32-15.83,15.89-22.41,2.82-2.83,5.65-5.64,8.25-8.66a.48.48,0,0,1,.13-.16c.95-1.11,1.88-2.25,2.76-3.43C183.7,329,187.5,324.57,187.91,319.46Zm-25.31,76.9c3.46-2.67,2.65-5.37,1.05-8.74-1.24-2.65-2.09-5.41-3.55-7.93a17.89,17.89,0,0,1-.92,6.44c-.21.64-1.22.33-1.12-.31,1.19-7.15.33-13.32-5.8-17.81a46.15,46.15,0,0,0-6.92-4.13.8.8,0,0,1-.77-.38c-1.09-.51-2.18-1-3.3-1.45-3.07-1.24-6.67-1.9-9.5-3.6-1-.61-1.92-1.17-2.85-1.62a24.61,24.61,0,0,1-3.9-.9,8.14,8.14,0,0,0-1.64.18,57.73,57.73,0,0,0-6.54,1.83c-8.17,2.8-14.15,9-21.56,13.18-8.19,4.61-17.18,8.11-23.85,14.89a.39.39,0,0,1-.24.12c-4.42,4.88-5.64,11.49-7.79,17.56a77.4,77.4,0,0,1-6.5,14.4.55.55,0,0,1-.09.29c-2.47,3.87-3.48,8.53-5.68,12.57-1.72,3.16-3.49,6.31-5.4,9.36A198.75,198.75,0,0,1,31,460.45c-8.92,11-17.38,22.7-27.75,32.38a.63.63,0,0,1-.08.92,152.12,152.12,0,0,0-19.56,19.51c-3,3.59-5.86,7.25-8.73,10.93-2.38,3.07-5.29,5.76-7.61,8.84s-3.5,7.11-5.58,10.48a53.17,53.17,0,0,1-6.7,8.61c-4.67,5-9.15,9.7-15.19,13.07-4.07,2.26-8.27,4.24-12.5,6.13a.44.44,0,0,1-.39.33c-.13,0-.26,0-.38,0-9.85,4.39-19.88,8.37-29,14.41-12.31,8.19-22.81,18.94-27.83,33.1-.18.52-.95.18-.77-.33a58.13,58.13,0,0,1,3.79-8.68c-1.6,1.71-3.26,3.38-4.83,5.11-.16,1.43-.29,2.85-.38,4.27-.53,8.88-1.13,18.86,1.83,27.39,2.55,7.34,9.58,10.64,12.56,17.48.3.7-.68,1.33-1.06.62-1.78-3.42-4.5-6-7-8.69,2.38,7.27,2.33,14.88,4.4,22.35,2.58,9.31,6.16,18.53,12.91,25.6,6.41,6.72,13.73,16,23.72,16.66a24.81,24.81,0,0,0,9.27-1.1,4.45,4.45,0,0,1,1.18-.64c3.2-1.32,8.38-2.28,10.61-4.92.73-.87,1.44-1.67,2.14-2.44.22-.35.44-.7.65-1.06a.64.64,0,0,1,.56-.33c4.49-6.16,13.31-9.74,19.34-13.54,8.54-5.39,17.74-9.82,26.12-15.46,4.33-2.92,9-6.23,12-10.65,3-4.59,6.06-9.22,9.35-13.63a37.9,37.9,0,0,0,7.39-16.61c.89-4.57,1.8-9.12,3.13-13.59,6.49-21.87,15.83-42.52,24-63.75,4.16-10.78,7.42-22.17,12-32.74,2.37-5.43,6.07-12.55,11.54-15.83-2.94,0-5.91-.68-9.19-1-1-.1-.75-1.6.22-1.5,2.71.28,5.43,1.08,8.15,1.18,4.42.15,7.92-1.66,11.23-4.45s7-5.62,10.54-8.48c4.3-3.53,6.75-8.28,8.7-13.42s2-10.42,3.2-15.72h0A10.84,10.84,0,0,1,94,471c-.39-.08-.31-.69.09-.62a8.07,8.07,0,0,0,7.54-2,17.11,17.11,0,0,1-2.75-.66c-.41-.13-.15-.73.25-.61a14,14,0,0,0,9.36-.19,17.68,17.68,0,0,1,4.27-1.17,9.47,9.47,0,0,1,6.18,1.37c.49.31-.07,1-.55.71-2.72-1.79-5.24-1.31-7.83-.57,6,3.79,12.29,1.21,17.66-2.6,4.27-3,9.31-8.38,6.52-14.15-4.94-10.24-23.28-8.82-32.74-8.88-.58,0-.7-.9-.12-.9,7.76,0,28.81-1,33.71,8.35,4.73-2.66,9.74-6.87,10.22-12.72.49-6.17-3.12-10.52-9-12.22-9.19-2.66-18.32-5.62-28-5.47-.45,0-.55-.69-.09-.7,7.49-.19,14.57,1.31,21.75,3.33,3.87,1.1,8.84,1.88,12.17,4.56a.61.61,0,0,1,.05-.12c2.8-4,8.08-8,8.77-13.13A12.87,12.87,0,0,0,144.19,399c-9.46-4.51-20.7-5.46-31-6.23-.65-.05-.5-1,.15-1,.34,0,.68,0,1,.06a.54.54,0,0,1,.21-.37c4.7-3.64,11.33-6.1,13.52-12.17.17-.48.83-.21.77.24,5.55,2.18,10.9,5.37,16.23,8.05a.6.6,0,0,1,.34.57c1.6,1.44,2.59,3.75,4,5.29C152.58,396.75,158.31,399.66,162.6,396.36Zm-22.26-4.79a35.33,35.33,0,0,1,3.25-3.34c-2.37-1.15-4.78-2.2-7.07-3.52-1.1-.63-2.2-1.27-3.3-1.88a.93.93,0,0,1,0,.13c-2,3.49-4.65,6.59-6.85,10a82,82,0,0,1,10.56,2.16l.2.05a15.19,15.19,0,0,1,1.46-1.57C139.16,392.92,139.74,392.24,140.34,391.57Zm-8-9.12a.27.27,0,0,1,.08-.07,42.91,42.91,0,0,0-3.92-1.9,17.27,17.27,0,0,1-5.1,6.29,37.6,37.6,0,0,1-7.23,5.15c3,.2,6,.48,9,.87C127.17,389.11,130.17,386.06,132.32,382.45Zm-9.11-27.6c-1-.77-2-1.62-3-2.44-1.72-1.35-3.7-2.3-5.51-3.51l0,0c-10.14-6.25-18.68-14.1-27.32-22.54-4.36-4.26-9.93-8.12-13.22-13.32-1.6-2.53-2.21-5.33-3.65-7.92C69.33,303.07,68,301.4,67.6,299a.62.62,0,0,1,.06-.31l0-.06a0,0,0,0,0,0,0,.53.53,0,0,1,.12-.15l.31-.23c-2.81.34-4.37,2.64-7.1,3.12a17.68,17.68,0,0,0-9.59,4.24c-4.2,3.47-9.31,4.54-14.33,6.27C31,314,25.22,318,19.57,321.16s-11.08,6.25-16.79,9.11c-6.15,3.08-11.34,7.63-17.61,10.49a106.69,106.69,0,0,1-17.71,5.82c-7.6,1.94-15.61,3.46-20.53,10.13-2.33,3.16-7.52,3.9-9.15,7.34a.54.54,0,0,1-.75.27.38.38,0,0,1,0,.28c-1,4.44-3.43,8.45-5,12.72a87.75,87.75,0,0,1-5.15,11c-4.45,8.35-8.23,17-12.64,25.42-4.86,9.24-6.7,18.86-9,28.93q-3.36,14.65-7.65,29.08c-2.81,9.34-6.12,18.48-8.32,28-2,8.7-6.89,15.88-10.23,24.09-3.75,9.22-6.59,18.72-9.83,28.12-1.41,4.09-4.35,9.52-4.19,13.92.13,3.42,9.51,6,11.79,6.92a1,1,0,0,1,.24.16c.41-1.56.77-3.14,1.06-4.73l-1.75.07a.31.31,0,0,1-.17,0c-.61,0-1.22.07-1.83.13s-.49-.73,0-.78a95.69,95.69,0,0,1,9.86-.46A159.86,159.86,0,0,1-96,567.6c7.08.64,14.77,1,21.71,2.89q3.84-1.71,7.66-3.52c9.11-4.35,16.09-10.32,22.64-18,5-5.89,6.94-13.64,12.28-19.17,10.55-10.93,18.32-24,29.94-33.89,0,0,0,0,0,0,12.53-10.59,22.53-24.9,32.86-37.57a173.63,173.63,0,0,0,15.36-21.77,84.28,84.28,0,0,0,5.7-10.8c.57-1.41,1.06-2.84,1.62-4.23a.38.38,0,0,1,0-.41c3.66-7.17,7.31-13.95,9.81-21.65,1.74-5.34,3.67-10.66,7.75-14.67a.32.32,0,0,1,.24-.1c7.82-7.63,18.3-10.62,27.11-17C106,362.5,113.9,355.86,123.21,354.85ZM-80.37,573.23l3.66-1.63c-2.75-.29-5.57-1-8.17-1.35-4.3-.54-8.61-1-12.94-1.34a221.83,221.83,0,0,0-23.21-.74c-1.16,8.1-4.23,15.55-6.28,23.43a174.2,174.2,0,0,0-4.63,22.47c2.1-2.38,4.32-4.67,6.46-7a68.81,68.81,0,0,1,19.86-20.41c7.67-5.28,15.86-9.19,24.19-12.94-.45.08-.91.13-1.36.18.8-.26,1.59-.55,2.37-.89A.46.46,0,0,1-80.37,573.23Z"/><path d="M277.53,72.56c.35.14,7.24,4.59,4,4a5.78,5.78,0,0,0-2.76-.28,1.53,1.53,0,0,0-1,2.45c.24.44,3.43,3.77,3.43,3.77-1.73.17-3.51-.41-5.26-.31-.64,0-1.69.75-1.36,1.55a2.66,2.66,0,0,0,1,1.38c1,.76,4.82,3.65,1.18,3.38-1.52-.12-4-.36-4.54,1.61-.4,1.45,1.46,2.43,2.8,3.21-2.18,1-.79,3,.35,5.26l-.11.06a.46.46,0,0,0-.82.27c0,2.63.79,8.29-2,9.51-1.36.61-1.59,3.2-1.22,4.33.72,2.17-.2,3.73-2.05,4.81a2.18,2.18,0,0,0-1,1,3.52,3.52,0,0,0-.23,1l-1.84-.22A99.84,99.84,0,0,1,268,108.48a.71.71,0,0,0,0-.14,1.83,1.83,0,0,1,.13-.16.4.4,0,0,0-.28-.68,7.76,7.76,0,0,1-1.36.08.71.71,0,0,0-.46-.82c-1.46-.51-1.06-1.6-2.17-2.12a14.71,14.71,0,0,0-1.4-.57c.91-.46,1.74-1.06,1.74-2.17,0-1.36-1.31-2-2.52-2.33,1.69-1.57,2.82-2.68.16-5s-1.3-3.44-2.87-5.46a7.59,7.59,0,0,0-1.74-1.7c-2.67-2,.29-1.75,1.61-2.29a.59.59,0,0,0,.34-.85c-.73-1.62-7-7.62-3.16-7.13.55.07.68-.65.4-1a74,74,0,0,0-5.67-5.67.57.57,0,0,0-.89.12c.32-.64-2.64-1.9-3.53-2.09a.57.57,0,0,0-.72.54c.15,1.79,1.22,4.16-.69,1.3a5.17,5.17,0,0,0-2.48-2.07.51.51,0,0,0-.74.57,5.42,5.42,0,0,0,.75,2.33c.27.59,2.44,4.6.57,2.11a3.51,3.51,0,0,0-3-1.46.4.4,0,0,0-.34.58,9.55,9.55,0,0,0,1.66,1.85,21.6,21.6,0,0,0-5-1.08.28.28,0,0,0-.29.13,43.87,43.87,0,0,1-14.23-7.13,41.8,41.8,0,0,1-8.73-8.06c-2.32-3.05-2.27-6.61-2.14-10.23a.11.11,0,0,0-.21,0,13.67,13.67,0,0,0-.65,2.67c-.08-2.26-.07-1.29,0,.17a30.82,30.82,0,0,0-.13,5.37,26.85,26.85,0,0,1-.8,6.37A5.8,5.8,0,0,0,209,60.1a.49.49,0,0,0-.89-.12,15.84,15.84,0,0,0-1.45,4.39c-.76,3.72-1.46-2.06-1.81-3.22-1.32-4.34-3.76-8.18-5.12-12.52a.39.39,0,0,0-.74,0c-.6,1.46-.26,2.7.1,4.22,0,.11,1.08,8.15-1.65,5.64-.22-.21-1.66-2.08-2.07-2.6a.48.48,0,0,0-.76.1,3.88,3.88,0,0,0-.23,2.63c.05.41,1.24,6.89-.71,5.31-3.13-2.53-2.75-9-4.7-12.46a.52.52,0,0,0-.94.4c.73,2.38-1.51,1.51-3,1a4.33,4.33,0,0,0-1.06-.23,6.89,6.89,0,0,0-1.82-.74.41.41,0,0,0-.51.21c-1.35-.95-3.25-3.09-5-3.1a.52.52,0,0,0-.49.65c.3,1.79,1.67,2.89,2.7,4.33a29,29,0,0,1-3.53-1.7c-1.05-.71-2-1.52-3.07-2.23-.52-.36-1.06.41-.65.84a2.13,2.13,0,0,1-2.12.77.53.53,0,0,0-.37.89c.76.74,2.91,1.7,1.4,2.32a.51.51,0,0,0-.3.73c.69,1.08,1.46,2.1,2.18,3.16A.48.48,0,0,0,173,59c2.95,2.74,5.8,6.8,5.94,11a2.92,2.92,0,0,0-.42-.17.42.42,0,0,0-.39.08,4.43,4.43,0,0,0-1.66-1.74.41.41,0,0,0-.45,0c-.71-1.32-1.55-2.56-2.35-3.84a.48.48,0,0,0-.78-.08,20.13,20.13,0,0,0-1.06-1.92.5.5,0,0,0-.91.39A7.78,7.78,0,0,0,172.63,66c.48,1.09.91,2.21,1.32,3.36l0,0a22.33,22.33,0,0,1-.13,3.38c-1.44-5.55-7.13-10.23-11.73-12.91a.45.45,0,0,0-.65.5l-1.19.09a.43.43,0,0,0-.38-.44c-3.67-.37-7.15-.58-10.63.77a.49.49,0,0,0-.11.88c1.45,1,3.63,1.56.85,1.72-1.38.09-2.75.15-4.13.25a17,17,0,0,0-6.43,1.31c-3.28,1.63,1.86,3.57,2.87,3.83,2,.51,2.54.49.3,1.15A24.6,24.6,0,0,0,139.67,71c-1,.42-2.43,1.59-2.14,2.83a4.32,4.32,0,0,0,2.93,3.2c.33.15-4.14,2.5-4.56,2.71a6.18,6.18,0,0,0-2.82,2.38.56.56,0,0,0,.33.8,7.64,7.64,0,0,0,2.22.41c1.62.12,3.77,1.45,1.35,2.64-2.14,1.06-4.42,1.55-5.59,3.8a.59.59,0,0,0,.34.86c2.25.42,6.13,0,4.47,3.79a.62.62,0,0,0,.36.9c1.22.35,2.46.61,3.69.93,4.59,1.21-1,5.39-1.79,6.05a.61.61,0,0,0,.43,1c4.25-.09-3.57,5.51-4.83,6.34-2.35,1.57-4.93,2.93-7,4.9a.69.69,0,0,0,.49,1.17c.66,0,1.32,0,2,0l.57,2.75c-.93.76-1.9,1.48-2.9,2.16a11,11,0,0,0-2.91,3,.7.7,0,0,0,.41,1c3.2,1.28-.78,3.7-1.63,4.54a.67.67,0,0,0,.3,1.11c.46.16-2.73,2.37-3.13,2.69a11.86,11.86,0,0,0-2.66,3.56l-.06.06c-1.18,1.63-2.11,2.83-2.27,4.84-.15,1.76,2.53,2.3.59,4.17-1.3,1.25-.65,2.76-2,3.91-.79.66-.42,1.36-.05,2,1.13,2.08.44,3.77,2.45,5.69,1,.92,1.37,2.21,2.29,3.16.33.34-.86,4.69-1.4,6.5-1.16-.61-2.29-1.22-3.4-1.84a14.77,14.77,0,0,0-3.86-1.46c-.8-.2-2.44.35-1.17-1.13,1-1.15.72-2.35-.24-3.43-2.25-2.54-3.32-.52-5.19-5.26a9.24,9.24,0,0,1-.51-4c.28.09.62-.19.42-.48a3.82,3.82,0,0,1-.32-.54,29.57,29.57,0,0,1,1.06-4.52c.15-.48-.6-.68-.75-.2a27.72,27.72,0,0,0-.79,3.07c-.07-.48-.11-1-.16-1.47a.34.34,0,0,0-.51-.29c-.53.33-.67.26-.7,0s0-.6,0-1a.29.29,0,0,0-.54-.15c-.38.54-.09-.87-.09-1.19a.33.33,0,0,0-.6-.16,18.9,18.9,0,0,1-1.35,1.65,8.21,8.21,0,0,1,0-1,.42.42,0,0,0-.83-.11c-.2.81-1,3.23-1.66,1.82-.09-.2-.35-.54-.6-.58a2.13,2.13,0,0,0-2,.58,3.26,3.26,0,0,0-.7,2.38,13.63,13.63,0,0,0,.25,2c.46,3-1,.41-1.26-1a.25.25,0,0,0-.45-.05c-.81,1.84-3-2.25-3.23-2.82s-1-.27-.78.21c.46,1.15,1.67,3.8,3.15,3.93a1,1,0,0,0,1.11-.64,1.25,1.25,0,0,0,0,.81.44.44,0,0,0-.18.11c-2,2.31-3.9,4.4-4.78,7.39s1.11,6.5,1.91,9.17a12.3,12.3,0,0,1,.48,2.46c-.76-.79-1.62-1.72-1.39-2.08a1.72,1.72,0,0,0-.1-1.39s-2-2.43-2.07-2.47a21,21,0,0,1-1.64-2.11c-2.82-3.24.15-4.76,1.58-7.1.64-1.05.51-1,.32-2.33-.24-1.69-1.16,2.84-1.84-3.75a13.54,13.54,0,0,1,.66-3.92.66.66,0,0,0-.31-.76c-2.89-1.24.07-3.79.9-5.66.43-1-.6-1.92-1.12-2.54-1.08-1.29-1.57-1.5-1-3.56.26-1,.76-2.22-.11-3.08a2.05,2.05,0,0,0-.85-.45c-1.88-.53-.24-1.94.68-2.74a4.43,4.43,0,0,0,1.77-3.95,1.48,1.48,0,0,0-.85-1.22c-1.11-.44-2.18-.57-3.32-1.05-2.16-.92,4.92-6.69,5.67-7a.43.43,0,0,0,.23-.58.65.65,0,0,0,.46-.54l1.36-1.8a.62.62,0,0,0,0-1.07c-2.6-1.37-1.11-4.43-3.48-5.12.42-.68.65-1.48-.21-1.93a6.47,6.47,0,0,0-2.41-.63c-3-.36-2.92-1.22-2.88-3.79a.66.66,0,0,0-.44-.62c1.51-2,3.66-3.19,5.13-5.24a.6.6,0,0,0-.52-.91,16.75,16.75,0,0,0-3.34.64c1.77-2.08,4.71-2.84,6.64-4.9a.66.66,0,0,0-.29-1.1A10.7,10.7,0,0,0,83,84.1c-.36,0,3.25-2.87,3.92-3.19,2.6-1.24,5.42-2,7.81-3.63a.64.64,0,0,0-.32-1.18,33.8,33.8,0,0,0-7.79.45l1.11-.67a1.06,1.06,0,0,0,1.42-.9s0-.09,0-.14.26-.22.37-.33l-.35-.15a5.75,5.75,0,0,1,.59-2.13,1,1,0,0,0-.36-1.36c-2.5-1.83-.19-2.06,1.75-3a1,1,0,0,0,.36-1.36c-1.85-2.54-4.42-1.84-7-2.56a6.34,6.34,0,0,0,2-2.9c1.09-3.21,2.46-4.86,5.93-5.58a1,1,0,0,0,.44-1.66c-5-4.48,3.7-4.85,6.5-6.09A8.6,8.6,0,0,0,102.8,45c.93-1.17,1.34-4,2.59-4.7a1,1,0,0,0,.33-1.36c3.5-.06,8,.59,10.22-1.4.18.37.38.74.59,1.15a1,1,0,0,0,1.36.36A9.63,9.63,0,0,0,121,35.73a1,1,0,0,0,.12-.56,1,1,0,0,0,.26-.2h.14a1.11,1.11,0,0,1,.17-.3h-.16a.69.69,0,0,0,0-.32,1.43,1.43,0,0,0,.83-.11A.76.76,0,0,0,123,33.1c-1.85-3.4-.94-1.62.66-1.53a4.94,4.94,0,0,0,3.84-1.13c.88-.66.21-2.15-.2-2.87-1.52-2.59,3.84-1.32,5.17-1.23,3.31.23,7.08-1.55,10.33-2.12a.77.77,0,0,0,.34-1.28c-1.28-1.35-2.48-2.76-3.68-4.18a30.19,30.19,0,0,0,12.66-.53c2.93.54,7.41.62,7.05-3.14a5.33,5.33,0,0,1,1-1,3.17,3.17,0,0,0-1.27-1,4,4,0,0,0-1.47-.15c-3.24-.18-.17-3.2.49-4.69a.63.63,0,0,0-.37-.91c-.27-.06-2.91-.5-2.94-.44a7.69,7.69,0,0,1,4.93-3.1c.35-.1,3.83-.58,3,.67-1.7.89-2.9,1.82-1.82,4,1.47,2.93,6.13,5.45,9.15,6.19a.57.57,0,0,0,.7-.54,13.9,13.9,0,0,0,.19-2.5l1.71.09a10.79,10.79,0,0,1,1.3,4.25.58.58,0,0,0,.87.5A19.47,19.47,0,0,0,180,12.87c2.43-2.38,3.25-5.18,6.5-6.89a47.86,47.86,0,0,1,17.69-4.83c-2.46.9-4.22,2.26-2.47,5.52a.55.55,0,0,0,.74.19c6.86-3.15,6,5.3,10.9,3.19,3.38-1.45,3.43-5.64,4.89-8.55-1.61,3.22,1.75,8,3.77,10.43,3.23,3.85,8.23,6.05,13,7.24a.63.63,0,0,0,.75-.8,59.83,59.83,0,0,1,6.3-2.9,17.15,17.15,0,0,0-2.39,1.9,7.46,7.46,0,0,0-2.9,3.92.42.42,0,0,0,.4.52c1.21,0,6.28-.72,6.17.25a.5.5,0,0,0,.63.49,13.81,13.81,0,0,0,4-2.78,27.49,27.49,0,0,0-.39,6.13.54.54,0,0,0,.69.52c2.05-.76,3.57-2.49,5.46-3.47a7.12,7.12,0,0,1-.89.63.56.56,0,0,0,.28,1c3.28.22,6-.87,9-2.09,1-.39,5.81-2.57,3.62-.05a7.4,7.4,0,0,0-1.39,2.63c-.12.31.18.56.45.59a19.21,19.21,0,0,0,5.35-.26c2.24-.37,11.52-1.66,5.77,1.94-3.48,2.18-7.89,2-10.73,5.24a.64.64,0,0,0,.44,1.08,28.44,28.44,0,0,1,4.78.45c1.45.31,7,4.76,5.3,7.07a.68.68,0,0,0,.25.93c.89.49-3.64,3.23-3.86,4.05-.4,1.43.82,2.41,1.89,3a11.46,11.46,0,0,0,2.85.93l1.73.43c4.59,1.19-.27,4.38-1.08,4.94-3.1,2.17-4.55,5.24-6.73,8.31a.82.82,0,0,0,.29,1.12c3.2,1.6,2.48,5.48,5.35,7.2C276.83,72.29,277.18,72.43,277.53,72.56Z"/><path d="M270.7,129.76c1.81,2.15,0,1.4-.56,2.3-1,1.75-1.51,5.25-1.42,7.29.11,2.77-.67,4.22-1.12,7.06-.66,4.14-.06,7.43-1.7,11.12-.15-5-.86-10.07-.89-15.13a186.61,186.61,0,0,1,1.16-23.11l1.84.22c-.21,2.44,2.23,4.46.47,7a.64.64,0,0,0,0,.68C269.15,128.2,269.95,128.87,270.7,129.76Z"/><path class="cls-1" d="M267.69,157c2,7.17,1.72,14.38,1.22,21.76-.27,4.13-2.81,16.06-8.2,17.15.47-2.13,1-4.25,1.52-6.37.32-1.22.61-2.42.87-3.62a12.14,12.14,0,0,0,1.42-5.19,8.31,8.31,0,0,0,2.69-9.11c0-.09-.16,0-.14,0a7.69,7.69,0,0,1-1.19,6.82,10.26,10.26,0,0,1-1.82,1.31c.05-.56.12-1.11.14-1.68a23.52,23.52,0,0,0-.36-5,.41.41,0,0,0,.37-.35,80.49,80.49,0,0,0,1.71-12.87s0,0,0,0A11.78,11.78,0,0,0,267.69,157Z"/><path class="cls-1" d="M266.57,108.74a.45.45,0,0,0,.62.64c-2.16,9.64-2.19,19.54-3,29.35-.43,5.46.09,10.85.48,16.3s-.49,10.51-1.25,15.82a36.83,36.83,0,0,1-.66-4.79c0-.52-.84-.52-.82,0,.15,3.48,1,6.8.92,10.34a48.22,48.22,0,0,1-2,12.73c-2.29,7.84-3.31,16-5.51,23.89-3.95,14.13-9,29-19.36,39.79a0,0,0,0,0,0,0,15.74,15.74,0,0,0-2,1.85c1.49-5.2,2.88-10.42,6.34-14.7.09-.1-.06-.26-.15-.15-1.8,2-4,4.18-5,6.74-1.6,4.1-2.5,8.41-3.91,12.58a29.54,29.54,0,0,1-9.69,13.49.39.39,0,0,0-.46.31s0,0,0,.06a25,25,0,0,1-9.6,4.53c-8.77,1.93-18.56.7-27-2.19-4.9-1.68-8.67-5.85-12.61-9a57.56,57.56,0,0,1-10.12-9.73c-.23-.29-.73,0-.5.3,5,6.63,12,12.41,18.64,17.28,7.24,5.29,18.39,6,27,5.44A27,27,0,0,0,220.64,275c-1.32,5.19-3.39,9.71-7.37,13.6-3.32,3.25-7.44,5.52-10.91,8.59a.27.27,0,0,0,.33.43A67.39,67.39,0,0,0,215,288.36c3.87-3.83,5.64-9,6.79-14.16a34.39,34.39,0,0,0,6.43-6.44,29.72,29.72,0,0,0,4.51-9,19.18,19.18,0,0,0,2.08-2.74c.41-.37.8-.76,1.19-1.15-.44,5.2-2.78,10-3.74,15.1-.93,4.94-.69,10.23-.87,15.25a143.31,143.31,0,0,0,2.88,33.93.32.32,0,0,0,.62,0c.25-1.28-.28-2.74-.51-4a96.05,96.05,0,0,1-1.16-10.44c-.28-4.08-.52-8.18-.66-12.27,3.63,4.9,6.71,10.13,11.22,14.32,5,4.61,11.56,7.77,17.22,11.54-2.13,4.21-1.24,9.18-2,13.74a39.35,39.35,0,0,1-6.36,16.63,46.43,46.43,0,0,1-14.52,13.06,30.27,30.27,0,0,0-5.93,2.77c-3.51,1.92-7.49,2.9-11.34,3.93-3.08.82-6.18,1.61-9.29,2.31-2.39.49-4.8.91-7.19,1.36s-5.06.29-7.4,1c-13.85,1.13-28-1.17-41.12-5.67a.42.42,0,0,0-.56.28h0c2.46-4.47,5.29-9.32,8.17-13.47,3.25-4.68,7.67-8.53,11.61-12.61,1.25-1.29,2.67-2.76,4.12-4.36l.31-.12c.56-.66,1.16-1.29,1.76-1.92l.34-.35-.52.24c3.86-4.56,7.42-9.92,7.82-15.26,1.07-3.23-2.09-5.37-4.41-7.09-2.87-2.14-6.13-3.37-9.6-2.74a.37.37,0,0,0-.57-.29c-11.52,7.58-14.55,20.75-18.87,33.24a.4.4,0,0,0-.15,0h0c-.19.56-.38,1.12-.52,1.69l.08,0c-2.32,6.45-5.12,12.63-9.75,17.67a63.19,63.19,0,0,0-8.36-3.23c-2.6-.8-4.77-2.29-7.1-3.31a15.25,15.25,0,0,0-3.53-1.13c-2.52-.71-4.88-3.56-7.12-5-2.6-1.68-5.12-2.82-7.53-4.88a12.24,12.24,0,0,0-3.72-2.23A166.67,166.67,0,0,1,90.48,327.9c-4.16-4-8.56-7.8-12.63-11.9-2.89-2.92-4.46-6.19-5.92-9.95-.94-2.42-2.7-4.22-3.3-6.75,4-3.32,10-4.95,14.73-7.38,4.86-2.52,9.74-5,14.56-7.62,7.64-4.12,15.15-8.92,20-16.35,5.35-8.31,5-19.38,4.59-28.83-.38-8.88.54-18.5-1-27.42q1.41,2.7,3,5.3c4,6.39,8.87,12.24,13.54,18.14,4.91,6.21,9.39,13.38,15.92,18,.5.36,1-.4.63-.82-19.92-21.26-41.16-45.58-40.41-76.46a.46.46,0,0,0-.91,0,71.07,71.07,0,0,0,1.38,16.65.62.62,0,0,0-.37.33c-3.93,7.83-17.75-1.42-20.57-6.15-3.62-6.06-3.44-11.88-3.83-18.62-.11-2.08-1.15-4.19-1.82-6.13-1.66-4.82.89-7.92,3.73-11.23A12,12,0,0,0,93.1,152a.41.41,0,0,0,.68-.18c.42-1.8-1.45-7.14,2-5.12.83.48,1.46-.11,1.92-.93a.43.43,0,0,0,.69.09,7.07,7.07,0,0,0,1.06-1.31,2.66,2.66,0,0,0,.28-.23,5.3,5.3,0,0,1,0,.89.34.34,0,0,0,.64.17c.11,0,.18,0,.22,0s0,.44-.2,1a.35.35,0,0,0,.53.3c1.16-.74.37.15.66.95a9.9,9.9,0,0,0,.57,1.32c-.44,4.2.68,8,5,10.41,2.62,1.47-1.49,3.09-.58,4.64,1.32,2.26,6.24-.65,7.13,3a.56.56,0,0,0,.53.41l2.65.79a.57.57,0,0,0,.89.27h0c.6.3,1.13-.59.53-.91l-.08,0a8.45,8.45,0,0,0,.69-3.36c0-1.81,1.37-2.21,1-3.89-.22-.88-1.62-1.71-2-2.73-.66-1.86-2-3.48-2-5.69a1.18,1.18,0,0,0-.85-.92c.13,0,1.4-4.58,1.44-4.63.34-.38,1.78-1.48,1.49-2.24a3.71,3.71,0,0,0-.43-1c-1.68-1.69-.66-4,.63-5.88a35.67,35.67,0,0,1,5.28-4.83c.52-.42,1.88-1.29,1.63-2.2-.42-1.51-.89-.21.87-1.76.76-.67,2.4-1.73,2-3s-2.83-1-1-2.87,4.12-2.7,5.55-5.16c1.24-2.11-1.17-2.72-3.13-2.9,4.31-2.93,13.33-6.78,12.18-11.88a.58.58,0,0,0-.56-.43h-.41c1.46-1.16,3.22-2.81,2.75-4.4-.77-2.58-3.44-2.75-5.81-3.37.45.12.74-2.53.65-2.83-.29-1.05-.93-1.31-1.77-1.7-.24-.12-4.12-.07-2.56-1.21s3.56-1.55,5.18-2.61a2.08,2.08,0,0,0,.89-2.85c-1.34-2.07-10.79.46-2.52-3,1.06-.44,4.57-1.69,4.09-3.44-.13-.46-.89-.68-1.23-.83l-.17-4.11a19.16,19.16,0,0,1,2.7-1c.84-.28,1.67-.52,2.49-.81a.45.45,0,0,0,.2-.75,5.34,5.34,0,0,0-2.09-1.14c-.87-.3-1.79-.5-2.67-.77-3.22-1,2.09-2.43,2.09-2.45,3.29-.62,6.68-.33,10-.9a.44.44,0,0,0,.19-.74c-.26-.24-2.66-1.9-2.16-2.1,2.69-1.1,6.21-.6,9-.36a.33.33,0,0,0,.38-.35l1.19-.09a.47.47,0,0,0,.21.26c4.89,2.87,11.42,8.3,11.6,14.45a.45.45,0,0,0,.89.12c.89-2.29.72-4.64.68-7.06a20.31,20.31,0,0,1,.95,1.86c.17.41.71.28.88,0l.9,1.27a.51.51,0,0,0,.92.12c.31-.73.09-.51.59-.11a.44.44,0,1,0,.53-.69l-.33-.26c.76-4.17-3-8.94-5.9-11.58a.43.43,0,0,0-.07-.37c-.69-1-2.66-2.54-.79-2.93a.51.51,0,0,0,.22-.84c-.27-.31-1.51-1.84-2.08-1.84a7.36,7.36,0,0,0,2.54-.29.49.49,0,0,0,.28-.21c1.92,1.37,3.8,2.67,6.24,3,.38.05.54-.42.41-.69-.5-1-4.3-5.19-1.2-3.12,2,1.37,3.77,2.78,6.18,3.43a.44.44,0,0,0,.42-.72l-.07-.07a17.69,17.69,0,0,0,3.58.67c1,3.85,1.7,9.38,4.68,10.49,3.63,1.35,2.14-4.18,1.8-5.84-.82-4,1.16.85,2.93.85,1.32,0,1.93-1.76,2-2.79a10.38,10.38,0,0,0-.33-3.51c-.22-.81-.42-1.62-.6-2.44-.75-3.2.49,1.13.61,1.48.87,2.4,2.26,4.59,3.18,7s1.55,5.14,2.53,7.64a.54.54,0,0,0,1,0c.25-.74,1.7-6.9,1.28-3.64,0,.38.5.46.68.18,2-3.06,1.72-6.29,1.47-9.67a13.11,13.11,0,0,0,1.8,4.3c2.31,3.9,6.76,6.8,10.38,9.4a40.58,40.58,0,0,0,15.56,6.81.57.57,0,0,0,.67-.54c1.35.34,2.64.79,4,1.27a.44.44,0,0,0,.55-.37,2.1,2.1,0,0,0,.61.39.46.46,0,0,0,.57-.32,4.78,4.78,0,0,0-.56-3.62c-1.27-2.67,1.29.92,2,1.58a.59.59,0,0,0,1-.41,24.11,24.11,0,0,0,0-2.55c0-.76,2.79,1.22,3,1.37a.57.57,0,0,0,.79-.2c-.63,1.25,6.46,4.61,2.67,4.14-.34,0-.54.29-.57.57a3.63,3.63,0,0,0,.72,3c1.87,2.38,6.91,5,1.35,5.55a.63.63,0,0,0-.6.79,3.64,3.64,0,0,0,1.28,2.13c1.83,2,2.56,2.72,3.25,5.33a4.11,4.11,0,0,0,1.39,1.91c3.15,2.94,1.22,3-.3,4.49a.69.69,0,0,0,.3,1.13c2,.59,1.38,2.3,0,3.08a.7.7,0,0,0,.16,1.27,33.33,33.33,0,0,1,4.4,2.71.65.65,0,0,0,.62,1.07C266.68,108.5,267.31,107.82,266.57,108.74Zm-3.83,27.37c.21.6,1.2.29,1.09-.41a17.52,17.52,0,0,0-2.57-7.51c-1.79-2.59-4.21-4.62-5.8-7.38a.53.53,0,0,0-.31-.69c-3-1.14-6.59.14-9.55,1A50.15,50.15,0,0,1,226,122.35c-.37,0-.52.27-.46.56a.51.51,0,0,0-.15.45,11.55,11.55,0,0,0,1,3.07c.24.55.49,1.09.71,1.65.13.36.35.66.5,1a.51.51,0,0,0,.36.7,35,35,0,0,0,15.11.38c4.7-.84,8.26-1.94,12.85.26C258.68,131.71,260.45,134.26,262.74,136.11Zm-14.43,9.66c.41,1,1.83.13,1.41-.83-1.73-4-6.57-4.75-10.46-4.92a16.78,16.78,0,0,0-13.65,5.8c-.5.55.31,1.37.81.82a16,16,0,0,1,4.24-3.33c-.41,2.29-.6,4,1.25,5.9s4.55,3,7.07,1.9c3.07-1.38,5.77-6.22,3.9-9.27C245.21,142.4,247.36,143.57,248.31,145.77Zm-6.11,69.08c.48,1.61-.25,3.27-.66,4.82-.06.21.23.41.39.23,2.65-3.21,1-6.5-1-9.52-.32-.49-1.1,0-.79.45A15.83,15.83,0,0,1,242.2,214.85Zm-11,2.81c.73-.13.42-1.25-.31-1.11-9.72,1.82-18.82,1.51-28.59.41-9.14-1-18.26-1.77-27-4.77-.42-.14-.64.35-.44.65a.46.46,0,0,0,.1.49c7.28,7.84,16.84,13.89,27.46,15.74,6.14,1.07,19.16,1.69,22.19-5.56a.45.45,0,0,0,0-.32l1.06-.15a.37.37,0,0,0,.27-.17.46.46,0,0,0,.23-.17,13.73,13.73,0,0,0,1.11-2.24q.57-1.2,1.23-2.37C229.37,218,230.27,217.83,231.17,217.66Zm-.38-25.81c1.53-3.1.22-6.24-2.58-8-.43-.26-.82.41-.39.68a5.08,5.08,0,0,1,1.9,7.23c-1.32,2.42-3.41,2.82-5.67,3.55A8.91,8.91,0,0,0,225,192c0-.45-.65-.44-.68,0-.41,5.6-10.28,14.24-15.3,8.39-.58-.68-1.54.3-1,1,4.49,5.31,12.21.55,15.45-4.93C226.41,197.32,229.62,194.22,230.79,191.85Zm-4.32,40.63c.2-.49-.63-.83-.86-.36-.68,1.37-3.09,1.68-4.23,2.68-3.78,3.3-7.59,2.85-12.11,2.34-7.08-.8-13,.25-18.52-5-.31-.29-.77.17-.47.47,5.93,5.71,12.95,4.77,20.69,5.68,3.61.43,6.86.4,9.91-1.74C222.89,235.12,225.53,234.78,226.47,232.48Zm-5.15-52c1.37-8.48-.26-18.9-3.11-26.92-.14-.4-.77-.23-.64.17,2.91,8.72,1.78,17.83,3.14,26.75A.32.32,0,0,0,221.32,180.44Zm-15,16.52c.52.67,1.54-.3,1-1-2.56-2.85-5.94-3.15-9.54-2.51-.32.06-.18.53.13.48C201.15,193.48,204.16,194.23,206.29,197Zm-10.61.54a.8.8,0,0,0,.61-1.46c-1.88-.89-3.85-1.42-5.09-3.23-1.91-2.78-.14-6.82,1.72-9,.31-.38-.22-.93-.56-.56a10.46,10.46,0,0,0-2.83,8.82C190,195,193.14,196.57,195.68,197.5Zm.31-74c.16-.4-.22-.64-.55-.58a.38.38,0,0,0-.43-.38,141.39,141.39,0,0,1-17.1,0c-2.85-.11-5.61-.66-8.44-.92-2.23-.2-4.56-1.56-6.7-1.63-3-.1-4.58,2-6.39,4.15-3.42,4.05-8.06,8.37-13,10.38a.36.36,0,0,0-.2.22.6.6,0,0,0,.27.9c7.68,2.73,11.82-5.83,19.4-5.47a.67.67,0,0,0,.26-.05c5.39.18,10.71-1.06,16.09-.23,4.61.71,8.56,1.67,13.27,1.14a.59.59,0,0,0,.52-.7C194.74,128.53,195.09,125.7,196,123.49Zm-10.84,21.89a.47.47,0,0,0,.48-.8c-8.15-4.85-18.23-7.19-25.9.11-.71.68.35,1.72,1.07,1.08a17.26,17.26,0,0,1,4.51-2.92c-1.49,4.28,2.22,8.17,6.72,8.24,4,.06,7.92-4.74,6.5-8.58A33.57,33.57,0,0,1,185.15,145.38Zm-21.06,60.19c.46-.21.06-.87-.4-.68-2.64,1.14-9.24,4.52-6.8,8.36a.29.29,0,0,0,.53-.22C156.8,209.06,161,206.93,164.09,205.57ZM109.3,180.48a.59.59,0,1,0,1.16-.16,5.87,5.87,0,0,0-3.9-4.63,2.91,2.91,0,0,0-3.56,1.64,36.91,36.91,0,0,0-3.77-3.94c-.48-.37-1.15.29-.68.68a41.44,41.44,0,0,1,3.93,4.23l.09.06c-.07.21-.12.43-.17.65-.09.47.63.67.73.19.38-1.82,1.53-3.41,3.55-2.56A4.58,4.58,0,0,1,109.3,180.48Zm1-12.61c.62-.26.37-1.27-.28-1a5,5,0,0,0-3,3.53,2.69,2.69,0,0,0,2.39,3.42.62.62,0,0,0,.31-1.14c-1-.5-1.67-.89-1.46-2.16A3.6,3.6,0,0,1,110.28,167.87Zm-8.88-14.39v-.18a.76.76,0,0,0-.38-.66c-2.81-1.52-4.46,2.22-5.37,4.22A30.29,30.29,0,0,0,93,165.35c-.06.53.75.51.82,0a28.42,28.42,0,0,1,2.29-7.17,12.16,12.16,0,0,1,2.36-3.7c1-1.07,1.51-.18,2.57-.51A.52.52,0,0,0,101.4,153.48Z"/><path d="M263.83,135.7c.11.7-.88,1-1.09.41-2.29-1.85-4.06-4.4-6.79-5.7-4.59-2.2-8.15-1.1-12.85-.26a35,35,0,0,1-15.11-.38.51.51,0,0,1-.36-.7c-.15-.33-.37-.63-.5-1-.22-.56-.47-1.1-.71-1.65a11.55,11.55,0,0,1-1-3.07.51.51,0,0,1,.15-.45c-.06-.29.09-.61.46-.56a50.15,50.15,0,0,0,19.59-1.26c3-.83,6.52-2.11,9.55-1a.53.53,0,0,1,.31.69c1.59,2.76,4,4.79,5.8,7.38A17.52,17.52,0,0,1,263.83,135.7Zm-1.46-1.47a14.87,14.87,0,0,0-3.15-6.76,39.05,39.05,0,0,1-4.61-6.25.56.56,0,0,1-.06-.2c-4.32-1.07-9.35,1.58-13.6,2.34a49.21,49.21,0,0,1-14.49,0,18.43,18.43,0,0,0,1.36,3.55,3.92,3.92,0,0,1,.48,1.34c0,.14,0,.26,0,.39h0c8.19,2,15.3-.93,23.36-.79C256.19,128,259.35,131.28,262.37,134.23Z"/><path d="M259.22,127.47a14.87,14.87,0,0,1,3.15,6.76c-3-3-6.18-6.26-10.72-6.33-8.06-.14-15.17,2.8-23.36.79h0c0-.13,0-.25,0-.39a3.92,3.92,0,0,0-.48-1.34,18.43,18.43,0,0,1-1.36-3.55,49.21,49.21,0,0,0,14.49,0c4.25-.76,9.28-3.41,13.6-2.34a.56.56,0,0,0,.06.2A39.05,39.05,0,0,0,259.22,127.47Z"/><path d="M249.72,144.94c.42,1-1,1.8-1.41.83-.95-2.2-3.1-3.37-5.43-3.93,1.87,3.05-.83,7.89-3.9,9.27-2.52,1.14-5.27-.06-7.07-1.9s-1.66-3.61-1.25-5.9a16,16,0,0,0-4.24,3.33c-.5.55-1.31-.27-.81-.82a16.78,16.78,0,0,1,13.65-5.8C243.15,140.19,248,141,249.72,144.94Zm-10.4,5.14c2.81-1.86,4.39-6,1.74-8.56a17.35,17.35,0,0,0-2.67-.09,18.33,18.33,0,0,0-6.9,1.47c-.25,2.12-.61,3.94,1.13,5.6S237.11,151.55,239.32,150.08Z"/><path d="M241.54,219.67c.41-1.55,1.14-3.21.66-4.82a15.83,15.83,0,0,0-2.08-4c-.31-.49.47-.94.79-.45,2,3,3.67,6.31,1,9.52C241.77,220.08,241.48,219.88,241.54,219.67Z"/><path d="M241.06,141.52c2.65,2.52,1.07,6.7-1.74,8.56-2.21,1.47-5,0-6.7-1.58s-1.38-3.48-1.13-5.6a18.33,18.33,0,0,1,6.9-1.47A17.35,17.35,0,0,1,241.06,141.52Z"/><path d="M230.86,216.55c.73-.14,1,1,.31,1.11-.9.17-1.8.3-2.69.43q-.66,1.17-1.23,2.37a13.73,13.73,0,0,1-1.11,2.24.46.46,0,0,1-.23.17.37.37,0,0,1-.27.17l-1.06.15a.45.45,0,0,1,0,.32c-3,7.25-16.05,6.63-22.19,5.56-10.62-1.85-20.18-7.9-27.46-15.74a.46.46,0,0,1-.1-.49c-.2-.3,0-.79.44-.65,8.76,3,17.88,3.73,27,4.77C212,218.06,221.14,218.37,230.86,216.55ZM226.4,220c.29-.58.61-1.14.92-1.7a100.57,100.57,0,0,1-25-.31c-8.75-1-17.41-1.77-25.81-4.48,5.74,5.74,13.73,11.39,21.57,13.36,6.72,1.69,20.77,3.81,25.32-3.49-9.86,1.15-19.61.11-29.41-1.46-.38-.06-.22-.63.15-.57,10.38,1.55,20.88,2.44,31.3.85h0A14,14,0,0,1,226.4,220Z"/><path d="M228.21,183.89c2.8,1.72,4.11,4.86,2.58,8-1.17,2.37-4.38,5.47-7.31,4.56-3.24,5.48-11,10.24-15.45,4.93-.57-.67.39-1.65,1-1,5,5.85,14.89-2.79,15.3-8.39,0-.44.71-.45.68,0a8.91,8.91,0,0,1-.93,3.37c2.26-.73,4.35-1.13,5.67-3.55a5.08,5.08,0,0,0-1.9-7.23C227.39,184.3,227.78,183.63,228.21,183.89Z"/><path class="cls-1" d="M227.32,218.27c-.31.56-.63,1.12-.92,1.7a14,14,0,0,0-1,2.2h0c-10.42,1.59-20.92.7-31.3-.85-.37-.06-.53.51-.15.57,9.8,1.57,19.55,2.61,29.41,1.46-4.55,7.3-18.6,5.18-25.32,3.49-7.84-2-15.83-7.62-21.57-13.36,8.4,2.71,17.06,3.44,25.81,4.48A100.57,100.57,0,0,0,227.32,218.27Z"/><path d="M225.61,232.12c.23-.47,1.06-.13.86.36-.94,2.3-3.58,2.64-5.59,4-3,2.14-6.3,2.17-9.91,1.74-7.74-.91-14.76,0-20.69-5.68-.3-.3.16-.76.47-.47,5.56,5.27,11.44,4.22,18.52,5,4.52.51,8.33,1,12.11-2.34C222.52,233.8,224.93,233.49,225.61,232.12Z"/><path d="M218.21,153.52c2.85,8,4.48,18.44,3.11,26.92a.32.32,0,0,1-.61,0c-1.36-8.92-.23-18-3.14-26.75C217.44,153.29,218.07,153.12,218.21,153.52Z"/><path d="M207.24,196c.59.66-.43,1.63-1,1-2.13-2.73-5.14-3.48-8.46-3-.31.05-.45-.42-.13-.48C201.3,192.85,204.68,193.15,207.24,196Z"/><path d="M196.29,196a.8.8,0,0,1-.61,1.46c-2.54-.93-5.67-2.5-6.15-5.48a10.46,10.46,0,0,1,2.83-8.82c.34-.37.87.18.56.56-1.86,2.23-3.63,6.27-1.72,9C192.44,194.62,194.41,195.15,196.29,196Z"/><path d="M195.44,122.91c.33-.06.71.18.55.58-.9,2.21-1.25,5-3,6.84a.59.59,0,0,1-.52.7c-4.71.53-8.66-.43-13.27-1.14-5.38-.83-10.7.41-16.09.23a.67.67,0,0,1-.26.05c-7.58-.36-11.72,8.2-19.4,5.47a.6.6,0,0,1-.27-.9.36.36,0,0,1,.2-.22c4.9-2,9.54-6.33,13-10.38,1.81-2.13,3.41-4.25,6.39-4.15,2.14.07,4.47,1.43,6.7,1.63,2.83.26,5.59.81,8.44.92a141.39,141.39,0,0,0,17.1,0A.38.38,0,0,1,195.44,122.91Zm-1.53,3.62c.33-1,.65-2.08,1.06-3.1a115.65,115.65,0,0,1-17.06,0c-4.12-.24-8.92-.34-12.77-1.84-5.37-2.09-9.64,4.45-13,7.72a27.84,27.84,0,0,1-7.59,5.5c4.76,1.23,6.88-2.09,10.86-4a14.29,14.29,0,0,1,7.51-1.71.62.62,0,0,1,.3.12c4.85.13,9.64-.85,14.51-.6s9.41,1.72,14.39,1.38A13.44,13.44,0,0,0,193.91,126.53Z"/><path d="M195,123.43c-.41,1-.73,2.06-1.06,3.1a13.44,13.44,0,0,1-1.82,3.41c-5,.34-9.48-1.12-14.39-1.38s-9.66.73-14.51.6a.62.62,0,0,0-.3-.12,14.29,14.29,0,0,0-7.51,1.71c-4,1.94-6.1,5.26-10.86,4a27.84,27.84,0,0,0,7.59-5.5c3.39-3.27,7.66-9.81,13-7.72,3.85,1.5,8.65,1.6,12.77,1.84A115.65,115.65,0,0,0,195,123.43Z"/><path d="M185.63,144.58a.47.47,0,0,1-.48.8,33.57,33.57,0,0,0-6.62-2.87c1.42,3.84-2.48,8.64-6.5,8.58-4.5-.07-8.21-4-6.72-8.24a17.26,17.26,0,0,0-4.51,2.92c-.72.64-1.78-.4-1.07-1.08C167.4,137.39,177.48,139.73,185.63,144.58ZM173,149.86c2.95-.85,6-4.51,4.15-7.59a.94.94,0,0,1-.06-.15,18.64,18.64,0,0,0-10.55.25C164.53,146.32,168.69,151.09,173,149.86Z"/><path d="M177.14,142.27c1.9,3.08-1.2,6.74-4.15,7.59-4.3,1.23-8.46-3.54-6.46-7.49a18.64,18.64,0,0,1,10.55-.25A.94.94,0,0,0,177.14,142.27Z"/><path d="M163.69,204.89c.46-.19.86.47.4.68-3.11,1.36-7.29,3.49-6.67,7.46a.29.29,0,0,1-.53.22C154.45,209.41,161,206,163.69,204.89Z"/><path d="M160.27,60.44a.33.33,0,0,1-.38.35c-2.81-.24-6.33-.74-9,.36-.5.2,1.9,1.86,2.16,2.1a.44.44,0,0,1-.19.74c-3.29.57-6.68.28-10,.9,0,0-5.31,1.44-2.09,2.45.88.27,1.8.47,2.67.77a5.34,5.34,0,0,1,2.09,1.14.45.45,0,0,1-.2.75c-.82.29-1.65.53-2.49.81a19.16,19.16,0,0,0-2.7,1l.17,4.11c.34.15,1.1.37,1.23.83.48,1.75-3,3-4.09,3.44-8.27,3.42,1.18.89,2.52,3a2.08,2.08,0,0,1-.89,2.85c-1.62,1.06-3.64,1.47-5.18,2.61s2.32,1.09,2.56,1.21c.84.39,1.48.65,1.77,1.7.09.3-.2,2.95-.65,2.83,2.37.62,5,.79,5.81,3.37.47,1.59-1.29,3.24-2.75,4.4h.41a.58.58,0,0,1,.56.43c1.15,5.1-7.87,9-12.18,11.88,2,.18,4.37.79,3.13,2.9-1.43,2.46-3.62,3.2-5.55,5.16s.61,1.46,1,2.87-1.28,2.35-2,3c-1.76,1.55-1.29.25-.87,1.76.25.91-1.11,1.78-1.63,2.2a35.67,35.67,0,0,0-5.28,4.83c-1.29,1.85-2.31,4.19-.63,5.88a3.71,3.71,0,0,1,.43,1c.29.76-1.15,1.86-1.49,2.24,0,0-1.31,4.63-1.44,4.63a1.18,1.18,0,0,1,.85.92c0,2.21,1.33,3.83,2,5.69.36,1,1.76,1.85,2,2.73.42,1.68-1,2.08-1,3.89a8.45,8.45,0,0,1-.69,3.36l.08,0c.6.32.07,1.21-.53.91h0a.57.57,0,0,1-.89-.27l-2.65-.79a.56.56,0,0,1-.53-.41c-.89-3.67-5.81-.76-7.13-3-.91-1.55,3.2-3.17.58-4.64-4.33-2.43-5.45-6.21-5-10.41a9.9,9.9,0,0,1-.57-1.32c-.29-.8.5-1.69-.66-.95a.35.35,0,0,1-.53-.3c.22-.53.29-.85.2-1H101c0,.28.17.35.7,0a.34.34,0,0,1,.51.29c0,.5.09,1,.16,1.47a27.72,27.72,0,0,1,.79-3.07c.15-.48.9-.28.75.2a29.57,29.57,0,0,0-1.06,4.52,3.82,3.82,0,0,0,.32.54c.2.29-.14.57-.42.48a9.24,9.24,0,0,0,.51,4c1.87,4.74,2.94,2.72,5.19,5.26,1,1.08,1.23,2.28.24,3.43-1.27,1.48.37.93,1.17,1.13a14.77,14.77,0,0,1,3.86,1.46c1.11.62,2.24,1.23,3.4,1.84.54-1.81,1.73-6.16,1.4-6.5-.92-1-1.32-2.24-2.29-3.16-2-1.92-1.32-3.61-2.45-5.69-.37-.67-.74-1.37.05-2,1.35-1.15.7-2.66,2-3.91,1.94-1.87-.74-2.41-.59-4.17.16-2,1.09-3.21,2.27-4.84l.06-.06a11.86,11.86,0,0,1,2.66-3.56c.4-.32,3.59-2.53,3.13-2.69a.67.67,0,0,1-.3-1.11c.85-.84,4.83-3.26,1.63-4.54a.7.7,0,0,1-.41-1,11,11,0,0,1,2.91-3c1-.68,2-1.4,2.9-2.16l-.57-2.75c-.66,0-1.32,0-2,0a.69.69,0,0,1-.49-1.17c2.06-2,4.64-3.33,7-4.9,1.26-.83,9.08-6.43,4.83-6.34a.61.61,0,0,1-.43-1c.78-.66,6.38-4.84,1.79-6.05-1.23-.32-2.47-.58-3.69-.93a.62.62,0,0,1-.36-.9c1.66-3.81-2.22-3.37-4.47-3.79a.59.59,0,0,1-.34-.86c1.17-2.25,3.45-2.74,5.59-3.8,2.42-1.19.27-2.52-1.35-2.64a7.64,7.64,0,0,1-2.22-.41.56.56,0,0,1-.33-.8,6.18,6.18,0,0,1,2.82-2.38c.42-.21,4.89-2.56,4.56-2.71a4.32,4.32,0,0,1-2.93-3.2c-.29-1.24,1.18-2.41,2.14-2.83a24.6,24.6,0,0,1,2.94-1.09c2.24-.66,1.67-.64-.3-1.15-1-.26-6.15-2.2-2.87-3.83a17,17,0,0,1,6.43-1.31c1.38-.1,2.75-.16,4.13-.25,2.78-.16.6-.72-.85-1.72a.49.49,0,0,1,.11-.88c3.48-1.35,7-1.14,10.63-.77A.43.43,0,0,1,160.27,60.44Z"/><path d="M110.46,180.32a.59.59,0,1,1-1.16.16,4.58,4.58,0,0,0-2.62-3.84c-2-.85-3.17.74-3.55,2.56-.1.48-.82.28-.73-.19,0-.22.1-.44.17-.65l-.09-.06a41.44,41.44,0,0,0-3.93-4.23c-.47-.39.2-1.05.68-.68a36.91,36.91,0,0,1,3.77,3.94,2.91,2.91,0,0,1,3.56-1.64A5.87,5.87,0,0,1,110.46,180.32Z"/><path d="M110,166.84c.65-.24.9.77.28,1a3.6,3.6,0,0,0-2.07,2.62c-.21,1.27.45,1.66,1.46,2.16a.62.62,0,0,1-.31,1.14,2.69,2.69,0,0,1-2.39-3.42A5,5,0,0,1,110,166.84Z"/><path d="M101.4,153.3v.18a.52.52,0,0,1-.38.49c-1.06.33-1.55-.56-2.57.51a12.16,12.16,0,0,0-2.36,3.7,28.42,28.42,0,0,0-2.29,7.17c-.07.51-.88.53-.82,0a30.29,30.29,0,0,1,2.67-8.49c.91-2,2.56-5.74,5.37-4.22A.76.76,0,0,1,101.4,153.3Z"/></svg>