<svg id="Art_copy" data-name="Art copy" xmlns="http://www.w3.org/2000/svg" viewBox="0 0 864 1008"><defs><style>.cls-1{font-size:9px;fill:#939598;font-family:TrebuchetMS, Trebuchet MS;}.cls-2{fill:#e6e6e6;}.cls-3{fill:#fff;}.cls-4{fill:#ccc;}.cls-5{fill:none;}</style></defs><title>Artboard 1</title><text class="cls-1" transform="translate(418.71 986.61) rotate(-0.42)">©</text><text class="cls-1" transform="translate(425.13 986.56) rotate(-0.6)"> </text><text class="cls-1" transform="translate(427.86 986.54) rotate(-0.74)">2</text><text class="cls-1" transform="translate(432.59 986.48) rotate(-0.93)">0</text><text class="cls-1" transform="translate(437.29 986.4) rotate(-1.12)">0</text><text class="cls-1" transform="translate(442.03 986.31) rotate(-1.3)">8</text><text class="cls-1" transform="matrix(1, -0.03, 0.03, 1, 446.73, 986.2)">:</text><text class="cls-1" transform="translate(450.04 986.11) rotate(-1.58)"> </text><text class="cls-1" transform="translate(452.74 986.04) rotate(-1.72)">S</text><text class="cls-1" transform="matrix(1, -0.03, 0.03, 1, 457.07, 985.91)">c</text><text class="cls-1" transform="translate(461.52 985.76) rotate(-2.09)">o</text><text class="cls-1" transform="translate(466.36 985.58) rotate(-2.26)">t</text><text class="cls-1" transform="matrix(1, -0.04, 0.04, 1, 469.92, 985.45)">t</text><text class="cls-1" transform="translate(473.48 985.29) rotate(-2.53)"> </text><text class="cls-1" transform="matrix(1, -0.05, 0.05, 1, 476.19, 985.18)">M</text><text class="cls-1" transform="translate(482.57 984.87) rotate(-2.95)">e</text><text class="cls-1" transform="translate(487.5 984.62) rotate(-3.15)">y</text><text class="cls-1" transform="translate(491.92 984.38) rotate(-3.34)">e</text><text class="cls-1" transform="matrix(1, -0.06, 0.06, 1, 496.83, 984.09)">r</text><text class="cls-1" transform="translate(500.3 983.87) rotate(-3.65)"> </text><text class="cls-1" transform="translate(503.01 983.7) rotate(-3.82)">b</text><text class="cls-1" transform="matrix(1, -0.07, 0.07, 1, 508.01, 983.37)">a</text><text class="cls-1" transform="translate(512.73 983.03) rotate(-4.21)">s</text><text class="cls-1" transform="matrix(1, -0.08, 0.08, 1, 516.37, 982.77)">i</text><text class="cls-1" transform="matrix(1, -0.08, 0.08, 1, 518.95, 982.57)">c</text><text class="cls-1" transform="translate(523.39 982.22) rotate(-4.65)">i</text><text class="cls-1" transform="matrix(1, -0.08, 0.08, 1, 525.93, 982.02)">n</text><text class="cls-1" transform="matrix(1, -0.09, 0.09, 1, 530.84, 981.6)">s</text><text class="cls-1" transform="matrix(1, -0.09, 0.09, 1, 534.48, 981.28)">t</text><text class="cls-1" transform="translate(538.03 980.96) rotate(-5.33)">r</text><text class="cls-1" transform="translate(541.5 980.64) rotate(-5.52)">u</text><text class="cls-1" transform="translate(546.39 980.17) rotate(-5.73)">c</text><text class="cls-1" transform="matrix(0.99, -0.1, 0.1, 0.99, 550.84, 979.72)">t</text><text class="cls-1" transform="matrix(0.99, -0.11, 0.11, 0.99, 554.39, 979.35)">i</text><text class="cls-1" transform="matrix(0.99, -0.11, 0.11, 0.99, 556.94, 979.08)">o</text><text class="cls-1" transform="matrix(0.99, -0.11, 0.11, 0.99, 561.75, 978.56)">n</text><text class="cls-1" transform="translate(566.63 978) rotate(-6.66)">s</text><text class="cls-1" transform="translate(570.25 977.58) rotate(-6.83)">.</text><text class="cls-1" transform="translate(573.52 977.19) rotate(-7.02)">n</text><text class="cls-1" transform="translate(578.41 976.59) rotate(-7.26)">e</text><text class="cls-1" transform="translate(583.29 975.97) rotate(-7.47)">t</text><path class="cls-2" d="M629,507a6.56,6.56,0,0,0,1.88,2.69c-5.88-.26-11.76-.3-17.58-.28A93.54,93.54,0,0,1,629,507Z"/><path d="M462.77,100.47c.57,0,1.81,1.53,2.08,1.84a.51.51,0,0,1-.22.84c-1.87.39.1,1.89.79,2.93a.44.44,0,0,1,.07.37c2.88,2.64,6.66,7.41,5.9,11.58l.33.26a.44.44,0,1,1-.53.69c-.5-.4-.28-.62-.59.11a.51.51,0,0,1-.92-.12l-.9-1.27c-.17.33-.71.46-.88,0a20.44,20.44,0,0,0-1-1.86c0,2.42.21,4.77-.68,7.06a.45.45,0,0,1-.89-.12c-.18-6.15-6.71-11.58-11.6-14.45a.47.47,0,0,1-.21-.26.45.45,0,0,1,.65-.5c4.6,2.68,10.29,7.36,11.73,12.91a22.47,22.47,0,0,0,.13-3.38l0,0c-.41-1.15-.84-2.27-1.32-3.36a7.77,7.77,0,0,1-1.72-3.29.5.5,0,0,1,.91-.39A20.11,20.11,0,0,1,465,112a.48.48,0,0,1,.78.08c.8,1.28,1.64,2.52,2.35,3.84a.41.41,0,0,1,.45,0,4.43,4.43,0,0,1,1.66,1.74.42.42,0,0,1,.39-.08,2.9,2.9,0,0,1,.42.17c-.14-4.16-3-8.22-5.94-11a.48.48,0,0,1-.52-.21c-.72-1.06-1.49-2.08-2.18-3.16a.51.51,0,0,1,.3-.73c1.51-.62-.64-1.58-1.4-2.32a.53.53,0,0,1,.37-.89,2.13,2.13,0,0,0,2.12-.77c-.41-.43.13-1.2.65-.84,1,.71,2,1.52,3.07,2.23a28.92,28.92,0,0,0,3.53,1.7c-1-1.44-2.4-2.54-2.7-4.33a.52.52,0,0,1,.49-.65c1.7,0,3.6,2.15,5,3.1a.41.41,0,0,1,.51-.21,6.88,6.88,0,0,1,1.82.74,4.32,4.32,0,0,1,1.06.23c1.49.47,3.73,1.34,3-1a.52.52,0,0,1,.94-.4c1.95,3.43,1.57,9.93,4.7,12.46,2,1.58.76-4.9.71-5.31a3.88,3.88,0,0,1,.23-2.63.48.48,0,0,1,.76-.1c.41.52,1.85,2.39,2.07,2.6,2.73,2.51,1.68-5.53,1.65-5.64-.36-1.52-.7-2.76-.1-4.22a.39.39,0,0,1,.74,0c1.36,4.34,3.8,8.18,5.12,12.52.35,1.16,1,6.94,1.81,3.22a15.84,15.84,0,0,1,1.45-4.39.49.49,0,0,1,.89.12,5.8,5.8,0,0,1,.15,2.35,26.86,26.86,0,0,0,.8-6.37,30.87,30.87,0,0,1,.13-5.37c0-1.46,0-2.43,0-.17a13.63,13.63,0,0,1,.65-2.67.11.11,0,0,1,.21,0c-.13,3.62-.18,7.18,2.14,10.23A41.8,41.8,0,0,0,514,114a43.86,43.86,0,0,0,14.23,7.13.29.29,0,0,1,.29-.13,21.61,21.61,0,0,1,5,1.08,9.56,9.56,0,0,1-1.66-1.85.4.4,0,0,1,.34-.58,3.51,3.51,0,0,1,3,1.46c1.87,2.49-.3-1.52-.57-2.11a5.43,5.43,0,0,1-.75-2.33.51.51,0,0,1,.74-.57,5.17,5.17,0,0,1,2.48,2.07c1.91,2.86.84.49.69-1.3a.57.57,0,0,1,.72-.54c.89.19,3.85,1.45,3.53,2.09a.57.57,0,0,1,.89-.12,74.22,74.22,0,0,1,5.67,5.67c.28.33.15,1-.4,1-3.88-.49,2.43,5.51,3.16,7.13a.59.59,0,0,1-.34.85c-1.32.54-4.28.29-1.61,2.29a7.6,7.6,0,0,1,1.74,1.7c1.57,2,.31,3.24,2.87,5.46s1.53,3.43-.16,5c1.21.37,2.52,1,2.52,2.33,0,1.11-.83,1.71-1.74,2.17a14.66,14.66,0,0,1,1.4.57c1.11.52.71,1.61,2.17,2.12a.71.71,0,0,1,.46.82,7.8,7.8,0,0,0,1.36-.08.4.4,0,0,1,.28.68,1.86,1.86,0,0,0-.13.16.66.66,0,0,1,0,.14,99.81,99.81,0,0,0-1.86,10.81,186.45,186.45,0,0,0-1.16,23.11c0,5.06.74,10.08.89,15.13,1.64-3.69,1-7,1.7-11.12.45-2.84,1.23-4.29,1.12-7.06-.09-2,.39-5.54,1.42-7.29.52-.9,2.37-.15.56-2.3-.75-.89-1.55-1.56-2.22-2.52a.64.64,0,0,1,0-.68c1.76-2.59-.68-4.61-.47-7.05a3.54,3.54,0,0,1,.23-1,2.18,2.18,0,0,1,1-1c1.85-1.08,2.77-2.64,2-4.81-.37-1.13-.14-3.72,1.22-4.33,2.75-1.22,2-6.88,2-9.51a.45.45,0,1,1,.9,0c0,3.1-.59,6.25,0,9.34a.6.6,0,0,1-.42.74c-4.63.84-.37,5.79-2.17,8.42-1.23,1.8-4.31-.18-2.65,4.31.55,1.5,0,5.26,1,6.38,1.09,1.32,1.61,1.94,1.69,3.64a.64.64,0,0,1-.33.57c-2.51,1.29-2.14,6.75-1.82,8.91.2,1.35-1.12,2.7-1.3,3.89-.61,4-.1,7.45-1.18,10.81a.37.37,0,0,1,.18.22,53.1,53.1,0,0,1,.79,27.69c-1,3.83-3.66,12.52-8.59,13.11-1.43,6.49-2.69,13-4.59,19.41-4,13.46-9.14,27.62-19.17,37.83-.19,5-2.38,9.5-3.25,14.43-1.06,6-1.06,12.34-1,18.39,0,1.39,0,2.78.07,4.17a.27.27,0,0,1,.19.11c3.86,4.87,7,10.79,11.82,14.76,4.44,3.64,9.52,6.42,14.34,9.55h0c4.68.6,9.3,1.56,13.44,3.93,3.83,2.2,8.09,3.3,11.37,6.19a5.21,5.21,0,0,1,.77-2c1.49-2.25,2.15-4.56,3.4-6.89,1.51-2.85,3.18-5.15,3.87-8.35,2.18-10.12,12.72-2,18.27-.79a.4.4,0,0,1,.32.27.49.49,0,0,1-.56.62c-2.64-.53-4.67-1.84-7.08-2.94-3-1.38-8.73-2.4-9.72,2.19-.21,1-.33,2-.62,2.92-.54,1.8-9.42,16.37-6.68,17.91h0a4,4,0,0,0,.62-.47,20.38,20.38,0,0,1,4.18-3.46c.52-.29,1,.5.47.79-2,1.16-3.17,3.43-5.17,4.49-.88.46-3,1.06-2.43,2.66a5.12,5.12,0,0,0,1.41,1.82c1.25,1.22,1.84,2.57.71,3.73.89.3,1.73.66,2.48,1,.57.26.08,1.07-.48.83-2.76-1.21-7.88-3-8.54,1.57-.48,3.28,3.53,3.37,5.21,5.42a.63.63,0,0,1,.09.73,12.16,12.16,0,0,0-.36,2c-.09.62-.93.38-1-.14a4.5,4.5,0,0,1,.15-2,6.88,6.88,0,0,0-1.82-1.24c-.27,3.18-.45,7.17,1.2,9.89.94,1.55,2.48,2.78,3.26,4.41,1.11,2.31,2.81,3.49,5.39,2.1a11.7,11.7,0,0,1,2-.92c-2.07-.66-3.63-2-3.54-4.56a.42.42,0,0,1,.84,0c0,3.78,4,4,7.53,4.29a.13.13,0,0,1,0-.06c.06-.43.82-.33.76.1v0A11.39,11.39,0,0,1,594,410c2.91,1.2,4.71,3.62,8.18,3.5a8.18,8.18,0,0,1,4.18.51c0-.35-.07-.69-.1-1-.3-3.23-1.45-5-4.22-6.8-4.44-2.86-9.62-6.63-14.78-7.81-.44-.1-.25-.78.19-.68,4.6,1,8.38,4,12.46,6.21,2.23,1.21,5.89,2.93,7,5.49,1.42,3.32.51,9.15,6.23,8,4-.79,8.17.49,12-.22a22.45,22.45,0,0,0-3.57-1.6c-.67-.25-.39-1.34.3-1.08,1.75.65,4.28,1.14,5.59,2.63,2.89,3.3,6.31,1.82,8.57-1.09,1.82-2.33,2.89-4.8,4.36-7.3a20,20,0,0,1,1.45-2,.44.44,0,0,1,.47-.62c1.27-1.72,2.21-3.55.46-5.65-.5-.61.31-1.46.89-.88a4.72,4.72,0,0,1,.4,6.33l-.25.38a12.58,12.58,0,0,0,2.65-.16.55.55,0,0,1,.36-.06c2.61-.53,5-2,4.92-4.76-.21.23-.42.45-.65.67s-1.38,1.25-1.8.53,1.09-1.09,1.42-1.34c.78-.58,1.38-1.38,2.15-2,.34-.25.77.32.45.58a10.57,10.57,0,0,0-1.18,1.13.29.29,0,0,1,.22.28,4.83,4.83,0,0,1-2,4.3.58.58,0,0,1,.16.23c.88,2.48,3.07.89,4.27-.37a6.56,6.56,0,0,0,2-4.26A37.27,37.27,0,0,1,657,396c-1,.58-2.14,1-2.79,1.39a.43.43,0,0,1-.51-.67,26.46,26.46,0,0,1,3.51-2.53c1.13-.82,1-2.52,1.36-3.7.72-2.63,2.39-4.24,3.56-6.6,2.94-5.94-8.44-9.76-10.51-14.14-.25-.52.51-1,.76-.45,1,2.14,3.54,3.77,5.93,5.47-.6-2.71-2.27-5-2.73-7.78-.64-3.88-1.87-7-5.68-8.81a18.78,18.78,0,0,1-5.71-3.85c-3-3-6.66-4.22-10.64-5.24a.39.39,0,0,1-.27-.54.42.42,0,0,1,.5-.27c3,.75,6.32,1.56,8.8,3.47,1.85,1.44,3.23,3.42,5.37,4.48a43,43,0,0,1,4.78,2.56,8.86,8.86,0,0,1,3.39,5.42c.82,3.74,2.86,7.1,3.45,10.82a.61.61,0,0,1-.18.53c2.67,2,4.9,4.23,4.31,7.61-.41,2.3-3,3.91-3.61,6.21-.4,1.54-.64,3.11-1.08,4.64a2.49,2.49,0,0,1-.78,1.12c-.76,2.16-.06,4.5-.43,6.79a7.57,7.57,0,0,1-2.59,4.58c-1.91,1.69-5,3-5.69-.47a9.29,9.29,0,0,1-2.38.94,84.6,84.6,0,0,1-.91,10.81c5.71,5.52,12.15,12.94,14.25,20.73,1.26,4.7,1.54,9.55,2.6,14.28a101.48,101.48,0,0,0,4.39,13.55c7.28,19.23,13.39,39.14,18.84,59,5.74,20.89,12,41.58,17.41,62.57,2.45,9.54,4.63,19.1,7,28.66.65,2.66,2.71,5.94-.46,6.4,4.58,6.13,9.61,12.59,12,20,2.44,7.62,1.9,15.62,1.22,23.48-.74,8.46-3.4,16.3-6.14,24.29a48.15,48.15,0,0,1-4.72,10.66q-.54.84-1.14,1.65a35.43,35.43,0,0,0,.32,9.73,9.38,9.38,0,0,1,0,3.38c-.78,2.8-2.25,4.19-4.5,5.91-4.1,3.15-6.27,8.13-9.35,12.17a22.47,22.47,0,0,1-7.75,6.12c-7.23,3.78-12,6.37-20,3.06-5.27-2.19-11-5.14-13.7-10.42-3-1.29-5.64-3.67-8.42-5.33a52.8,52.8,0,0,1-11.59-9.11c-6.14-6.46-13-12-17.45-19.78a146.77,146.77,0,0,1,.06,18.87,29.21,29.21,0,0,1-2.74,10.3,18.51,18.51,0,0,0-1.55,9.87,19.61,19.61,0,0,1,.06,2.49,11.79,11.79,0,0,1,.63,4.3c-.2,2-1.7,4-2.67,5.63-1.83,3.14-4.53,6.54-4.35,10.37.09,2.07.17,3-.82,4.68a.45.45,0,0,1-.22.19,87.4,87.4,0,0,1-1.55,16c-1.29,8.14-2.74,16.27-3.89,24.43-.26,1.9-.44,3.86-.61,5.84.37,5.22,4.15,10.14,5.64,15.11,1.08,3.6,1.81,7.68,3.53,11,1.16,2.27,2.62,4.35,3.82,6.59,2.68,5,3.49,10.61,5,16.07,1.66,6.18,5,11.49,7.29,17.44s4.68,12.06,5.76,18.38c1,6.07,1.45,12.2,2.08,18.32.69,6.58,2.15,13,2.65,19.63a22.59,22.59,0,0,1-.53,7.73c-.57,2.18-2.39,3.63-2.46,6a.57.57,0,0,1-.63.58c-6,6.47-15.51,8.64-23.94,9.92a828.35,828.35,0,0,1-85.93,8.75c-32.61,1.48-65.16,4.92-97.82,4.78-16.41-.07-32.81-.27-49.22-.3-14.81,0-29.32-2.76-44.07-3.83-7.21-.53-13.3-3.47-20.07-5.69-7.7-2.53-14.31-4.45-22.51-4.22-6.36.18-12.22-.51-18-3.28a33.16,33.16,0,0,0-9.45-3.38,20.64,20.64,0,0,1-7.35-2.27.41.41,0,0,1-.19-.55.46.46,0,0,1,.66-.26c3.74,2.07,7.73,1.46,11.54,3,2.65,1.07,5.14,2.51,7.83,3.48,8.05,2.9,15.87,1.24,24.13,2.17,6.21.71,12.81,3.52,18.62,5.73,4.25,1.61,8.53,3.34,13.11,3.67,3.4.25,6.8.36,10.2.63,7,.55,13.81,2,20.77,2.77,15.86,1.73,32.32.69,48.27.81,16.36.12,32.7.25,49-.76s32.55-2.62,48.86-3.41,32.47-1.46,48.68-3c14.57-1.43,29-3.52,43.58-5.1,10.89-1.18,24.83-2.31,32.6-11l.08-.06c.07-1.7.78-2.66,1.56-4.45,1.42-3.22,1.19-6.72.84-10.13-.67-6.6-2.1-13.07-2.7-19.68-1.28-14-3.6-27.9-10.18-40.54A67.65,67.65,0,0,1,616.64,856c-1.54-6.53-4.45-11.52-7.44-17.4-2.7-5.32-3.21-11.59-5.66-17a41.85,41.85,0,0,1-2.48-6.42A52.87,52.87,0,0,1,599,826.88a.49.49,0,0,1-1-.13c-.15-6.92,1.49-14.44,2.49-21.32,1.09-7.53,2.37-15,3.58-22.55s2.59-15.15,1.55-22.88c-.93-7-.13-13.79.4-20.75,0-.59,1-.59.92,0a121.56,121.56,0,0,0,0,20.28,8.11,8.11,0,0,1,.44-2.19,31.33,31.33,0,0,1,2.74-5.45c1.34-2.17,3.66-5,4.08-7.53a6.15,6.15,0,0,0,.07-1.35c-.22.21-.68.11-.65-.26.34-4.3-1.13-8.72.46-12.87,1.85-4.86,3.54-8.89,3.76-14.21.47-11.1-.78-22.14-.81-33.23a134.81,134.81,0,0,1,3.68-30.93c1.24-5.44,3.22-10.78,4.25-16.25.24-1.29.42-2.58.56-3.87-.11-2.72.22-5.57.18-8.27-.06-3.66-.2-7.38,0-11,.32-6.14-1-11.85-1.2-17.9-1.11-.76-2.14-1.54-3-2.3a23.68,23.68,0,0,1-8.26-12.7A22.71,22.71,0,0,1,603.07,575c-5.61-4.38-5.89-13-4.18-19.48a.42.42,0,0,1,.32-.32c-2.53-2.89-5.16-6.23-4.67-10.26.34-2.79,1-6.88,3.58-8.62-3.7-1.22-7.6-3.89-8.91-7.53a14.58,14.58,0,0,1,1.18-11.18.36.36,0,0,1-.09-.52,14.35,14.35,0,0,1,6-5.09c-.46,0-.91,0-1.36-.09a9.21,9.21,0,0,1-8.06-6.46.67.67,0,0,1-.46-.31c-1.2-1.87-2.62-2.07-3.67-3.66s-1.94-3.58-3-5.33a61.53,61.53,0,0,1-5.31-9.81c-2.3-6-3.71-10.9,1.81-15.46,3.51-2.91,9-2.63,12.46.08a49.13,49.13,0,0,1,8.23,8c1.44,1.8,3.28,3.24,4.63,5.08.18-3.13-.64-5.38-1.31-8.42-.87-4-1.22-7.73-2.86-11.55-1.13-2.61-1.22-5.21-1.33-8A216.31,216.31,0,0,0,592.69,427c-.64-3.55-2.29-6.67-3-10.16a19.79,19.79,0,0,1,.11-6.47l-2.29-.27-.34-.05a.7.7,0,0,1-.67.69c-2.63.11-7.45,4.67-9.29.13-1.06-2.6-3.53-4.45-4.38-7.11a24.66,24.66,0,0,1-.57-10.19,6.25,6.25,0,0,1-1.72-1.26c-1.12-1.23-.83-3.48,0-4.81,1.32-2.24,3.59-2.41,5.83-1.89,1.72-2.23-3.5-4-1.84-6.86a4.61,4.61,0,0,1,2.23-1.73,3,3,0,0,1-.93-1.81c-3.28-3.34-7.82-4.75-11.87-7a33.77,33.77,0,0,0-11.39-3.81c.64.44,1.28.88,1.91,1.33s0,1.29-.52.91c-1.55,3.53-.59,7-1.12,10.72a64.67,64.67,0,0,1-1.73,8.83,34.09,34.09,0,0,1-7.18,13.49,58.92,58.92,0,0,1-19,14.18,1.24,1.24,0,0,0-.07-.28,95.64,95.64,0,0,1-17.74,5.53c-1.29.27-2.58.51-3.87.73a89,89,0,0,1-12.76,2.07,104.29,104.29,0,0,1-42.72-5.76.5.5,0,0,1-.31-.65.42.42,0,0,1,.56-.28c13.09,4.5,27.27,6.8,41.12,5.67,2.34-.69,5.06-.55,7.4-1s4.8-.87,7.19-1.36c3.11-.7,6.21-1.49,9.29-2.31,3.85-1,7.83-2,11.34-3.93a30.29,30.29,0,0,1,5.93-2.77,46.44,46.44,0,0,0,14.52-13.06,39.36,39.36,0,0,0,6.36-16.63c.74-4.56-.15-9.53,2-13.74-5.66-3.77-12.26-6.93-17.22-11.54-4.51-4.19-7.59-9.42-11.22-14.32.14,4.09.38,8.19.66,12.27a96.07,96.07,0,0,0,1.16,10.44c.23,1.24.76,2.7.51,4a.32.32,0,0,1-.62,0A143.23,143.23,0,0,1,523.48,333c.18-5-.06-10.31.87-15.25,1-5.13,3.3-9.9,3.74-15.1-.39.39-.78.78-1.19,1.15a19.22,19.22,0,0,1-2.08,2.74,29.73,29.73,0,0,1-4.51,9,34.4,34.4,0,0,1-6.43,6.44c-1.15,5.2-2.92,10.33-6.79,14.16a67.35,67.35,0,0,1-12.29,9.27.27.27,0,0,1-.33-.43c3.47-3.07,7.59-5.34,10.91-8.59,4-3.89,6-8.41,7.37-13.6A27,27,0,0,1,499,327.37c-8.59.55-19.74-.15-27-5.44-6.67-4.87-13.68-10.65-18.64-17.28-.23-.3.27-.59.5-.3A57.58,57.58,0,0,0,464,314.08c3.94,3.18,7.71,7.35,12.61,9,8.41,2.89,18.2,4.12,27,2.19a25,25,0,0,0,9.6-4.53s0,0,0-.06a.39.39,0,0,1,.46-.31,29.55,29.55,0,0,0,9.69-13.49c1.41-4.17,2.31-8.48,3.91-12.58,1-2.56,3.17-4.72,5-6.74.09-.11.24.05.15.15-3.46,4.28-4.85,9.5-6.34,14.7a15.82,15.82,0,0,1,2-1.85h0c10.31-10.81,15.41-25.66,19.36-39.79,2.2-7.88,3.22-16,5.51-23.89a48.2,48.2,0,0,0,2-12.73c.06-3.54-.77-6.86-.92-10.34,0-.52.79-.52.82,0a36.8,36.8,0,0,0,.66,4.79c.76-5.31,1.65-10.32,1.25-15.82s-.91-10.84-.48-16.3c.77-9.81.8-19.71,3-29.35a.45.45,0,0,1-.62-.64c.74-.92.11-.24-1.18-.06a.65.65,0,0,1-.62-1.07,33.4,33.4,0,0,0-4.4-2.71.7.7,0,0,1-.16-1.27c1.38-.78,2-2.49,0-3.08a.69.69,0,0,1-.3-1.13c1.52-1.45,3.45-1.55.3-4.49a4.12,4.12,0,0,1-1.39-1.91c-.69-2.61-1.42-3.35-3.25-5.33a3.64,3.64,0,0,1-1.28-2.13.63.63,0,0,1,.6-.79c5.56-.54.52-3.17-1.35-5.55a3.63,3.63,0,0,1-.72-3c0-.28.23-.62.57-.57,3.79.47-3.3-2.89-2.67-4.14a.57.57,0,0,1-.79.2c-.22-.15-3-2.13-3-1.37a24.16,24.16,0,0,1,0,2.55.59.59,0,0,1-1,.41c-.75-.66-3.31-4.25-2-1.58a4.78,4.78,0,0,1,.56,3.62.46.46,0,0,1-.57.32,2.1,2.1,0,0,1-.61-.39.44.44,0,0,1-.55.37c-1.38-.48-2.67-.93-4-1.27a.57.57,0,0,1-.67.54,40.57,40.57,0,0,1-15.56-6.81c-3.62-2.6-8.07-5.5-10.38-9.4a13.12,13.12,0,0,1-1.8-4.3c.25,3.38.5,6.61-1.47,9.67-.18.28-.73.2-.68-.18.42-3.26-1,2.9-1.28,3.64a.54.54,0,0,1-1,0c-1-2.5-1.56-5.13-2.53-7.64s-2.31-4.57-3.18-7c-.12-.35-1.36-4.68-.61-1.48.18.82.38,1.63.6,2.44a10.37,10.37,0,0,1,.33,3.51c-.1,1-.71,2.79-2,2.79-1.77,0-3.75-4.86-2.93-.85.34,1.66,1.83,7.19-1.8,5.84-3-1.11-3.71-6.64-4.68-10.49a17.67,17.67,0,0,1-3.58-.67.47.47,0,0,1,.07.07.44.44,0,0,1-.42.72c-2.41-.65-4.13-2.06-6.18-3.43-3.1-2.07.7,2.12,1.2,3.12.13.27,0,.74-.41.69-2.44-.32-4.32-1.62-6.24-3a.5.5,0,0,1-.28.21A7.37,7.37,0,0,1,462.77,100.47ZM722.21,666.38c.75-8.59,1.79-18.26-2.46-26.15a151.06,151.06,0,0,0-10.37-16.85c-.73-.12-1-.79-1.69-1.12a8.79,8.79,0,0,0-2.9-.91c-1.13-.16-2.26-.22-3.4-.29,3.22,3.71,6.09,7.81,7.55,12.53a.29.29,0,0,1-.52.22c-1.78-2.79-3.21-5.79-5.19-8.45s-4.32-4.9-6.27-7.53a55.19,55.19,0,0,1-8.29-17.07c-2.16-7.58-4.43-14.51-8.46-21.37-3-5.16-6.18-10.26-8.76-15.68a19.94,19.94,0,0,1-1.24,7.3c-2.25,6.1-6.3,12.32-11.55,16.26-.25.19-.6-.18-.43-.43,4.74-7,11.86-13.09,11.8-22.31,0-3.55-1.18-6.66-.87-10.24a32.93,32.93,0,0,1,.57-3.66c-.43-4.56.16-10.13,2.17-14.27,3.36-6.94,1.74-13.55-4.14-18.45-.41-.34-.11-.85.31-.94-.38-6,3.77-13.13-.14-18.37a25.89,25.89,0,0,0-12.81-8.81,15.61,15.61,0,0,1,2.94,2.81c.44.56-.28,1.34-.79.8-3.8-4-10.37-9-15.75-10.38-7.42-1.86-14.81-.19-22.11,1.42C607.8,487,597,489.8,588.74,498.81a.27.27,0,0,1,0,.15,7,7,0,0,0-1.42,5.08l.29.46a.57.57,0,0,1,0,.67c1.28,3.63,5.93,6.09,10.2,5.86.51,0,1-.09,1.5-.13a37,37,0,0,1,8.42-1.32l2.23-.51c7.38-1.79,14.24-3.86,21.91-3a.46.46,0,0,1,0,.92c-.62,0-1.24,0-1.85.06a6.82,6.82,0,0,0,2,2.48.41.41,0,0,1,.16.29A144.49,144.49,0,0,1,651.81,512c.68.13.39,1.17-.29,1-11.58-2.2-23.66-2.41-35.43-2.51-2.32,0-4.92-.07-7.56,0a55,55,0,0,1-9.85,1.53,14.41,14.41,0,0,0-7.45,5.23,23.43,23.43,0,0,0-.9,4.25c-.52,2.58-1,5.36.54,7.71a16,16,0,0,0,9,6.27c5.12-1.94,10.49-1.79,15.9-1.09,8.25,1.07,16.42,2.65,24.71,3.33.52,0,.52.85,0,.81-10.42-.79-21.4-4.38-31.82-3.66-5.44.38-11.19,1.11-12.42,7.25-1.17,5.81,1.35,9.2,5.07,13.34a.7.7,0,0,1,.18.47c6,2.25,12.48,2.46,18.85,3l20.47,1.75c.59,0,.6,1,0,.92q-11.16-.88-22.32-1.8c-6.2-.5-12.33-.77-18.15-3.15a.57.57,0,0,1-.35-.55l-.25-.28c-.8,3.5-.75,10.07.48,13.49,1.46,4.07,6.73,7.52,10.87,8.48s8.25.21,12.17,1.65a24.36,24.36,0,0,1,7.84,4.58c.62.54-.29,1.45-.91.9-4.82-4.22-10.59-4.6-16.25-5.63a23,23,0,0,0,10.1,13c3.63,2.35,7.92,3.65,11.43,6.07a.31.31,0,0,1-.24.57,28.2,28.2,0,0,1-10-4.3c.31,3.16,1.32,6.19,1.54,9.33s-.12,6.43-.13,9.67c0,2.37,0,4.72-.13,7.08a71.18,71.18,0,0,1-.57,13.07c-.93,5.44-2.75,10.69-3.92,16.09a144.42,144.42,0,0,0-3.73,34.35c.1,4.09.35,8.19.57,12.29,4.61,8.4,12.14,14,18.53,21,6.14,6.7,14.67,11.09,22.4,15.71.23.15.15.59-.15.56a12.56,12.56,0,0,1-1.25-.22c3.31,5,9.88,8.14,15.42,9.6,6.75,1.78,17.45-3.36,22-8.71,3.37-4,5.44-9.63,9.61-12.83,2.41-1.85,5.29-3.35,5-7.24-.1-1.54-.43-3-.52-4.56a24.71,24.71,0,0,1,.29-5.31,45.32,45.32,0,0,0-3.67,5.4c-.28.51-1.18.15-1-.4,1.19-2.93,3.29-5,5-7.64l.17-.29,0,0A52.67,52.67,0,0,0,716,690.33C718.77,682.45,721.47,674.74,722.21,666.38ZM709.5,621.5c1.51,0-.55-6-.71-6.8-.79-4-1.5-8.13-2.53-12.12-2.35-9-4.72-18.08-7-27.14-4.7-18.55-10.37-37-15.7-55.35-5.22-18-10.73-35.91-17.26-53.44-1.64-4.4-3.51-8.91-4.38-13.55-.7-3.69-1-7.47-1.83-11.14-2-8.74-7.78-16.6-14-22.94-1.25,8.39-3.18,16.67-3.54,25.18-.27,6.38-1.15,12.75-1.57,19.13-.4,6.08-.11,12.18-.65,18.24a20.54,20.54,0,0,1,3,.87,24.42,24.42,0,0,1,6.92,3.78c1,.84,2.12,1.58,3.2,2.33a.52.52,0,0,1,.58-.24c5.19,1.3,11,4.34,14.25,8.71,4.74,6.36.8,13.44.92,20.56A16.26,16.26,0,0,1,675,531.07c-.18,3.18-2.33,5.79-3,8.82a42.62,42.62,0,0,0-.86,6.22.47.47,0,0,1,.3.51c-.79,5.37-1.42,9.71-.22,15.06l0,.19a.39.39,0,0,1,.51.22c3,6.34,6.93,12.11,10.34,18.22a83,83,0,0,1,7.23,18.37c2.11,7.38,5.49,15.15,10.71,20.86l.5.55c2.15.08,6.82.15,8.63,1.49A.89.89,0,0,1,709.5,621.5ZM646.16,407.14a10.27,10.27,0,0,1-3,0c-1.86,3-3.37,6.14-5.69,8.77s-3.88,4.54-7.49,4.33a3.4,3.4,0,0,1-2.4-1.09,12.66,12.66,0,0,0-1.31-1.2.47.47,0,0,1-.14.08c-2.41.75-4.25.39-6.68,0-2.84-.41-4.59.51-7.17.86-2.27.3-3.78-.06-5.09-2a5.07,5.07,0,0,1-.66-1.73.52.52,0,0,1-.33-.07c-2.17-1.27-4.6,0-6.82-.86a17.65,17.65,0,0,1-3.52-1.86,12.69,12.69,0,0,0-5.25-2c-.43,6.92,2.71,13,3.64,19.85,1,7.53,2.42,14.92,2.81,22.52.38,7.28,2.45,13.92,4,21,.54,2.44,2,5,1.87,7.52-.07,1.67-.9,5.18.3,6.58,0,0,0,.07,0,.1,6-2.48,12.55-3.91,19.24-5.31,5.28-1.12,11.1-2.21,16.56-1.37.57-6.57.28-13.18.76-19.76.42-5.79,1.24-11.59,1.44-17.39C641.71,431.7,645.74,419.69,646.16,407.14Zm-15.3,102.6A6.56,6.56,0,0,1,629,507a93.54,93.54,0,0,0-15.7,2.41C619.1,509.44,625,509.48,630.86,509.74Zm-28.64-21.25a4.37,4.37,0,0,1-.73-3c-1.35-2.22-3.57-3.81-5.25-5.77a57.3,57.3,0,0,0-5.27-5.31c-2.76-2.51-6.17-5.28-10.29-4.1s-8.4,4.78-7,9.88a54.73,54.73,0,0,0,6.37,13.91c1.76,2.89,2.85,6.06,5.64,8.21a6.57,6.57,0,0,1,1,.86,7.88,7.88,0,0,1,1.19-3.74.32.32,0,0,1,0-.45A38.66,38.66,0,0,1,602.22,488.49ZM561,226.5c.5-7.38.82-14.59-1.22-21.76a11.8,11.8,0,0,1-1.73,2.83s0,0,0,0a80.48,80.48,0,0,1-1.71,12.87.41.41,0,0,1-.37.35,23.49,23.49,0,0,1,.36,5c0,.57-.09,1.12-.14,1.68a10.27,10.27,0,0,0,1.82-1.31,7.69,7.69,0,0,0,1.19-6.82.07.07,0,0,1,.14,0,8.31,8.31,0,0,1-2.69,9.11,12.14,12.14,0,0,1-1.42,5.19c-.26,1.2-.55,2.4-.87,3.62-.55,2.12-1,4.24-1.52,6.37C558.21,242.56,560.75,230.63,561,226.5Z"/><path class="cls-3" d="M719.75,640.23c4.25,7.89,3.21,17.56,2.46,26.15-.74,8.36-3.44,16.07-6.16,24a52.67,52.67,0,0,1-5.19,11.22l0,0-.17.29c-1.7,2.61-3.8,4.71-5,7.64-.22.55.68.91,1,.4a45.32,45.32,0,0,1,3.67-5.4,24.71,24.71,0,0,0-.29,5.31c.09,1.54.42,3,.52,4.56.24,3.89-2.64,5.39-5,7.24-4.17,3.2-6.24,8.88-9.61,12.83-4.57,5.35-15.27,10.49-22,8.71-5.54-1.46-12.11-4.62-15.42-9.6a12.56,12.56,0,0,0,1.25.22c.3,0,.38-.41.15-.56-7.73-4.62-16.26-9-22.4-15.71-6.39-7-13.92-12.58-18.53-21-.22-4.1-.47-8.2-.57-12.29A144.42,144.42,0,0,1,622,649.91c1.17-5.4,3-10.65,3.92-16.09a71.18,71.18,0,0,0,.57-13.07c.08-2.36.13-4.71.13-7.08,0-3.24.36-6.43.13-9.67s-1.23-6.17-1.54-9.33a28.2,28.2,0,0,0,10,4.3.31.31,0,0,0,.24-.57c-3.51-2.42-7.8-3.72-11.43-6.07a23,23,0,0,1-10.1-13c5.66,1,11.43,1.41,16.25,5.63.62.55,1.53-.36.91-.9a24.36,24.36,0,0,0-7.84-4.58c-3.92-1.44-8.17-.73-12.17-1.65s-9.41-4.41-10.87-8.48c-1.23-3.42-1.28-10-.48-13.49l.25.28a.57.57,0,0,0,.35.55c5.82,2.38,11.95,2.65,18.15,3.15q11.16.93,22.32,1.8c.6,0,.59-.87,0-.92L620.36,559c-6.37-.53-12.83-.74-18.85-3a.7.7,0,0,0-.18-.47c-3.72-4.14-6.24-7.53-5.07-13.34,1.23-6.14,7-6.87,12.42-7.25,10.42-.72,21.4,2.87,31.82,3.66.52,0,.52-.77,0-.81-8.29-.68-16.46-2.26-24.71-3.33-5.41-.7-10.78-.85-15.9,1.09a16,16,0,0,1-9-6.27c-1.59-2.35-1.06-5.13-.54-7.71a23.43,23.43,0,0,1,.9-4.25,14.41,14.41,0,0,1,7.45-5.23,55,55,0,0,0,9.85-1.53c2.64-.09,5.24,0,7.56,0,11.77.1,23.85.31,35.43,2.51.68.13,1-.91.29-1a144.49,144.49,0,0,0-19.65-2.19.41.41,0,0,0-.16-.29,6.82,6.82,0,0,1-2-2.48c.61,0,1.23,0,1.85-.06a.46.46,0,0,0,0-.92c-7.67-.83-14.53,1.24-21.91,3l-2.23.51a37,37,0,0,0-8.42,1.32c-.5,0-1,.1-1.5.13-4.27.23-8.92-2.23-10.2-5.86a.57.57,0,0,0,0-.67l-.29-.46a7,7,0,0,1,1.42-5.08.27.27,0,0,0,0-.15c8.28-9,19.06-11.83,30.67-14.37,7.3-1.61,14.69-3.28,22.11-1.42,5.38,1.35,12,6.37,15.75,10.38.51.54,1.23-.24.79-.8a15.61,15.61,0,0,0-2.94-2.81,25.89,25.89,0,0,1,12.81,8.81c3.91,5.24-.24,12.32.14,18.37-.42.09-.72.6-.31.94,5.88,4.9,7.5,11.51,4.14,18.45-2,4.14-2.6,9.71-2.17,14.27a32.93,32.93,0,0,0-.57,3.66c-.31,3.58.84,6.69.87,10.24.06,9.22-7.06,15.35-11.8,22.31-.17.25.18.62.43.43,5.25-3.94,9.3-10.16,11.55-16.26a19.94,19.94,0,0,0,1.24-7.3c2.58,5.42,5.71,10.52,8.76,15.68,4,6.86,6.3,13.79,8.46,21.37A55.19,55.19,0,0,0,697,617.83c2,2.63,4.32,4.89,6.27,7.53s3.41,5.66,5.19,8.45a.29.29,0,0,0,.52-.22c-1.46-4.72-4.33-8.82-7.55-12.53,1.14.07,2.27.13,3.4.29a8.79,8.79,0,0,1,2.9.91c.66.33,1,1,1.69,1.12A151.06,151.06,0,0,1,719.75,640.23Zm-53.82-77c.36-.3-.16-.81-.52-.52-4,3.22-5.3,7.47-6.53,12.28-1,3.76-1.82,7.13-5.06,9.64-2.37,1.82-5.33,1.83-8.11,2.41a.45.45,0,0,0,0,.86,11.87,11.87,0,0,0,11.5-4.91C661.27,576.58,659.54,568.55,665.93,563.26Z"/><path d="M708.79,614.7c.16.82,2.22,6.79.71,6.8a.89.89,0,0,0-.34.08c-1.81-1.34-6.48-1.41-8.63-1.49l-.5-.55c-5.22-5.71-8.6-13.48-10.71-20.86a83,83,0,0,0-7.23-18.37c-3.41-6.11-7.34-11.88-10.34-18.22a.39.39,0,0,0-.51-.22l0-.19c-1.2-5.35-.57-9.69.22-15.06a.47.47,0,0,0-.3-.51,42.62,42.62,0,0,1,.86-6.22c.71-3,2.86-5.64,3-8.82a16.26,16.26,0,0,0-5.88-13.49c-.12-7.12,3.82-14.2-.92-20.56-3.26-4.37-9.06-7.41-14.25-8.71a.52.52,0,0,0-.58.24c-1.08-.75-2.18-1.49-3.2-2.33a24.42,24.42,0,0,0-6.92-3.78,20.54,20.54,0,0,0-3-.87c.54-6.06.25-12.16.65-18.24.42-6.38,1.3-12.75,1.57-19.13.36-8.51,2.29-16.79,3.54-25.18,6.24,6.34,12.07,14.2,14,22.94.82,3.67,1.13,7.45,1.83,11.14.87,4.64,2.74,9.15,4.38,13.55,6.53,17.53,12,35.48,17.26,53.44,5.33,18.38,11,36.8,15.7,55.35,2.3,9.06,4.67,18.09,7,27.14C707.29,606.57,708,610.65,708.79,614.7Z"/><path d="M665.41,562.74c.36-.29.88.22.52.52-6.39,5.29-4.66,13.32-8.72,19.76a11.87,11.87,0,0,1-11.5,4.91.45.45,0,0,1,0-.86c2.78-.58,5.74-.59,8.11-2.41,3.24-2.51,4.09-5.88,5.06-9.64C660.11,570.21,661.45,566,665.41,562.74Z"/><path class="cls-3" d="M651.62,369.73c2.07,4.38,13.45,8.2,10.51,14.14-1.17,2.36-2.84,4-3.56,6.6-.32,1.18-.23,2.88-1.36,3.7a26.46,26.46,0,0,0-3.51,2.53.43.43,0,0,0,.51.67c.65-.36,1.78-.81,2.79-1.39a37.27,37.27,0,0,0-.23,5.09,6.56,6.56,0,0,1-2,4.26c-1.2,1.26-3.39,2.85-4.27.37a.58.58,0,0,0-.16-.23,4.83,4.83,0,0,0,2-4.3.29.29,0,0,0-.22-.28,10.57,10.57,0,0,1,1.18-1.13c.32-.26-.11-.83-.45-.58-.77.59-1.37,1.39-2.15,2-.33.25-1.79.7-1.42,1.34s1.45-.2,1.8-.53.44-.44.65-.67c.07,2.77-2.31,4.23-4.92,4.76a.55.55,0,0,0-.36.06,12.58,12.58,0,0,1-2.65.16l.25-.38a4.72,4.72,0,0,0-.4-6.33c-.58-.58-1.39.27-.89.88,1.75,2.1.81,3.93-.46,5.65a.44.44,0,0,0-.47.62,20,20,0,0,0-1.45,2c-1.47,2.5-2.54,5-4.36,7.3-2.26,2.91-5.68,4.39-8.57,1.09-1.31-1.49-3.84-2-5.59-2.63-.69-.26-1,.83-.3,1.08a22.45,22.45,0,0,1,3.57,1.6c-3.82.71-8-.57-12,.22-5.72,1.15-4.81-4.68-6.23-8-1.09-2.56-4.75-4.28-7-5.49-4.08-2.24-7.86-5.19-12.46-6.21-.44-.1-.63.58-.19.68,5.16,1.18,10.34,5,14.78,7.81,2.77,1.79,3.92,3.57,4.22,6.8,0,.32.06.66.1,1a8.18,8.18,0,0,0-4.18-.51c-3.47.12-5.27-2.3-8.18-3.5a11.39,11.39,0,0,0-3.26-.59v0c.06-.43-.7-.53-.76-.1a.13.13,0,0,0,0,.06c-3.56-.26-7.56-.51-7.53-4.29a.42.42,0,0,0-.84,0c-.09,2.59,1.47,3.9,3.54,4.56a11.7,11.7,0,0,0-2,.92c-2.58,1.39-4.28.21-5.39-2.1-.78-1.63-2.32-2.86-3.26-4.41-1.65-2.72-1.47-6.71-1.2-9.89a6.88,6.88,0,0,1,1.82,1.24,4.5,4.5,0,0,0-.15,2c.07.52.91.76,1,.14a12.16,12.16,0,0,1,.36-2,.63.63,0,0,0-.09-.73c-1.68-2.05-5.69-2.14-5.21-5.42.66-4.55,5.78-2.78,8.54-1.57.56.24,1-.57.48-.83-.75-.33-1.59-.69-2.48-1,1.13-1.16.54-2.51-.71-3.73a5.12,5.12,0,0,1-1.41-1.82c-.6-1.6,1.55-2.2,2.43-2.66,2-1.06,3.15-3.33,5.17-4.49.51-.29,0-1.08-.47-.79a20.38,20.38,0,0,0-4.18,3.46,4,4,0,0,1-.62.47h0c-2.74-1.54,6.14-16.11,6.68-17.91.29-.94.41-2,.62-2.92,1-4.59,6.68-3.57,9.72-2.19,2.41,1.1,4.44,2.41,7.08,2.94a.49.49,0,0,0,.56-.62l.34-.1a.45.45,0,0,0,.51.23c6.91-1.57,11.73-5.55,17.52-9.32,1.45-.94,12.41-1.73,11.29,1.28-.53,1.4-1.12,2.32-.11,3.43a.25.25,0,0,0,.43-.18,9.77,9.77,0,0,1,.51-2.52l.35,0a.39.39,0,0,0,.27.54c4,1,7.65,2.28,10.64,5.24a18.78,18.78,0,0,0,5.71,3.85c3.81,1.82,5,4.93,5.68,8.81.46,2.81,2.13,5.07,2.73,7.78-2.39-1.7-4.88-3.33-5.93-5.47C652.13,368.76,651.37,369.21,651.62,369.73Zm-21.37,7.67c.68-1,.5-1.74.24-2.87-.59-2.47-2.79-2.74-4.92-2.86-3.05-.18-4.35-2.23-6.4-4-1.78-1.53-3.79-.33-5.45-2.73-.33-.48-1.11,0-.78.46,1.9,2.77,5.44,2.48,7.64,5.1a6.16,6.16,0,0,0,2.79,1.8c1.54.6,8.71,0,6,4.58-1.49,2.51.33,5.51-2.49,7.4-1.56,1.05-2.55,2.22-2.14,4.13.06.29.43.23.52,0,.77-2,2.25-2.88,3.66-4.23.56-.53,1.54-1.46,1.44-2.35C630.17,380.29,629.08,379.11,630.25,377.4Zm-21.11-10.16c.72-.4,5.16-2.3,3.76-3.7a4.35,4.35,0,0,0-3.55-.91c-1.11.25-7.38,3-6.5.64a.37.37,0,0,0-.35-.47c-3.38.27-6.78.15-10.17.46-.3,0-.31.51,0,.48,2.1-.18,4.19-.26,6.29-.3,1.15,0,3.59-.78,3,.78a.42.42,0,0,0,.2.48c2,.88,3.48.42,5.43-.43,1.74-.75,6.34-.65,3.11,1a2.8,2.8,0,0,0-1.59,1.63C608.65,367.17,608.94,367.34,609.14,367.24Z"/><path class="cls-2" d="M643.18,407.15a10.27,10.27,0,0,0,3,0c-.42,12.55-4.45,24.56-4.87,37.06-.2,5.8-1,11.6-1.44,17.39-.48,6.58-.19,13.19-.76,19.76-5.46-.84-11.28.25-16.56,1.37-6.69,1.4-13.23,2.83-19.24,5.31,0,0,0-.07,0-.1-1.2-1.4-.37-4.91-.3-6.58.12-2.55-1.33-5.08-1.87-7.52-1.54-7.08-3.61-13.72-4-21-.39-7.6-1.8-15-2.81-22.52-.93-6.87-4.07-12.93-3.64-19.85a12.69,12.69,0,0,1,5.25,2,17.65,17.65,0,0,0,3.52,1.86c2.22.87,4.65-.41,6.82.86a.52.52,0,0,0,.33.07,5.07,5.07,0,0,0,.66,1.73c1.31,1.94,2.82,2.3,5.09,2,2.58-.35,4.33-1.27,7.17-.86,2.43.35,4.27.71,6.68,0a.47.47,0,0,0,.14-.08,12.66,12.66,0,0,1,1.31,1.2,3.4,3.4,0,0,0,2.4,1.09c3.61.21,5.24-1.78,7.49-4.33S641.32,410.12,643.18,407.15Zm-3.63,14c.15-.29-.28-.54-.43-.25C634.88,429,630.47,438,624,444.53a117.52,117.52,0,0,1-11.35,9.65c-2.84,2.23-6.21,3.8-8.32,6.81-.24.34.28.72.56.43,2.85-3,6.49-5.09,9.73-7.64A116.86,116.86,0,0,0,625.74,444a32.76,32.76,0,0,0,6.26-9.15C634.24,430.14,637.17,425.78,639.55,421.13Zm-.89,10.3c.13-.2-.18-.37-.32-.19-5.35,7.31-8.74,15.94-15.08,22.51-3,3.12-6.23,6.2-9.47,9.07s-7.18,4.92-10.27,8a.44.44,0,0,0,.62.62c2.77-2.67,6-4.6,9-7,3.82-3.08,7.1-6.79,10.67-10.17C630.47,448,633.43,438.77,638.66,431.43Zm-.92,11.71c.17-.32-.31-.6-.48-.28a104.13,104.13,0,0,1-14.12,20.28c-4.93,5.46-11.88,8.34-17.17,13.33-.22.22.07.61.33.43,6-4,12.53-7.79,17.56-13C629.66,457.82,633.93,450.54,637.74,443.14Zm-1.19,11.92c.25-.31-.18-.76-.44-.45-3.36,4-5.93,8.83-9,13.09-2.69,3.76-5.27,7-9.07,9.73-2.18,1.55-4.54,2.81-6.64,4.48-.33.26.09.77.44.57,4.5-2.6,9.53-5.52,12.7-9.75C628.81,467.07,632.11,460.5,636.55,455.06Zm-.2,18c.2-.26-.15-.63-.37-.37a38.24,38.24,0,0,1-3.32,3.41c-1,.94-2.4,2.06-2.83,3.39-.06.19.17.28.3.18,1.08-.86,1.93-2.19,2.93-3.17A41,41,0,0,0,636.35,473ZM635,465.47c.38-.4-.22-1-.59-.6-4.28,4.57-7.5,10-11.77,14.56a.34.34,0,0,0,.47.48C627.81,475.81,630.71,470,635,465.47Zm-3.67-39.56c.1-.15-.14-.29-.25-.15a151.21,151.21,0,0,1-14.21,17c-4.54,4.57-10.25,7.85-14.38,12.82-.26.31.15.74.44.45C607.77,451,613.53,447,618.44,442S627.26,431.45,631.29,425.91ZM625,423.64c.17-.19-.11-.47-.29-.28-3.92,4.2-8.48,7.74-12.12,12.21-3.06,3.77-7.22,6.62-9.91,10.66-.13.2.16.41.32.25C610.48,439.1,618,431.47,625,423.64Zm-10.92.33c.19-.24-.23-.56-.41-.32-4.87,6.26-10.52,12.81-16.67,17.83-.24.2.07.56.32.42,3.39-2,5.63-5.06,8.13-8C608.29,430.57,611.38,427.46,614.06,424Zm-8.39-.47c.18-.23-.15-.57-.34-.33-1.31,1.64-2.59,3.31-4,4.9-1.13,1.31-3.16,1.79-4,3.34a.17.17,0,0,0,.27.21c1.3-1.11,3-1.92,4.09-3.2C603.1,426.84,604.36,425.15,605.67,423.5Z"/><path d="M639.12,420.88c.15-.29.58,0,.43.25-2.38,4.65-5.31,9-7.55,13.73a32.76,32.76,0,0,1-6.26,9.15,116.86,116.86,0,0,1-11.09,9.77c-3.24,2.55-6.88,4.65-9.73,7.64-.28.29-.8-.09-.56-.43,2.11-3,5.48-4.58,8.32-6.81A117.52,117.52,0,0,0,624,444.53C630.47,438,634.88,429,639.12,420.88Z"/><path d="M638.34,431.24c.14-.18.45,0,.32.19-5.23,7.34-8.19,16.59-14.84,22.88-3.57,3.38-6.85,7.09-10.67,10.17-3,2.4-6.24,4.33-9,7a.44.44,0,0,1-.62-.62c3.09-3.12,7-5.14,10.27-8s6.46-5.95,9.47-9.07C629.6,447.18,633,438.55,638.34,431.24Z"/><path d="M637.26,442.86c.17-.32.65,0,.48.28-3.81,7.4-8.08,14.68-13.88,20.72-5,5.25-11.51,9.08-17.56,13-.26.18-.55-.21-.33-.43,5.29-5,12.24-7.87,17.17-13.33A104.13,104.13,0,0,0,637.26,442.86Z"/><path d="M636.11,454.61c.26-.31.69.14.44.45-4.44,5.44-7.74,12-12,17.67-3.17,4.23-8.2,7.15-12.7,9.75-.35.2-.77-.31-.44-.57,2.1-1.67,4.46-2.93,6.64-4.48,3.8-2.7,6.38-6,9.07-9.73C630.18,463.44,632.75,458.61,636.11,454.61Z"/><path d="M636,472.65c.22-.26.57.11.37.37a41,41,0,0,1-3.29,3.44c-1,1-1.85,2.31-2.93,3.17-.13.1-.36,0-.3-.18.43-1.33,1.85-2.45,2.83-3.39A38.24,38.24,0,0,0,636,472.65Z"/><path d="M635.28,932.49c.35,3.41.58,6.91-.84,10.13-.78,1.79-1.49,2.75-1.56,4.45l-.08.06c-7.77,8.74-21.71,9.87-32.6,11-14.54,1.58-29,3.67-43.58,5.1-16.21,1.59-32.42,2.27-48.68,3s-32.57,2.4-48.86,3.41-32.68.88-49,.76c-16-.12-32.41.92-48.27-.81-7-.77-13.79-2.22-20.77-2.77-3.4-.27-6.8-.38-10.2-.63-4.58-.33-8.86-2.06-13.11-3.67-5.81-2.21-12.41-5-18.62-5.73-8.26-.93-16.08.73-24.13-2.17-2.69-1-5.18-2.41-7.83-3.48-3.81-1.53-7.8-.92-11.54-3a.46.46,0,0,0-.66.26l-.17,0a.58.58,0,0,0-.09-.61c-2.75-3.35,1.84-12.33,2.29-16.39,1-8.73-1.48-17.15-.89-25.84.62-9.1,3.94-17.89,5.56-26.84s.44-18.32,1.72-27.43c1.17-8.37,3.34-16.61,4.33-25a196.41,196.41,0,0,0,.84-27.12c-.38-19,2-42.81-1-61.58,0,0,0,0,0-.07,0-.27-.06-.54-.1-.81,4-2.26,7.94-4.55,11.72-7.13,8.11-5.52,12.61-12.93,18.12-20.83,2.61-3.75,5.58-7.12,7.41-11.33s2.44-9.2,3.3-13.75c4.2-22.17,15.07-42.21,22.69-63.21,3.92-10.79,8.33-21.4,12.08-32.25,1.82-5.25,3.27-10.55,6.23-15.31,2.47-4,4.69-8.5,9-10.6a14.17,14.17,0,0,0,5.48-1.6c4.95-2.63,9-7.29,13.53-10.64s6.64-7,9-12c2.87-6.18,2.8-12.44,4.11-19a.38.38,0,0,0,0-.22,9.07,9.07,0,0,0,4.71-2.46.38.38,0,0,0,.11-.18,15.28,15.28,0,0,0,3.67-.17,22.94,22.94,0,0,0,2.89-.7.72.72,0,0,0,.17.23c9,7.47,26.14-2.5,27.16-13.24a10,10,0,0,0-.48-4.36c8-4.49,14.79-14,8.3-22.67a8.79,8.79,0,0,0-.86-1,.41.41,0,0,0,.16-.14c2.9-3.84,7.4-7.61,8.69-12.42a13.82,13.82,0,0,0-3.56-13.35c-2.76-2.85-6.79-4.17-10.57-5.25a17.77,17.77,0,0,0,2.15-2.52,37.9,37.9,0,0,1,3.84-4.18c3,2.91,4.32,6.58,8.13,8.82a10.09,10.09,0,0,0,11.16-.07,6,6,0,0,0,2.76-6.85,45.58,45.58,0,0,0-6.2-12.73.58.58,0,0,0-.15-.13,16.86,16.86,0,0,0-5.18-9.22.54.54,0,0,0,.15-.18l.4-.71h0a.5.5,0,0,0,.31.65,104.29,104.29,0,0,0,42.72,5.76,89,89,0,0,0,12.76-2.07c1.29-.22,2.58-.46,3.87-.73a95.64,95.64,0,0,0,17.74-5.53,1.24,1.24,0,0,1,.07.28,58.92,58.92,0,0,0,19-14.18,34.09,34.09,0,0,0,7.18-13.49,64.67,64.67,0,0,0,1.73-8.83c.53-3.68-.43-7.19,1.12-10.72.56.38,1.06-.52.52-.91s-1.27-.89-1.91-1.33a33.77,33.77,0,0,1,11.39,3.81c4,2.23,8.59,3.64,11.87,7a3,3,0,0,0,.93,1.81,4.61,4.61,0,0,0-2.23,1.73c-1.66,2.85,3.56,4.63,1.84,6.86-2.24-.52-4.51-.35-5.83,1.89-.78,1.33-1.07,3.58,0,4.81a6.25,6.25,0,0,0,1.72,1.26,24.66,24.66,0,0,0,.57,10.19c.85,2.66,3.32,4.51,4.38,7.11,1.84,4.54,6.66,0,9.29-.13a.7.7,0,0,0,.67-.69l.34.05,2.29.27a19.79,19.79,0,0,0-.11,6.47c.71,3.49,2.36,6.61,3,10.16a216.31,216.31,0,0,1,3.38,29.13c.11,2.81.2,5.41,1.33,8,1.64,3.82,2,7.55,2.86,11.55.67,3,1.49,5.29,1.31,8.42-1.35-1.84-3.19-3.28-4.63-5.08a49.13,49.13,0,0,0-8.23-8c-3.49-2.71-9-3-12.46-.08-5.52,4.56-4.11,9.47-1.81,15.46a61.53,61.53,0,0,0,5.31,9.81c1.06,1.75,1.86,3.62,3,5.33s2.47,1.79,3.67,3.66a.67.67,0,0,0,.46.31,9.21,9.21,0,0,0,8.06,6.46c.45,0,.9.07,1.36.09a14.35,14.35,0,0,0-6,5.09.36.36,0,0,0,.09.52,14.58,14.58,0,0,0-1.18,11.18c1.31,3.64,5.21,6.31,8.91,7.53-2.62,1.74-3.24,5.83-3.58,8.62-.49,4,2.14,7.37,4.67,10.26a.42.42,0,0,0-.32.32c-1.71,6.49-1.43,15.1,4.18,19.48a22.71,22.71,0,0,0,10.12,4.14,23.68,23.68,0,0,0,8.26,12.7c.91.76,1.94,1.54,3,2.3.22,6,1.52,11.76,1.2,17.9-.2,3.67-.06,7.39,0,11,0,2.7-.29,5.55-.18,8.27-.14,1.29-.32,2.58-.56,3.87-1,5.47-3,10.81-4.25,16.25A134.81,134.81,0,0,0,617,682.44c0,11.09,1.28,22.13.81,33.23-.22,5.32-1.91,9.35-3.76,14.21-1.59,4.15-.12,8.57-.46,12.87,0,.37.43.47.65.26a6.15,6.15,0,0,1-.07,1.35c-.42,2.54-2.74,5.36-4.08,7.53a31.33,31.33,0,0,0-2.74,5.45,8.11,8.11,0,0,0-.44,2.19,121.56,121.56,0,0,1,0-20.28c0-.59-.88-.59-.92,0-.53,7-1.33,13.79-.4,20.75,1,7.73-.33,15.26-1.55,22.88s-2.49,15-3.58,22.55c-1,6.88-2.64,14.4-2.49,21.32a.49.49,0,0,0,1,.13,52.87,52.87,0,0,0,2.09-11.76,41.85,41.85,0,0,0,2.48,6.42c2.45,5.46,3,11.73,5.66,17,3,5.88,5.9,10.87,7.44,17.4a67.65,67.65,0,0,0,5.76,16.28c6.58,12.64,8.9,26.54,10.18,40.54C633.18,919.42,634.61,925.89,635.28,932.49Z"/><path d="M634.37,464.87c.37-.4,1,.2.59.6-4.25,4.54-7.15,10.34-11.89,14.44a.34.34,0,0,1-.47-.48C626.87,474.85,630.09,469.44,634.37,464.87Z"/><path d="M633.42,347.53a.54.54,0,0,1-.24.59,1,1,0,0,0-.25.36,9.77,9.77,0,0,0-.51,2.52.25.25,0,0,1-.43.18c-1-1.11-.42-2,.11-3.43,1.12-3-9.84-2.22-11.29-1.28-5.79,3.77-10.61,7.75-17.52,9.32a.45.45,0,0,1-.51-.23.44.44,0,0,1,.26-.68,35.87,35.87,0,0,0,11.54-5.15c2.85-1.88,5.12-4.23,8.45-5.23C625.61,343.73,632.37,344.34,633.42,347.53Z"/><path d="M631,425.76c.11-.14.35,0,.25.15-4,5.54-8,11.19-12.85,16.1s-10.67,9-15.55,14.05c-.29.29-.7-.14-.44-.45,4.13-5,9.84-8.25,14.38-12.82A151.21,151.21,0,0,0,631,425.76Z"/><path d="M630.49,374.53c.26,1.13.44,1.86-.24,2.87-1.17,1.71-.08,2.89.11,4.43.1.89-.88,1.82-1.44,2.35-1.41,1.35-2.89,2.25-3.66,4.23-.09.23-.46.29-.52,0-.41-1.91.58-3.08,2.14-4.13,2.82-1.89,1-4.89,2.49-7.4,2.71-4.58-4.46-4-6-4.58a6.16,6.16,0,0,1-2.79-1.8c-2.2-2.62-5.74-2.33-7.64-5.1-.33-.49.45-.94.78-.46,1.66,2.4,3.67,1.2,5.45,2.73,2,1.77,3.35,3.82,6.4,4C627.7,371.79,629.9,372.06,630.49,374.53Z"/><path d="M624.69,423.36c.18-.19.46.09.29.28-7,7.83-14.5,15.46-22,22.84-.16.16-.45,0-.32-.25,2.69-4,6.85-6.89,9.91-10.66C616.21,431.1,620.77,427.56,624.69,423.36Z"/><path d="M613.65,423.65c.18-.24.6.08.41.32-2.68,3.49-5.77,6.6-8.63,9.94-2.5,2.93-4.74,6-8.13,8-.25.14-.56-.22-.32-.42C603.13,436.46,608.78,429.91,613.65,423.65Z"/><path d="M612.9,363.54c1.4,1.4-3,3.3-3.76,3.7-.2.1-.49-.07-.4-.31a2.8,2.8,0,0,1,1.59-1.63c3.23-1.68-1.37-1.78-3.11-1-2,.85-3.44,1.31-5.43.43a.42.42,0,0,1-.2-.48c.62-1.56-1.82-.8-3-.78-2.1,0-4.19.12-6.29.3-.31,0-.3-.45,0-.48,3.39-.31,6.79-.19,10.17-.46a.37.37,0,0,1,.35.47c-.88,2.32,5.39-.39,6.5-.64A4.35,4.35,0,0,1,612.9,363.54Z"/><path d="M605.33,423.17c.19-.24.52.1.34.33-1.31,1.65-2.57,3.34-4,4.92-1.13,1.28-2.79,2.09-4.09,3.2a.17.17,0,0,1-.27-.21c.86-1.55,2.89-2,4-3.34C602.74,426.48,604,424.81,605.33,423.17Z"/><path class="cls-3" d="M601.49,485.47a4.37,4.37,0,0,0,.73,3A38.66,38.66,0,0,0,587.79,499a.32.32,0,0,0,0,.45,7.88,7.88,0,0,0-1.19,3.74,6.57,6.57,0,0,0-1-.86c-2.79-2.15-3.88-5.32-5.64-8.21a54.73,54.73,0,0,1-6.37-13.91c-1.41-5.1,2.84-8.68,7-9.88s7.53,1.59,10.29,4.1a57.3,57.3,0,0,1,5.27,5.31C597.92,481.66,600.14,483.25,601.49,485.47Z"/><path d="M573.94,120.39c.81.75,3.15,4.91.86,5.38-1.08.22-4.51-.72-2.54,1.26a7.21,7.21,0,0,1,2.36,3.63.65.65,0,0,1-.62.81c-2.1.17-7.6-1-3.4,1.74a3,3,0,0,1,1.68,3.09,1.77,1.77,0,0,1-1.69,1.36c.07,0-5.79.37-3.87,1.46a10.52,10.52,0,0,1,2.43,1.73.69.69,0,0,1-.3,1.14c-2.82.47-.61,2.82-.09,3.83.41.79-.79,1.49-1.19.69l-.09-.17c-1.14-2.27-2.53-4.27-.35-5.26-1.34-.78-3.2-1.76-2.8-3.21.55-2,3-1.73,4.54-1.61,3.64.27-.17-2.62-1.18-3.38a2.66,2.66,0,0,1-1-1.38c-.33-.8.72-1.51,1.36-1.55,1.75-.1,3.53.48,5.26.31,0,0-3.19-3.33-3.43-3.77a1.53,1.53,0,0,1,1-2.45,5.78,5.78,0,0,1,2.76.28c3.23.6-3.66-3.85-4-4s-.7-.27-1-.42c-2.87-1.72-2.15-5.6-5.35-7.2a.82.82,0,0,1-.29-1.12c2.18-3.07,3.63-6.14,6.73-8.31.81-.56,5.67-3.75,1.08-4.94L569,97.91a11.46,11.46,0,0,1-2.85-.93c-1.07-.6-2.29-1.58-1.89-3,.22-.82,4.75-3.56,3.86-4.05a.68.68,0,0,1-.25-.93c1.68-2.31-3.85-6.76-5.3-7.07a28.44,28.44,0,0,0-4.78-.45.64.64,0,0,1-.44-1.08c2.84-3.26,7.25-3.06,10.73-5.24,5.75-3.6-3.53-2.31-5.77-1.94a19.2,19.2,0,0,1-5.35.26c-.27,0-.57-.28-.45-.59a7.41,7.41,0,0,1,1.39-2.63c2.19-2.52-2.67-.34-3.62,0-3,1.22-5.71,2.31-9,2.09a.56.56,0,0,1-.28-1,7.11,7.11,0,0,0,.89-.63c-1.89,1-3.41,2.71-5.46,3.47a.54.54,0,0,1-.69-.52,27.52,27.52,0,0,1,.39-6.13,13.8,13.8,0,0,1-4,2.78.5.5,0,0,1-.63-.49c.11-1-5-.28-6.17-.25a.42.42,0,0,1-.4-.52,7.46,7.46,0,0,1,2.9-3.92,17.14,17.14,0,0,1,2.39-1.9,59.8,59.8,0,0,0-6.3,2.9.63.63,0,0,1-.75.8c-4.77-1.19-9.77-3.39-13-7.24-2-2.41-5.38-7.21-3.77-10.43-1.46,2.91-1.51,7.1-4.89,8.55-4.87,2.11-4-6.34-10.9-3.19a.55.55,0,0,1-.74-.19c-1.75-3.26,0-4.62,2.47-5.52a47.86,47.86,0,0,0-17.69,4.83c-3.25,1.71-4.07,4.51-6.5,6.89a19.47,19.47,0,0,1-5.36,3.53.58.58,0,0,1-.87-.5,10.79,10.79,0,0,0-1.3-4.25l-1.71-.09a13.86,13.86,0,0,1-.19,2.5.57.57,0,0,1-.7.54c-3-.74-7.68-3.26-9.15-6.19-1.08-2.16.12-3.09,1.82-4,.79-1.25-2.69-.77-3-.67a7.69,7.69,0,0,0-4.93,3.1c0-.06,2.67.38,2.94.44A.63.63,0,0,1,450,56c-.66,1.49-3.73,4.51-.49,4.69a4,4,0,0,1,1.47.15,3.18,3.18,0,0,1,1.27,1,5.33,5.33,0,0,0-1,1c.36,3.76-4.12,3.68-7.05,3.14a30.19,30.19,0,0,1-12.66.53c1.2,1.42,2.4,2.83,3.68,4.18A.77.77,0,0,1,435,72c-3.25.57-7,2.35-10.33,2.12-1.33-.09-6.69-1.36-5.17,1.23.41.72,1.08,2.21.2,2.87a4.94,4.94,0,0,1-3.84,1.13c-1.6-.09-2.51-1.87-.66,1.53A.76.76,0,0,1,414.5,82a1.43,1.43,0,0,1-.83.11.68.68,0,0,1,0,.32h.16a1.11,1.11,0,0,0-.17.3h-.14a1,1,0,0,1-.26.2,1,1,0,0,1-.12.56A9.63,9.63,0,0,1,410,86.86a1,1,0,0,1-1.36-.36c-.21-.41-.41-.78-.59-1.15-2.17,2-6.72,1.34-10.22,1.4a1,1,0,0,1-.33,1.36c-1.25.68-1.66,3.53-2.59,4.7a8.61,8.61,0,0,1-3.46,2.65c-2.8,1.24-11.48,1.61-6.5,6.09a1,1,0,0,1-.44,1.66c-3.47.72-4.84,2.37-5.93,5.58a6.34,6.34,0,0,1-2,2.9c2.57.72,5.14,0,7,2.56a1,1,0,0,1-.36,1.36c-1.94,1-4.25,1.2-1.75,3a1,1,0,0,1,.36,1.36,5.76,5.76,0,0,0-.59,2.13l.35.15c-.11.11-.25.22-.37.33s0,.09,0,.14a1.06,1.06,0,0,1-1.42.9l-1.11.67a33.79,33.79,0,0,1,7.79-.45.64.64,0,0,1,.32,1.18c-2.39,1.66-5.21,2.39-7.81,3.63-.67.32-4.28,3.19-3.92,3.19a10.69,10.69,0,0,1,3.09.33.66.66,0,0,1,.29,1.1c-1.93,2.06-4.87,2.82-6.64,4.9a16.71,16.71,0,0,1,3.34-.64.6.6,0,0,1,.52.91c-1.47,2-3.62,3.27-5.13,5.24a.66.66,0,0,1,.44.62c0,2.57-.09,3.43,2.88,3.79a6.47,6.47,0,0,1,2.41.63c.86.45.63,1.25.21,1.93,2.37.69.88,3.75,3.48,5.12a.62.62,0,0,1,0,1.07l-1.36,1.8a.65.65,0,0,1-.46.54.43.43,0,0,1-.23.58c-.75.36-7.83,6.13-5.67,7,1.14.48,2.21.61,3.32,1.05a1.48,1.48,0,0,1,.85,1.22,4.43,4.43,0,0,1-1.77,4c-.92.8-2.56,2.21-.68,2.74a2.06,2.06,0,0,1,.85.45c.87.86.37,2.09.11,3.08-.56,2.06-.07,2.27,1,3.56.52.62,1.55,1.57,1.12,2.54-.83,1.87-3.79,4.42-.9,5.66a.66.66,0,0,1,.31.76,13.55,13.55,0,0,0-.66,3.92c.68,6.59,1.6,2.06,1.84,3.75.19,1.33.32,1.28-.32,2.33-1.43,2.34-4.4,3.86-1.58,7.1a21,21,0,0,0,1.64,2.11c.08,0,2.05,2.43,2.07,2.47a1.72,1.72,0,0,1,.1,1.39c-.23.36.63,1.29,1.39,2.08a12.31,12.31,0,0,0-.48-2.46c-.8-2.67-2.78-6.26-1.91-9.17s2.75-5.08,4.78-7.39a.44.44,0,0,1,.18-.11,1.25,1.25,0,0,1,0-.81,1,1,0,0,1-1.11.64c-1.48-.13-2.69-2.78-3.15-3.93-.2-.48.59-.69.78-.21s2.42,4.66,3.23,2.82a.25.25,0,0,1,.45.05c.25,1.41,1.72,4,1.26,1a13.62,13.62,0,0,1-.25-2,3.26,3.26,0,0,1,.7-2.38,2.13,2.13,0,0,1,2-.58c.25,0,.51.38.6.58.65,1.41,1.46-1,1.66-1.82a.42.42,0,0,1,.83.11,8.21,8.21,0,0,0,0,1,18.88,18.88,0,0,0,1.35-1.65.33.33,0,0,1,.6.16c0,.32-.29,1.73.09,1.19a.29.29,0,0,1,.54.15c0,.42,0,.79,0,1h-.45c0-.05-.11-.06-.22,0a.34.34,0,0,1-.64-.17,5.27,5.27,0,0,0,0-.89,2.63,2.63,0,0,1-.28.23,7.06,7.06,0,0,1-1.06,1.31.43.43,0,0,1-.69-.09c-.46.82-1.09,1.41-1.92.93-3.44-2-1.57,3.32-2,5.12a.41.41,0,0,1-.68.18,12,12,0,0,1-1.31-1.27c-2.84,3.31-5.39,6.41-3.73,11.23.67,1.94,1.71,4,1.82,6.13.39,6.74.21,12.56,3.83,18.62,2.82,4.73,16.64,14,20.57,6.15a.62.62,0,0,1,.37-.33,71.1,71.1,0,0,1-1.38-16.65.46.46,0,0,1,.91,0c-.75,30.88,20.49,55.2,40.41,76.46.4.42-.13,1.18-.63.82-6.53-4.66-11-11.83-15.92-18-4.67-5.9-9.53-11.75-13.54-18.14q-1.63-2.59-3-5.3c1.54,8.92.62,18.54,1,27.42.4,9.45.76,20.52-4.59,28.83-4.8,7.43-12.31,12.23-20,16.35-4.82,2.61-9.7,5.1-14.56,7.62-4.68,2.43-10.68,4.06-14.73,7.38.6,2.53,2.36,4.33,3.3,6.75,1.46,3.76,3,7,5.92,10,4.07,4.1,8.47,7.89,12.63,11.9a166.66,166.66,0,0,0,17.24,14.64,12.23,12.23,0,0,1,3.72,2.23c2.41,2.06,4.93,3.2,7.53,4.88,2.24,1.45,4.6,4.3,7.12,5a15.22,15.22,0,0,1,3.53,1.13c2.33,1,4.5,2.51,7.1,3.31a63.18,63.18,0,0,1,8.36,3.23c4.63-5,7.43-11.22,9.75-17.67l-.08,0c.14-.57.33-1.13.52-1.69h0a.41.41,0,0,1,.15,0c4.32-12.49,7.35-25.66,18.87-33.24a.37.37,0,0,1,.57.29c3.47-.63,6.73.6,9.6,2.74,2.32,1.72,5.48,3.86,4.41,7.09-.4,5.34-4,10.7-7.82,15.26l.52-.24-.34.35c-.6.63-1.2,1.26-1.76,1.92l-.31.12c-1.45,1.6-2.87,3.07-4.12,4.36-3.94,4.08-8.36,7.93-11.61,12.61-2.88,4.15-5.71,9-8.17,13.47l-.4.71a.54.54,0,0,1-.15.18,16.86,16.86,0,0,1,5.18,9.22.58.58,0,0,1,.15.13,45.58,45.58,0,0,1,6.2,12.73,6,6,0,0,1-2.76,6.85,10.09,10.09,0,0,1-11.16.07c-3.81-2.24-5.15-5.91-8.13-8.82a37.9,37.9,0,0,0-3.84,4.18,17.77,17.77,0,0,1-2.15,2.52c3.78,1.08,7.81,2.4,10.57,5.25a13.82,13.82,0,0,1,3.56,13.35c-1.29,4.81-5.79,8.58-8.69,12.42a.41.41,0,0,1-.16.14,8.79,8.79,0,0,1,.86,1c6.49,8.67-.29,18.18-8.3,22.67a10,10,0,0,1,.48,4.36c-1,10.74-18.18,20.71-27.16,13.24a.72.72,0,0,1-.17-.23,22.94,22.94,0,0,1-2.89.7,15.28,15.28,0,0,1-3.67.17.38.38,0,0,1-.11.18,9.07,9.07,0,0,1-4.71,2.46.38.38,0,0,1,0,.22c-1.31,6.55-1.24,12.81-4.11,19-2.31,5-4.48,8.66-9,12s-8.58,8-13.53,10.64a14.17,14.17,0,0,1-5.48,1.6c-4.27,2.1-6.49,6.62-9,10.6-3,4.76-4.41,10.06-6.23,15.31-3.75,10.85-8.16,21.46-12.08,32.25-7.62,21-18.49,41-22.69,63.21-.86,4.55-1.44,9.47-3.3,13.75s-4.8,7.58-7.41,11.33c-5.51,7.9-10,15.31-18.12,20.83-3.78,2.58-7.74,4.87-11.72,7.13,0,.27.07.54.1.81,0,0,0,.05,0,.07,3,18.77.61,42.58,1,61.58a196.41,196.41,0,0,1-.84,27.12c-1,8.37-3.16,16.61-4.33,25-1.28,9.11-.08,18.35-1.72,27.43s-4.94,17.74-5.56,26.84c-.59,8.69,1.86,17.11.89,25.84-.45,4.06-5,13-2.29,16.39a.58.58,0,0,1,.09.61.52.52,0,0,1-.89.19c-3-3.21-.41-8.6.62-12.13,2.56-8.74.11-17,.07-25.74s2.49-17.09,4.49-25.6c2.26-9.62,1.77-18.8,2.52-28.52.7-9.13,3-18,4.44-27,1.53-9.45,1.56-19,1.4-28.57-.31-18.76,2.36-42.21-.41-60.77a4.88,4.88,0,0,1-.2-1.37l0-.24c0-.31-.09-.61-.14-.91,0,0,0-.07,0-.11l-.06-.43c-3.93,2.22-7.87,4.41-11.7,6.81-4.24,2.65-8.42,5.43-12.75,7.93a49.76,49.76,0,0,0-6.07,3.94c-2.9,3-5.22,6.71-8.44,9.4-1.18,1-6.22,1.87-8.36,2.71a22.57,22.57,0,0,1-8.45,2.12c-8.85.39-14.87-3.62-21-9.54-4.24-4.08-8.82-8.12-12.17-13-2.77-4-4.39-8.45-6-13A69.66,69.66,0,0,1,167.72,720c-.81-6.14-1.36-12.22-3.64-18a19.17,19.17,0,0,1-3.91-7c-2.42-8.39-2.49-17.32-2-26,.09-1.48.23-2.94.38-4.39l0,.06a1,1,0,0,0,0-.44,5.19,5.19,0,0,0-.07-.55l.21-.25a189.82,189.82,0,0,1,4-21.13c1.62-6.91,4.27-13.56,6.15-20.39a.87.87,0,0,1-.31,0c-3.62-1.4-7.83-2.79-11-5-1.13-.8-2-1.78-1.88-3.29.47-4.29,2.22-8.45,3.61-12.51,1.86-5.39,3.53-10.83,5.38-16.22a183.81,183.81,0,0,1,11.81-27.43c2.63-4.88,3.44-10.07,4.77-15.38,1.19-4.73,2.94-9.31,4.42-14,3.42-10.74,6.56-21.59,9.18-32.55,2.23-9.3,3.34-19.57,7.34-28.31,4.41-9.63,9.34-19.26,14.24-28.65a140.51,140.51,0,0,0,7.32-15.5c1.41-3.73,3.6-7.08,4.6-11a.4.4,0,0,1,.52-.29.64.64,0,0,1-.07-.66,8,8,0,0,1,3.8-3.47,18.06,18.06,0,0,0,6.3-5.15c3.7-4.71,9.77-6.64,15.38-8.08,7-1.79,14.29-3.6,21-6.38,7.38-3.05,13.51-8.25,20.61-11.87,6.57-3.37,12.89-7.21,19.5-10.49,5.7-2.83,10.27-6.19,16.45-8.07,4.48-1.36,8.46-3,12.08-6,1.25-1,2.61-2.33,4.25-2.72,2.87-.68,5.23-.9,7.77-2.53a9.78,9.78,0,0,1,4.56-1.07.26.26,0,0,1,.3.26c2.86-2,6.09-2.83,9.23-4.46,4.82-2.52,9.68-5,14.5-7.5,7.78-4.08,16.52-8.22,22.16-15.19,7.18-8.86,7.24-20.69,6.73-31.57-.47-9.82.94-20.54-1.25-30.24a73.11,73.11,0,0,1-5-14.51c-4.25,6.41-17.69.41-21-4.54a36,36,0,0,1-4.48-9.58c-.93-3.07-.51-6.26-.59-9.37-.92-1-2.21-1.58-3.19-2.53a.62.62,0,0,1-.1-.78l-1-1.51a.69.69,0,0,1-.48-.85c.33-.87-2.48-3.87-2.83-4.33-.73-.94-.5-3,0-4a7.82,7.82,0,0,1,2-2.91c1.78-1.7.14-2.13-.32-3.26-.87-2.17-.65-3.9-.18-6.13.06-.29-1.57-1.67-1.61-2.44a5.54,5.54,0,0,1,1.79-3.95c.38-.42-2.29-3.39-2.63-4.32-.62-1.72,2.93-4.13-.88-5.23a.64.64,0,0,1-.44-.77c.33-1,4.54-6.64,3.34-6.83s-3.14-.46-3.78-1.56c-1.77-3,4.55-7.47,6.61-8.4a.47.47,0,0,1,0-.21c.25-1.91,1.47-1.91-.19-2.81-1.82-1,1.73-4.16-1.86-4.06a.64.64,0,0,1-.45-1.08c.58-.7-4.68-2-5.18-2.46s0-3.26-.37-3.26a.68.68,0,0,1-.58-1,11.54,11.54,0,0,1,2.56-3.06c2.84-2.49,1.43-1.68-.8-1-.61.2-1-.48-.75-1a7.17,7.17,0,0,1,3.25-3.56c1.92-1.09,4.56-2.14.66-2.25a.69.69,0,0,1-.66-.87c1.47-4.38,7-5.39,11-7.21-2.57.13-5.11.67-7.71.73a.68.68,0,0,1-.47-1.15,40.19,40.19,0,0,1,3.45-2.4c.23-1.86.85-2.55-1.06-3.68a1,1,0,0,1-.36-1.36c.92-1.66,4.62-3,1.23-3.26a11.16,11.16,0,0,1-4.87-1.13,1,1,0,0,1-.2-1.56c2.47-2.15,2.67-3.44,3.42-6.52.44-1.86,2.84-2.67,4.82-3.13-1.69-2-2.34-4.45,1-5.76,2.83-1.1,7.6-1.24,9.59-3.75,1.43-1.79,1.2-3.24,2.09-4.49-.25-.12-.54-.28-1-.54a1,1,0,0,1,.24-1.82c2.66-1.08,12.37.85,13-2.55a1,1,0,0,1,1.92,0q.45,3.58,2.18-.24a.9.9,0,0,1,1.07-.43,1.24,1.24,0,0,0-.64-1.13.88.88,0,0,1,.68-.43,5.91,5.91,0,0,1,.72-.08,4.34,4.34,0,0,1-.23-3.14.79.79,0,0,1,1.16-.47c5.58,3.87,4.39-.08,3.22-1.06a2.7,2.7,0,0,1-1.12-1.49c-.3-1.11.6-1.7,1.36-2.16,1.71-1,5.12.52,7,.47,2.87-.07,5.81-1.14,8.67-1.81-1.48-1.62-2.9-3.3-4.34-5a.78.78,0,0,1,.76-1.3,30.7,30.7,0,0,0,13.24.66.55.55,0,0,1,.55-.49l1.5,0a.51.51,0,0,1,.46.28c2.11.26,5,.26,4.73-2.23a.51.51,0,0,1,0-.22,10.32,10.32,0,0,0-3.21-.75c-.38,0-.49-.47-.45-.78a8.44,8.44,0,0,1,1.3-3.52c1.16-1.91-.75-1.45-2.18-1.38a.61.61,0,0,1-.52-.9A8.61,8.61,0,0,1,454,50.35c1.22.18,1.92.59,2,1.2a.49.49,0,0,1,.42.88l-1.33.84a.36.36,0,0,1-.16.07,2.87,2.87,0,0,1-.72.23,3.49,3.49,0,0,0,1.23,3.76,20,20,0,0,0,3.94,2.83c3.5,1.78,2.24-1,2.75-3.47a.57.57,0,0,1,.82-.34,6,6,0,0,1,2.64,2.5c.33.68,1.32,4,1.9,3.68,3.94-2.11,5.06-6.26,8.6-8.58,6.36-4.17,16.53-6.46,24.08-6.15a.53.53,0,0,1,.14,1c-1.32.41-2.73.67-4,1.19-1.57,2.49-1.83,3.49-.75,3l1.32-.47a3.75,3.75,0,0,1,3.2.55c2.91,2.29,6.74,3.8,8.3-.81a13.47,13.47,0,0,1,1.82-4c.17-.21.62-.27.68.09,1.35,9.34,7.58,15,16.55,17.3a39.13,39.13,0,0,1,8.34-3.51.32.32,0,0,1,.31.54c-1.46,1.31-3.41,2.36-4.71,3.81-3.17,3.52,3.18,1.91,4.52,1.49a.49.49,0,0,1,.62.47c.16,1.73,1.78-.62,2.61-1.42.58-.56,1.16-1.12,1.72-1.7a6,6,0,0,1,3.11-3.45.47.47,0,0,1,.57.73c-.8,1-1.63,2-2.52,3a9.44,9.44,0,0,0-.82,2.25,25.93,25.93,0,0,0-.32,5s3.1-2.32,3.53-2.66a6.58,6.58,0,0,1,3.46-1.3c.55-.07.66.63.4,1a10.78,10.78,0,0,1-1.31,1.37c4.53-.28,8.48-3,13.08-3.19a.42.42,0,0,1,.29.71,7.79,7.79,0,0,0-2.07,3.86,16.77,16.77,0,0,0,3.86-.42c1.38-.26,2.75-.51,4.13-.71a9.63,9.63,0,0,1,5.26.64.53.53,0,0,1,.32.77c-2.73,4.71-8.68,4.23-12.47,7.35,4,.29,7,1.37,9.44,5.18.51.8,1.62,2.42.89,3.44-.23.32.7.87.66,1.29a2.52,2.52,0,0,1-1.3,2c-.57.38-5.13,2.65-1.44,3.83.91.29,1.82.53,2.74.78,2.26.61,4.57,2,3.47,4.63s-11.78,8.45-7.43,11.14c2.09,1.29,1.37,5.46,3.72,6.22C571.29,119.19,573,119.48,573.94,120.39ZM480,367.23a5,5,0,0,0-1.74-4,31,31,0,0,0-3-2.33c-2.82-1.85-5.69-3.18-9.11-2.21a.37.37,0,0,1-.18,0c-10.58,7.72-13.55,20.63-17.7,32.91a0,0,0,0,0,0,0c-2.34,6.92-5.07,13.62-9.76,19.07,1.06.54,2.1,1.11,3.11,1.71a30.36,30.36,0,0,1,4.21,3c4.46-8.11,9.32-15.83,15.89-22.41,2.82-2.83,5.65-5.64,8.25-8.66a.49.49,0,0,1,.13-.16c1-1.11,1.88-2.25,2.76-3.43C475.81,376.81,479.61,372.34,480,367.23Zm-25.31,76.9c3.46-2.67,2.65-5.37,1-8.74-1.24-2.65-2.09-5.41-3.55-7.93a17.9,17.9,0,0,1-.92,6.44c-.21.64-1.22.33-1.12-.31,1.19-7.15.33-13.32-5.8-17.81a46.15,46.15,0,0,0-6.92-4.13.8.8,0,0,1-.77-.38c-1.09-.51-2.18-1-3.3-1.45-3.07-1.24-6.67-1.9-9.5-3.6-1-.61-1.92-1.17-2.85-1.62a24.65,24.65,0,0,1-3.9-.9,8.12,8.12,0,0,0-1.64.18,57.74,57.74,0,0,0-6.54,1.83c-8.17,2.8-14.15,9-21.56,13.18-8.19,4.61-17.18,8.11-23.85,14.89a.39.39,0,0,1-.24.12c-4.42,4.88-5.64,11.49-7.79,17.56a77.36,77.36,0,0,1-6.5,14.4.55.55,0,0,1-.09.29c-2.47,3.87-3.48,8.53-5.68,12.57-1.72,3.16-3.49,6.31-5.4,9.36a198.6,198.6,0,0,1-14.75,20.14c-8.92,11-17.38,22.7-27.75,32.38a.63.63,0,0,1-.08.92A152.15,152.15,0,0,0,275.7,561c-3,3.59-5.86,7.25-8.73,10.93-2.38,3.07-5.29,5.76-7.61,8.84s-3.5,7.11-5.58,10.48a53.18,53.18,0,0,1-6.7,8.61c-4.67,5-9.15,9.7-15.19,13.07-4.07,2.26-8.27,4.24-12.5,6.13a.44.44,0,0,1-.39.33c-.13,0-.26,0-.38,0-9.85,4.39-19.88,8.37-29,14.41-12.31,8.19-22.81,18.94-27.83,33.1-.18.52-1,.18-.77-.33a58.06,58.06,0,0,1,3.79-8.68c-1.6,1.71-3.26,3.38-4.83,5.11-.16,1.43-.29,2.85-.38,4.27-.53,8.88-1.13,18.86,1.83,27.39C164,702,171,705.35,174,712.19c.3.7-.68,1.33-1.06.62-1.78-3.42-4.5-6-7-8.69,2.38,7.27,2.33,14.88,4.4,22.35,2.58,9.31,6.16,18.53,12.91,25.6,6.41,6.72,13.73,16,23.72,16.66a24.83,24.83,0,0,0,9.27-1.1,4.43,4.43,0,0,1,1.18-.64c3.2-1.32,8.38-2.28,10.61-4.92.73-.87,1.44-1.67,2.14-2.44.22-.35.44-.7.65-1.06a.64.64,0,0,1,.56-.33c4.49-6.16,13.31-9.74,19.34-13.54,8.54-5.39,17.74-9.82,26.12-15.46,4.33-2.92,9-6.23,12-10.65,3-4.59,6.06-9.22,9.35-13.63a37.91,37.91,0,0,0,7.39-16.61c.89-4.57,1.8-9.12,3.13-13.59,6.49-21.87,15.83-42.52,24-63.75,4.16-10.78,7.42-22.17,12-32.74,2.37-5.43,6.07-12.55,11.54-15.83-2.94,0-5.91-.68-9.19-1-1-.1-.75-1.6.22-1.5,2.71.28,5.43,1.08,8.15,1.18,4.42.15,7.92-1.66,11.23-4.45s7-5.62,10.54-8.48c4.3-3.53,6.75-8.28,8.7-13.42s2-10.42,3.2-15.72h0a10.85,10.85,0,0,1-3.07-.2c-.39-.08-.31-.69.09-.62a8.07,8.07,0,0,0,7.54-2,17.11,17.11,0,0,1-2.75-.66c-.41-.13-.15-.73.25-.61a14.05,14.05,0,0,0,9.36-.19,17.71,17.71,0,0,1,4.27-1.17,9.47,9.47,0,0,1,6.18,1.37c.49.31-.07,1-.55.71-2.72-1.79-5.24-1.31-7.83-.57,6,3.79,12.29,1.21,17.66-2.6,4.27-3,9.31-8.38,6.52-14.15-4.94-10.24-23.28-8.82-32.74-8.88-.58,0-.7-.9-.12-.9,7.76,0,28.81-1,33.71,8.35,4.73-2.66,9.74-6.87,10.22-12.72.49-6.17-3.12-10.52-9-12.22-9.19-2.66-18.32-5.62-28-5.47-.45,0-.55-.69-.09-.7,7.49-.19,14.57,1.31,21.75,3.33,3.87,1.1,8.84,1.88,12.17,4.56a.63.63,0,0,1,.05-.12c2.8-4,8.08-8,8.77-13.13a12.87,12.87,0,0,0-7.29-13.65c-9.46-4.51-20.7-5.46-31-6.23-.65,0-.5-1,.15-1,.34,0,.68,0,1,.06a.54.54,0,0,1,.21-.37c4.7-3.64,11.33-6.1,13.52-12.17.17-.48.83-.21.77.24,5.55,2.18,10.9,5.37,16.23,8.05a.6.6,0,0,1,.34.57c1.6,1.44,2.59,3.75,4,5.29C444.69,444.52,450.42,447.43,454.71,444.13Zm-22.26-4.79A35.27,35.27,0,0,1,435.7,436c-2.37-1.15-4.78-2.2-7.07-3.52-1.1-.63-2.2-1.27-3.3-1.88a1,1,0,0,1,0,.13c-2,3.49-4.65,6.59-6.85,10A82,82,0,0,1,429,442.87l.2,0a15.11,15.11,0,0,1,1.46-1.57C431.27,440.69,431.85,440,432.45,439.34Zm-8-9.12a.27.27,0,0,1,.08-.07,42.92,42.92,0,0,0-3.92-1.9,17.27,17.27,0,0,1-5.1,6.29,37.6,37.6,0,0,1-7.23,5.15c3,.2,6,.48,9,.87C419.28,436.88,422.28,433.83,424.43,430.22Zm-9.11-27.6c-1-.77-2-1.62-3-2.44-1.72-1.35-3.7-2.3-5.51-3.51l0,0c-10.14-6.25-18.68-14.1-27.32-22.54-4.36-4.26-9.93-8.12-13.22-13.32-1.6-2.53-2.21-5.33-3.65-7.92-1.14-2.07-2.49-3.74-2.87-6.12a.62.62,0,0,1,.06-.31l0-.06h0a.52.52,0,0,1,.12-.15l.31-.23c-2.81.34-4.37,2.64-7.1,3.12a17.68,17.68,0,0,0-9.59,4.24c-4.2,3.47-9.31,4.54-14.33,6.27-6.1,2.1-11.89,6.12-17.54,9.27s-11.08,6.25-16.79,9.11c-6.15,3.08-11.34,7.63-17.61,10.49a106.65,106.65,0,0,1-17.71,5.82C252,396.29,244,397.81,239,404.48c-2.33,3.16-7.52,3.9-9.15,7.34a.54.54,0,0,1-.75.27.37.37,0,0,1,0,.28c-1,4.44-3.43,8.45-5,12.72a87.67,87.67,0,0,1-5.15,11c-4.45,8.35-8.23,17-12.64,25.42-4.86,9.24-6.7,18.86-9,28.93q-3.36,14.65-7.65,29.08c-2.81,9.34-6.12,18.48-8.32,28-2,8.7-6.89,15.88-10.23,24.09-3.75,9.22-6.59,18.72-9.83,28.12-1.41,4.09-4.35,9.52-4.19,13.92.13,3.42,9.51,6,11.79,6.92a1,1,0,0,1,.24.16c.41-1.56.77-3.14,1.06-4.73l-1.75.07a.3.3,0,0,1-.17,0c-.61,0-1.22.07-1.83.13s-.49-.73,0-.78a95.43,95.43,0,0,1,9.86-.46,159.61,159.61,0,0,1,19.79.47c7.08.64,14.77,1,21.71,2.89q3.84-1.71,7.66-3.52c9.11-4.35,16.09-10.32,22.64-18,5-5.89,6.94-13.64,12.28-19.17,10.55-10.93,18.32-24,29.94-33.89,0,0,0,0,0,0C303,533.08,313,518.77,323.28,506.1a173.58,173.58,0,0,0,15.36-21.77,84.25,84.25,0,0,0,5.7-10.8c.57-1.41,1.06-2.84,1.62-4.23a.38.38,0,0,1,0-.41c3.66-7.17,7.31-14,9.81-21.65,1.74-5.34,3.67-10.66,7.75-14.67a.32.32,0,0,1,.24-.1c7.82-7.63,18.3-10.62,27.11-17C398.1,410.27,406,403.63,415.32,402.62ZM211.74,621l3.66-1.63c-2.75-.29-5.57-1-8.17-1.35-4.3-.54-8.61-1-12.94-1.34a221.94,221.94,0,0,0-23.21-.74c-1.16,8.1-4.23,15.55-6.28,23.43a174.27,174.27,0,0,0-4.63,22.47c2.1-2.38,4.32-4.67,6.46-7a68.81,68.81,0,0,1,19.86-20.41c7.67-5.28,15.86-9.19,24.19-12.94-.45.08-.91.13-1.36.18.8-.26,1.59-.55,2.37-.89A.46.46,0,0,1,211.74,621Z"/><path d="M569.64,120.33c.35.14,7.24,4.59,4,4a5.78,5.78,0,0,0-2.76-.28,1.53,1.53,0,0,0-1,2.45c.24.44,3.43,3.77,3.43,3.77-1.73.17-3.51-.41-5.26-.31-.64,0-1.69.75-1.36,1.55a2.66,2.66,0,0,0,1,1.38c1,.76,4.82,3.65,1.18,3.38-1.52-.12-4-.36-4.54,1.61-.4,1.45,1.46,2.43,2.8,3.21-2.18,1-.79,3,.35,5.26l-.11.06a.46.46,0,0,0-.82.27c0,2.63.79,8.29-2,9.51-1.36.61-1.59,3.2-1.22,4.33.72,2.17-.2,3.73-2,4.81a2.18,2.18,0,0,0-1,1,3.54,3.54,0,0,0-.23,1l-1.84-.22a99.81,99.81,0,0,1,1.86-10.81.66.66,0,0,0,0-.14,1.86,1.86,0,0,1,.13-.16.4.4,0,0,0-.28-.68,7.8,7.8,0,0,1-1.36.08.71.71,0,0,0-.46-.82c-1.46-.51-1.06-1.6-2.17-2.12a14.66,14.66,0,0,0-1.4-.57c.91-.46,1.74-1.06,1.74-2.17,0-1.36-1.31-2-2.52-2.33,1.69-1.57,2.82-2.68.16-5s-1.3-3.44-2.87-5.46a7.6,7.6,0,0,0-1.74-1.7c-2.67-2,.29-1.75,1.61-2.29a.59.59,0,0,0,.34-.85c-.73-1.62-7-7.62-3.16-7.13.55.07.68-.65.4-1a74.22,74.22,0,0,0-5.67-5.67.57.57,0,0,0-.89.12c.32-.64-2.64-1.9-3.53-2.09a.57.57,0,0,0-.72.54c.15,1.79,1.22,4.16-.69,1.3a5.17,5.17,0,0,0-2.48-2.07.51.51,0,0,0-.74.57,5.43,5.43,0,0,0,.75,2.33c.27.59,2.44,4.6.57,2.11a3.51,3.51,0,0,0-3-1.46.4.4,0,0,0-.34.58,9.56,9.56,0,0,0,1.66,1.85,21.61,21.61,0,0,0-5-1.08.29.29,0,0,0-.29.13A43.86,43.86,0,0,1,514,114a41.8,41.8,0,0,1-8.73-8.06c-2.32-3-2.27-6.61-2.14-10.23a.11.11,0,0,0-.21,0,13.63,13.63,0,0,0-.65,2.67c-.08-2.26-.07-1.29,0,.17a30.87,30.87,0,0,0-.13,5.37,26.86,26.86,0,0,1-.8,6.37,5.8,5.8,0,0,0-.15-2.35.49.49,0,0,0-.89-.12,15.84,15.84,0,0,0-1.45,4.39c-.76,3.72-1.46-2.06-1.81-3.22-1.32-4.34-3.76-8.18-5.12-12.52a.39.39,0,0,0-.74,0c-.6,1.46-.26,2.7.1,4.22,0,.11,1.08,8.15-1.65,5.64-.22-.21-1.66-2.08-2.07-2.6a.48.48,0,0,0-.76.1,3.88,3.88,0,0,0-.23,2.63c.05.41,1.24,6.89-.71,5.31-3.13-2.53-2.75-9-4.7-12.46a.52.52,0,0,0-.94.4c.73,2.38-1.51,1.51-3,1a4.32,4.32,0,0,0-1.06-.23,6.88,6.88,0,0,0-1.82-.74.41.41,0,0,0-.51.21c-1.35-.95-3.25-3.09-5-3.1a.52.52,0,0,0-.49.65c.3,1.79,1.67,2.89,2.7,4.33a28.92,28.92,0,0,1-3.53-1.7c-1-.71-2-1.52-3.07-2.23-.52-.36-1.06.41-.65.84a2.13,2.13,0,0,1-2.12.77.53.53,0,0,0-.37.89c.76.74,2.91,1.7,1.4,2.32a.51.51,0,0,0-.3.73c.69,1.08,1.46,2.1,2.18,3.16a.48.48,0,0,0,.52.21c3,2.74,5.8,6.8,5.94,11a2.9,2.9,0,0,0-.42-.17.42.42,0,0,0-.39.08,4.43,4.43,0,0,0-1.66-1.74.41.41,0,0,0-.45,0c-.71-1.32-1.55-2.56-2.35-3.84A.48.48,0,0,0,465,112a20.11,20.11,0,0,0-1.06-1.92.5.5,0,0,0-.91.39,7.77,7.77,0,0,0,1.72,3.29c.48,1.09.91,2.21,1.32,3.36l0,0a22.47,22.47,0,0,1-.13,3.38c-1.44-5.55-7.13-10.23-11.73-12.91a.45.45,0,0,0-.65.5l-1.19.09a.43.43,0,0,0-.38-.44c-3.67-.37-7.15-.58-10.63.77a.49.49,0,0,0-.11.88c1.45,1,3.63,1.56.85,1.72-1.38.09-2.75.15-4.13.25a17,17,0,0,0-6.43,1.31c-3.28,1.63,1.86,3.57,2.87,3.83,2,.51,2.54.49.3,1.15a24.63,24.63,0,0,0-2.94,1.09c-1,.42-2.43,1.59-2.14,2.83a4.32,4.32,0,0,0,2.93,3.2c.33.15-4.14,2.5-4.56,2.71a6.18,6.18,0,0,0-2.82,2.38.56.56,0,0,0,.33.8,7.65,7.65,0,0,0,2.22.41c1.62.12,3.77,1.45,1.35,2.64-2.14,1.06-4.42,1.55-5.59,3.8a.59.59,0,0,0,.34.86c2.25.42,6.13,0,4.47,3.79a.62.62,0,0,0,.36.9c1.22.35,2.46.61,3.69.93,4.59,1.21-1,5.39-1.79,6a.62.62,0,0,0,.43,1c4.25-.09-3.57,5.51-4.83,6.34-2.35,1.57-4.93,2.93-7,4.9a.69.69,0,0,0,.49,1.17c.66,0,1.32,0,2,0l.57,2.75c-.93.76-1.9,1.48-2.9,2.16a11,11,0,0,0-2.91,3.05.7.7,0,0,0,.41,1c3.2,1.28-.78,3.7-1.63,4.54a.67.67,0,0,0,.3,1.11c.46.16-2.73,2.37-3.13,2.69a11.85,11.85,0,0,0-2.66,3.56s-.05,0-.06.06c-1.18,1.63-2.11,2.83-2.27,4.84-.15,1.76,2.53,2.3.59,4.17-1.3,1.25-.65,2.76-2,3.91-.79.66-.42,1.36,0,2,1.13,2.08.44,3.77,2.45,5.69,1,.92,1.37,2.21,2.29,3.16.33.34-.86,4.69-1.4,6.5-1.16-.61-2.29-1.22-3.4-1.84a14.76,14.76,0,0,0-3.86-1.46c-.8-.2-2.44.35-1.17-1.13,1-1.15.72-2.35-.24-3.43-2.25-2.54-3.32-.52-5.19-5.26a9.24,9.24,0,0,1-.51-4c.28.09.62-.19.42-.48a3.84,3.84,0,0,1-.32-.54A29.55,29.55,0,0,1,396,192.1c.15-.48-.6-.68-.75-.2a27.77,27.77,0,0,0-.79,3.07c-.07-.48-.11-1-.16-1.47a.34.34,0,0,0-.51-.29c-.53.33-.67.26-.7,0s0-.6,0-1a.29.29,0,0,0-.54-.15c-.38.54-.09-.87-.09-1.19a.33.33,0,0,0-.6-.16,18.88,18.88,0,0,1-1.35,1.65,8.21,8.21,0,0,1,0-1,.42.42,0,0,0-.83-.11c-.2.81-1,3.23-1.66,1.82-.09-.2-.35-.54-.6-.58a2.13,2.13,0,0,0-2,.58,3.26,3.26,0,0,0-.7,2.38,13.62,13.62,0,0,0,.25,2c.46,3-1,.41-1.26-1a.25.25,0,0,0-.45-.05c-.81,1.84-3-2.25-3.23-2.82s-1-.27-.78.21c.46,1.15,1.67,3.8,3.15,3.93a1,1,0,0,0,1.11-.64,1.25,1.25,0,0,0,0,.81.44.44,0,0,0-.18.11c-2,2.31-3.9,4.4-4.78,7.39s1.11,6.5,1.91,9.17A12.31,12.31,0,0,1,381,217c-.76-.79-1.62-1.72-1.39-2.08a1.72,1.72,0,0,0-.1-1.39s-2-2.43-2.07-2.47a21,21,0,0,1-1.64-2.11c-2.82-3.24.15-4.76,1.58-7.1.64-1.05.51-1,.32-2.33-.24-1.69-1.16,2.84-1.84-3.75a13.55,13.55,0,0,1,.66-3.92.66.66,0,0,0-.31-.76c-2.89-1.24.07-3.79.9-5.66.43-1-.6-1.92-1.12-2.54-1.08-1.29-1.57-1.5-1-3.56.26-1,.76-2.22-.11-3.08a2.06,2.06,0,0,0-.85-.45c-1.88-.53-.24-1.94.68-2.74a4.43,4.43,0,0,0,1.77-4,1.48,1.48,0,0,0-.85-1.22c-1.11-.44-2.18-.57-3.32-1.05-2.16-.92,4.92-6.69,5.67-7a.43.43,0,0,0,.23-.58.65.65,0,0,0,.46-.54l1.36-1.8a.62.62,0,0,0,0-1.07c-2.6-1.37-1.11-4.43-3.48-5.12.42-.68.65-1.48-.21-1.93a6.47,6.47,0,0,0-2.41-.63c-3-.36-2.92-1.22-2.88-3.79a.66.66,0,0,0-.44-.62c1.51-2,3.66-3.19,5.13-5.24a.6.6,0,0,0-.52-.91,16.71,16.71,0,0,0-3.34.64c1.77-2.08,4.71-2.84,6.64-4.9a.66.66,0,0,0-.29-1.1,10.69,10.69,0,0,0-3.09-.33c-.36,0,3.25-2.87,3.92-3.19,2.6-1.24,5.42-2,7.81-3.63a.64.64,0,0,0-.32-1.18,33.79,33.79,0,0,0-7.79.45l1.11-.67a1.06,1.06,0,0,0,1.42-.9s0-.09,0-.14.26-.22.37-.33l-.35-.15a5.76,5.76,0,0,1,.59-2.13,1,1,0,0,0-.36-1.36c-2.5-1.83-.19-2.06,1.75-3a1,1,0,0,0,.36-1.36c-1.85-2.54-4.42-1.84-7-2.56a6.34,6.34,0,0,0,2-2.9c1.09-3.21,2.46-4.86,5.93-5.58a1,1,0,0,0,.44-1.66c-5-4.48,3.7-4.85,6.5-6.09a8.61,8.61,0,0,0,3.46-2.65c.93-1.17,1.34-4,2.59-4.7a1,1,0,0,0,.33-1.36c3.5-.06,8,.59,10.22-1.4.18.37.38.74.59,1.15a1,1,0,0,0,1.36.36,9.63,9.63,0,0,0,3.11-3.36,1,1,0,0,0,.12-.56,1,1,0,0,0,.26-.2h.14a1.11,1.11,0,0,1,.17-.3h-.16a.68.68,0,0,0,0-.32,1.43,1.43,0,0,0,.83-.11.76.76,0,0,0,.65-1.14c-1.85-3.4-.94-1.62.66-1.53a4.94,4.94,0,0,0,3.84-1.13c.88-.66.21-2.15-.2-2.87-1.52-2.59,3.84-1.32,5.17-1.23,3.31.23,7.08-1.55,10.33-2.12a.77.77,0,0,0,.34-1.28c-1.28-1.35-2.48-2.76-3.68-4.18A30.19,30.19,0,0,0,444.27,66c2.93.54,7.41.62,7.05-3.14a5.33,5.33,0,0,1,1-1,3.18,3.18,0,0,0-1.27-1,4,4,0,0,0-1.47-.15c-3.24-.18-.17-3.2.49-4.69a.63.63,0,0,0-.37-.91c-.27-.06-2.91-.5-2.94-.44a7.69,7.69,0,0,1,4.93-3.1c.35-.1,3.83-.58,3,.67-1.7.89-2.9,1.82-1.82,4,1.47,2.93,6.13,5.45,9.15,6.19a.57.57,0,0,0,.7-.54,13.86,13.86,0,0,0,.19-2.5l1.71.09a10.79,10.79,0,0,1,1.3,4.25.58.58,0,0,0,.87.5,19.47,19.47,0,0,0,5.36-3.53c2.43-2.38,3.25-5.18,6.5-6.89a47.86,47.86,0,0,1,17.69-4.83c-2.46.9-4.22,2.26-2.47,5.52a.55.55,0,0,0,.74.19c6.86-3.15,6,5.3,10.9,3.19,3.38-1.45,3.43-5.64,4.89-8.55-1.61,3.22,1.75,8,3.77,10.43,3.23,3.85,8.23,6,13,7.24a.63.63,0,0,0,.75-.8,59.8,59.8,0,0,1,6.3-2.9,17.14,17.14,0,0,0-2.39,1.9,7.46,7.46,0,0,0-2.9,3.92.42.42,0,0,0,.4.52c1.21,0,6.28-.72,6.17.25a.5.5,0,0,0,.63.49,13.8,13.8,0,0,0,4-2.78,27.52,27.52,0,0,0-.39,6.13.54.54,0,0,0,.69.52c2-.76,3.57-2.49,5.46-3.47a7.11,7.11,0,0,1-.89.63.56.56,0,0,0,.28,1c3.28.22,6-.87,9-2.09.95-.39,5.81-2.57,3.62,0a7.41,7.41,0,0,0-1.39,2.63c-.12.31.18.56.45.59a19.2,19.2,0,0,0,5.35-.26c2.24-.37,11.52-1.66,5.77,1.94-3.48,2.18-7.89,2-10.73,5.24a.64.64,0,0,0,.44,1.08,28.44,28.44,0,0,1,4.78.45c1.45.31,7,4.76,5.3,7.07a.68.68,0,0,0,.25.93c.89.49-3.64,3.23-3.86,4.05-.4,1.43.82,2.41,1.89,3a11.46,11.46,0,0,0,2.85.93l1.73.43c4.59,1.19-.27,4.38-1.08,4.94-3.1,2.17-4.55,5.24-6.73,8.31a.82.82,0,0,0,.29,1.12c3.2,1.6,2.48,5.48,5.35,7.2C568.94,120.06,569.29,120.2,569.64,120.33Z"/><path d="M562.81,177.53c1.81,2.15,0,1.4-.56,2.3-1,1.75-1.51,5.25-1.42,7.29.11,2.77-.67,4.22-1.12,7.06-.66,4.14-.06,7.43-1.7,11.12-.15-5-.86-10.07-.89-15.13a186.45,186.45,0,0,1,1.16-23.11l1.84.22c-.21,2.44,2.23,4.46.47,7.05a.64.64,0,0,0,0,.68C561.26,176,562.06,176.64,562.81,177.53Z"/><path class="cls-3" d="M559.8,204.74c2,7.17,1.72,14.38,1.22,21.76-.27,4.13-2.81,16.06-8.2,17.15.47-2.13,1-4.25,1.52-6.37.32-1.22.61-2.42.87-3.62a12.14,12.14,0,0,0,1.42-5.19,8.31,8.31,0,0,0,2.69-9.11.07.07,0,0,0-.14,0,7.69,7.69,0,0,1-1.19,6.82,10.27,10.27,0,0,1-1.82,1.31c0-.56.12-1.11.14-1.68a23.49,23.49,0,0,0-.36-5,.41.41,0,0,0,.37-.35A80.48,80.48,0,0,0,558,207.6s0,0,0,0A11.8,11.8,0,0,0,559.8,204.74Z"/><path class="cls-3" d="M558.68,156.51a.45.45,0,0,0,.62.64c-2.16,9.64-2.19,19.54-3,29.35-.43,5.46.09,10.85.48,16.3s-.49,10.51-1.25,15.82a36.8,36.8,0,0,1-.66-4.79c0-.52-.84-.52-.82,0,.15,3.48,1,6.8.92,10.34a48.2,48.2,0,0,1-2,12.73c-2.29,7.84-3.31,16-5.51,23.89-4,14.13-9,29-19.36,39.79h0a15.82,15.82,0,0,0-2,1.85c1.49-5.2,2.88-10.42,6.34-14.7.09-.1-.06-.26-.15-.15-1.8,2-4,4.18-5,6.74-1.6,4.1-2.5,8.41-3.91,12.58a29.55,29.55,0,0,1-9.69,13.49.39.39,0,0,0-.46.31s0,0,0,.06a25,25,0,0,1-9.6,4.53c-8.77,1.93-18.56.7-27-2.19-4.9-1.68-8.67-5.85-12.61-9a57.58,57.58,0,0,1-10.12-9.73c-.23-.29-.73,0-.5.3,5,6.63,12,12.41,18.64,17.28,7.24,5.29,18.39,6,27,5.44a27,27,0,0,0,13.71-4.59c-1.32,5.19-3.39,9.71-7.37,13.6-3.32,3.25-7.44,5.52-10.91,8.59a.27.27,0,0,0,.33.43,67.35,67.35,0,0,0,12.29-9.27c3.87-3.83,5.64-9,6.79-14.16a34.4,34.4,0,0,0,6.43-6.44,29.73,29.73,0,0,0,4.51-9,19.22,19.22,0,0,0,2.08-2.74c.41-.37.8-.76,1.19-1.15-.44,5.2-2.78,10-3.74,15.1-.93,4.94-.69,10.23-.87,15.25a143.23,143.23,0,0,0,2.88,33.93.32.32,0,0,0,.62,0c.25-1.28-.28-2.74-.51-4a96.07,96.07,0,0,1-1.16-10.44c-.28-4.08-.52-8.18-.66-12.27,3.63,4.9,6.71,10.13,11.22,14.32,5,4.61,11.56,7.77,17.22,11.54-2.13,4.21-1.24,9.18-2,13.74a39.36,39.36,0,0,1-6.36,16.63,46.44,46.44,0,0,1-14.52,13.06,30.29,30.29,0,0,0-5.93,2.77c-3.51,1.92-7.49,2.9-11.34,3.93-3.08.82-6.18,1.61-9.29,2.31-2.39.49-4.8.91-7.19,1.36s-5.06.29-7.4,1C475.23,422,461,419.7,448,415.2a.42.42,0,0,0-.56.28h0c2.46-4.47,5.29-9.32,8.17-13.47,3.25-4.68,7.67-8.53,11.61-12.61,1.25-1.29,2.67-2.76,4.12-4.36l.31-.12c.56-.66,1.16-1.29,1.76-1.92l.34-.35-.52.24c3.86-4.56,7.42-9.92,7.82-15.26,1.07-3.23-2.09-5.37-4.41-7.09-2.87-2.14-6.13-3.37-9.6-2.74a.37.37,0,0,0-.57-.29c-11.52,7.58-14.55,20.75-18.87,33.24a.41.41,0,0,0-.15,0h0c-.19.56-.38,1.12-.52,1.69l.08,0c-2.32,6.45-5.12,12.63-9.75,17.67a63.18,63.18,0,0,0-8.36-3.23c-2.6-.8-4.77-2.29-7.1-3.31a15.22,15.22,0,0,0-3.53-1.13c-2.52-.71-4.88-3.56-7.12-5-2.6-1.68-5.12-2.82-7.53-4.88a12.23,12.23,0,0,0-3.72-2.23,166.66,166.66,0,0,1-17.24-14.64c-4.16-4-8.56-7.8-12.63-11.9-2.89-2.92-4.46-6.19-5.92-10-.94-2.42-2.7-4.22-3.3-6.75,4-3.32,10-4.95,14.73-7.38,4.86-2.52,9.74-5,14.56-7.62,7.64-4.12,15.15-8.92,20-16.35,5.35-8.31,5-19.38,4.59-28.83-.38-8.88.54-18.5-1-27.42q1.41,2.7,3,5.3c4,6.39,8.87,12.24,13.54,18.14,4.91,6.21,9.39,13.38,15.92,18,.5.36,1-.4.63-.82-19.92-21.26-41.16-45.58-40.41-76.46a.46.46,0,0,0-.91,0,71.1,71.1,0,0,0,1.38,16.65.62.62,0,0,0-.37.33c-3.93,7.83-17.75-1.42-20.57-6.15-3.62-6.06-3.44-11.88-3.83-18.62-.11-2.08-1.15-4.19-1.82-6.13-1.66-4.82.89-7.92,3.73-11.23a12,12,0,0,0,1.31,1.27.41.41,0,0,0,.68-.18c.42-1.8-1.45-7.14,2-5.12.83.48,1.46-.11,1.92-.93a.43.43,0,0,0,.69.09,7.06,7.06,0,0,0,1.06-1.31,2.63,2.63,0,0,0,.28-.23,5.27,5.27,0,0,1,0,.89.34.34,0,0,0,.64.17c.11,0,.18,0,.22,0s0,.44-.2,1a.35.35,0,0,0,.53.3c1.16-.74.37.15.66.95a9.89,9.89,0,0,0,.57,1.32c-.44,4.2.68,8,5,10.41,2.62,1.47-1.49,3.09-.58,4.64,1.32,2.26,6.24-.65,7.13,3a.56.56,0,0,0,.53.41L409,216a.57.57,0,0,0,.89.27h0c.6.3,1.13-.59.53-.91l-.08,0A8.45,8.45,0,0,0,411,212c0-1.81,1.37-2.21,1-3.89-.22-.88-1.62-1.71-2-2.73-.66-1.86-2-3.48-2-5.69a1.18,1.18,0,0,0-.85-.92c.13,0,1.4-4.58,1.44-4.63.34-.38,1.78-1.48,1.49-2.24a3.71,3.71,0,0,0-.43-1c-1.68-1.69-.66-4,.63-5.88a35.66,35.66,0,0,1,5.28-4.83c.52-.42,1.88-1.29,1.63-2.2-.42-1.51-.89-.21.87-1.76.76-.67,2.4-1.73,2-3s-2.83-1-1-2.87,4.12-2.7,5.55-5.16c1.24-2.11-1.17-2.72-3.13-2.9,4.31-2.93,13.33-6.78,12.18-11.88a.58.58,0,0,0-.56-.43h-.41c1.46-1.16,3.22-2.81,2.75-4.4-.77-2.58-3.44-2.75-5.81-3.37.45.12.74-2.53.65-2.83-.29-1.05-.93-1.31-1.77-1.7-.24-.12-4.12-.07-2.56-1.21s3.56-1.55,5.18-2.61a2.08,2.08,0,0,0,.89-2.85c-1.34-2.07-10.79.46-2.52-3,1.06-.44,4.57-1.69,4.09-3.44-.13-.46-.89-.68-1.23-.83l-.17-4.11a19.13,19.13,0,0,1,2.7-1c.84-.28,1.67-.52,2.49-.81a.45.45,0,0,0,.2-.75,5.34,5.34,0,0,0-2.09-1.14c-.87-.3-1.79-.5-2.67-.77-3.22-1,2.09-2.43,2.09-2.45,3.29-.62,6.68-.33,10-.9a.44.44,0,0,0,.19-.74c-.26-.24-2.66-1.9-2.16-2.1,2.69-1.1,6.21-.6,9-.36a.33.33,0,0,0,.38-.35l1.19-.09a.47.47,0,0,0,.21.26c4.89,2.87,11.42,8.3,11.6,14.45a.45.45,0,0,0,.89.12c.89-2.29.72-4.64.68-7.06a20.44,20.44,0,0,1,1,1.86c.17.41.71.28.88,0l.9,1.27a.51.51,0,0,0,.92.12c.31-.73.09-.51.59-.11a.44.44,0,1,0,.53-.69l-.33-.26c.76-4.17-3-8.94-5.9-11.58a.44.44,0,0,0-.07-.37c-.69-1-2.66-2.54-.79-2.93a.51.51,0,0,0,.22-.84c-.27-.31-1.51-1.84-2.08-1.84a7.37,7.37,0,0,0,2.54-.29.5.5,0,0,0,.28-.21c1.92,1.37,3.8,2.67,6.24,3,.38,0,.54-.42.41-.69-.5-1-4.3-5.19-1.2-3.12,2,1.37,3.77,2.78,6.18,3.43a.44.44,0,0,0,.42-.72.47.47,0,0,0-.07-.07,17.67,17.67,0,0,0,3.58.67c1,3.85,1.7,9.38,4.68,10.49,3.63,1.35,2.14-4.18,1.8-5.84-.82-4,1.16.85,2.93.85,1.32,0,1.93-1.76,2-2.79a10.37,10.37,0,0,0-.33-3.51c-.22-.81-.42-1.62-.6-2.44-.75-3.2.49,1.13.61,1.48.87,2.4,2.26,4.59,3.18,7s1.55,5.14,2.53,7.64a.54.54,0,0,0,1,0c.25-.74,1.7-6.9,1.28-3.64,0,.38.5.46.68.18,2-3.06,1.72-6.29,1.47-9.67a13.12,13.12,0,0,0,1.8,4.3c2.31,3.9,6.76,6.8,10.38,9.4a40.57,40.57,0,0,0,15.56,6.81.57.57,0,0,0,.67-.54c1.35.34,2.64.79,4,1.27a.44.44,0,0,0,.55-.37,2.1,2.1,0,0,0,.61.39.46.46,0,0,0,.57-.32,4.78,4.78,0,0,0-.56-3.62c-1.27-2.67,1.29.92,2,1.58a.59.59,0,0,0,1-.41,24.16,24.16,0,0,0,0-2.55c0-.76,2.79,1.22,3,1.37a.57.57,0,0,0,.79-.2c-.63,1.25,6.46,4.61,2.67,4.14-.34-.05-.54.29-.57.57a3.63,3.63,0,0,0,.72,3c1.87,2.38,6.91,5,1.35,5.55a.63.63,0,0,0-.6.79,3.64,3.64,0,0,0,1.28,2.13c1.83,2,2.56,2.72,3.25,5.33a4.12,4.12,0,0,0,1.39,1.91c3.15,2.94,1.22,3-.3,4.49a.69.69,0,0,0,.3,1.13c2,.59,1.38,2.3,0,3.08a.7.7,0,0,0,.16,1.27,33.4,33.4,0,0,1,4.4,2.71.65.65,0,0,0,.62,1.07C558.79,156.27,559.42,155.59,558.68,156.51Zm-3.83,27.37c.21.6,1.2.29,1.09-.41a17.52,17.52,0,0,0-2.57-7.51c-1.79-2.59-4.21-4.62-5.8-7.38a.53.53,0,0,0-.31-.69c-3-1.14-6.59.14-9.55,1a50.15,50.15,0,0,1-19.59,1.26c-.37-.05-.52.27-.46.56a.51.51,0,0,0-.15.45,11.54,11.54,0,0,0,1,3.07c.24.55.49,1.09.71,1.65.13.36.35.66.5,1a.51.51,0,0,0,.36.7,35,35,0,0,0,15.11.38c4.7-.84,8.26-1.94,12.85.26C550.79,179.48,552.56,182,554.85,183.88Zm-14.43,9.66c.41,1,1.83.13,1.41-.83-1.73-4-6.57-4.75-10.46-4.92a16.78,16.78,0,0,0-13.65,5.8c-.5.55.31,1.37.81.82a16,16,0,0,1,4.24-3.33c-.41,2.29-.6,4,1.25,5.9s4.55,3,7.07,1.9c3.07-1.38,5.77-6.22,3.9-9.27C537.32,190.17,539.47,191.34,540.42,193.54Zm-6.11,69.08c.48,1.61-.25,3.27-.66,4.82-.06.21.23.41.39.23,2.65-3.21,1-6.5-1-9.52-.32-.49-1.1,0-.79.45A15.83,15.83,0,0,1,534.31,262.62Zm-11,2.81c.73-.13.42-1.25-.31-1.11-9.72,1.82-18.82,1.51-28.59.41-9.14-1-18.26-1.77-27-4.77-.42-.14-.64.35-.44.65a.46.46,0,0,0,.1.49c7.28,7.84,16.84,13.89,27.46,15.74,6.14,1.07,19.16,1.69,22.19-5.56a.46.46,0,0,0,0-.32l1.06-.15a.37.37,0,0,0,.27-.17.46.46,0,0,0,.23-.17,13.74,13.74,0,0,0,1.11-2.24q.57-1.2,1.23-2.37C521.48,265.73,522.38,265.6,523.28,265.43Zm-.38-25.81c1.53-3.1.22-6.24-2.58-8-.43-.26-.82.41-.39.68a5.08,5.08,0,0,1,1.9,7.23c-1.32,2.42-3.41,2.82-5.67,3.55a8.91,8.91,0,0,0,.93-3.37c0-.45-.65-.44-.68,0-.41,5.6-10.28,14.24-15.3,8.39-.58-.68-1.54.3-1,1,4.49,5.31,12.21.55,15.45-4.93C518.52,245.09,521.73,242,522.9,239.62Zm-4.32,40.63c.2-.49-.63-.83-.86-.36-.68,1.37-3.09,1.68-4.23,2.68-3.78,3.3-7.59,2.85-12.11,2.34-7.08-.8-13,.25-18.52-5-.31-.29-.77.17-.47.47,5.93,5.71,13,4.77,20.69,5.68,3.61.43,6.86.4,9.91-1.74C515,282.89,517.64,282.55,518.58,280.25Zm-5.15-52c1.37-8.48-.26-18.9-3.11-26.92-.14-.4-.77-.23-.64.17,2.91,8.72,1.78,17.83,3.14,26.75A.32.32,0,0,0,513.43,228.21Zm-15,16.52c.52.67,1.54-.3.95-1-2.56-2.85-5.94-3.15-9.54-2.51-.32.06-.18.53.13.48C493.26,241.25,496.27,242,498.4,244.73Zm-10.61.54a.8.8,0,0,0,.61-1.46c-1.88-.89-3.85-1.42-5.09-3.23-1.91-2.78-.14-6.82,1.72-9.05.31-.38-.22-.93-.56-.56a10.46,10.46,0,0,0-2.83,8.82C482.12,242.77,485.25,244.34,487.79,245.27Zm.31-74c.16-.4-.22-.64-.55-.58a.38.38,0,0,0-.43-.38,141.42,141.42,0,0,1-17.1,0c-2.85-.11-5.61-.66-8.44-.92-2.23-.2-4.56-1.56-6.7-1.63-3-.1-4.58,2-6.39,4.15-3.42,4-8.06,8.37-13,10.38a.36.36,0,0,0-.2.22.6.6,0,0,0,.27.9c7.68,2.73,11.82-5.83,19.4-5.47a.67.67,0,0,0,.26,0c5.39.18,10.71-1.06,16.09-.23,4.61.71,8.56,1.67,13.27,1.14a.59.59,0,0,0,.52-.7C486.85,176.3,487.2,173.47,488.1,171.26Zm-10.84,21.89a.47.47,0,0,0,.48-.8c-8.15-4.85-18.23-7.19-25.9.11-.71.68.35,1.72,1.07,1.08a17.25,17.25,0,0,1,4.51-2.92c-1.49,4.28,2.22,8.17,6.72,8.24,4,.06,7.92-4.74,6.5-8.58A33.59,33.59,0,0,1,477.26,193.15ZM456.2,253.34c.46-.21.06-.87-.4-.68-2.64,1.14-9.24,4.52-6.8,8.36a.29.29,0,0,0,.53-.22C448.91,256.83,453.09,254.7,456.2,253.34Zm-54.79-25.09a.59.59,0,1,0,1.16-.16,5.87,5.87,0,0,0-3.9-4.63,2.91,2.91,0,0,0-3.56,1.64,36.87,36.87,0,0,0-3.77-3.94c-.48-.37-1.15.29-.68.68a41.45,41.45,0,0,1,3.93,4.23.46.46,0,0,0,.09.06c-.07.21-.12.43-.17.65-.09.47.63.67.73.19.38-1.82,1.53-3.41,3.55-2.56A4.58,4.58,0,0,1,401.41,228.25Zm1-12.61c.62-.26.37-1.27-.28-1a5,5,0,0,0-3,3.53,2.69,2.69,0,0,0,2.39,3.42.62.62,0,0,0,.31-1.14c-1-.5-1.67-.89-1.46-2.16A3.6,3.6,0,0,1,402.39,215.64Zm-8.88-14.39v-.18a.76.76,0,0,0-.38-.66c-2.81-1.52-4.46,2.22-5.37,4.22a30.32,30.32,0,0,0-2.67,8.49c-.06.53.75.51.82,0A28.41,28.41,0,0,1,388.2,206a12.15,12.15,0,0,1,2.36-3.7c1-1.07,1.51-.18,2.57-.51A.52.52,0,0,0,393.51,201.25Z"/><path d="M555.94,183.47c.11.7-.88,1-1.09.41-2.29-1.85-4.06-4.4-6.79-5.7-4.59-2.2-8.15-1.1-12.85-.26a35,35,0,0,1-15.11-.38.51.51,0,0,1-.36-.7c-.15-.33-.37-.63-.5-1-.22-.56-.47-1.1-.71-1.65a11.54,11.54,0,0,1-1-3.07.51.51,0,0,1,.15-.45c-.06-.29.09-.61.46-.56a50.15,50.15,0,0,0,19.59-1.26c3-.83,6.52-2.11,9.55-1a.53.53,0,0,1,.31.69c1.59,2.76,4,4.79,5.8,7.38A17.52,17.52,0,0,1,555.94,183.47ZM554.48,182a14.88,14.88,0,0,0-3.15-6.76,39.07,39.07,0,0,1-4.61-6.25.56.56,0,0,1-.06-.2c-4.32-1.07-9.35,1.58-13.6,2.34a49.22,49.22,0,0,1-14.49.05,18.44,18.44,0,0,0,1.36,3.55,3.93,3.93,0,0,1,.48,1.34c0,.14,0,.26,0,.39h0c8.19,2,15.3-.93,23.36-.79C548.3,175.74,551.46,179,554.48,182Z"/><path d="M551.33,175.24a14.88,14.88,0,0,1,3.15,6.76c-3-3-6.18-6.26-10.72-6.33-8.06-.14-15.17,2.8-23.36.79h0c0-.13,0-.25,0-.39a3.93,3.93,0,0,0-.48-1.34,18.44,18.44,0,0,1-1.36-3.55,49.22,49.22,0,0,0,14.49-.05c4.25-.76,9.28-3.41,13.6-2.34a.56.56,0,0,0,.06.2A39.07,39.07,0,0,0,551.33,175.24Z"/><path d="M541.83,192.71c.42,1-1,1.8-1.41.83-1-2.2-3.1-3.37-5.43-3.93,1.87,3.05-.83,7.89-3.9,9.27-2.52,1.14-5.27-.06-7.07-1.9s-1.66-3.61-1.25-5.9a16,16,0,0,0-4.24,3.33c-.5.55-1.31-.27-.81-.82a16.78,16.78,0,0,1,13.65-5.8C535.26,188,540.1,188.75,541.83,192.71Zm-10.4,5.14c2.81-1.86,4.39-6,1.74-8.56a17.34,17.34,0,0,0-2.67-.09,18.33,18.33,0,0,0-6.9,1.47c-.25,2.12-.61,3.94,1.13,5.6S529.22,199.32,531.43,197.85Z"/><path d="M533.65,267.44c.41-1.55,1.14-3.21.66-4.82a15.83,15.83,0,0,0-2.08-4c-.31-.49.47-.94.79-.45,2,3,3.67,6.31,1,9.52C533.88,267.85,533.59,267.65,533.65,267.44Z"/><path d="M533.17,189.29c2.65,2.52,1.07,6.7-1.74,8.56-2.21,1.47-5,0-6.7-1.58s-1.38-3.48-1.13-5.6a18.33,18.33,0,0,1,6.9-1.47A17.34,17.34,0,0,1,533.17,189.29Z"/><path d="M523,264.32c.73-.14,1,1,.31,1.11-.9.17-1.8.3-2.69.43q-.66,1.17-1.23,2.37a13.74,13.74,0,0,1-1.11,2.24.46.46,0,0,1-.23.17.37.37,0,0,1-.27.17l-1.06.15a.46.46,0,0,1,0,.32c-3,7.25-16,6.63-22.19,5.56C483.86,275,474.3,268.94,467,261.1a.46.46,0,0,1-.1-.49c-.2-.3,0-.79.44-.65,8.76,3,17.88,3.73,27,4.77C504.15,265.83,513.25,266.14,523,264.32Zm-4.46,3.42c.29-.58.61-1.14.92-1.7a100.57,100.57,0,0,1-25-.31c-8.75-1-17.41-1.77-25.81-4.48,5.74,5.74,13.73,11.39,21.57,13.36,6.72,1.69,20.77,3.81,25.32-3.49-9.86,1.15-19.61.11-29.41-1.46-.38-.06-.22-.63.15-.57,10.38,1.55,20.88,2.44,31.3.85h0A14.09,14.09,0,0,1,518.51,267.74Z"/><path d="M520.32,231.66c2.8,1.72,4.11,4.86,2.58,8-1.17,2.37-4.38,5.47-7.31,4.56-3.24,5.48-11,10.24-15.45,4.93-.57-.67.39-1.65,1-1,5,5.85,14.89-2.79,15.3-8.39,0-.44.71-.45.68,0a8.91,8.91,0,0,1-.93,3.37c2.26-.73,4.35-1.13,5.67-3.55a5.08,5.08,0,0,0-1.9-7.23C519.5,232.07,519.89,231.4,520.32,231.66Z"/><path class="cls-3" d="M519.43,266c-.31.56-.63,1.12-.92,1.7a14.09,14.09,0,0,0-1,2.2h0c-10.42,1.59-20.92.7-31.3-.85-.37-.06-.53.51-.15.57,9.8,1.57,19.55,2.61,29.41,1.46-4.55,7.3-18.6,5.18-25.32,3.49-7.84-2-15.83-7.62-21.57-13.36,8.4,2.71,17.06,3.44,25.81,4.48A100.57,100.57,0,0,0,519.43,266Z"/><path d="M517.72,279.89c.23-.47,1.06-.13.86.36-.94,2.3-3.58,2.64-5.59,4-3,2.14-6.3,2.17-9.91,1.74-7.74-.91-14.76,0-20.69-5.68-.3-.3.16-.76.47-.47,5.56,5.27,11.44,4.22,18.52,5,4.52.51,8.33,1,12.11-2.34C514.63,281.57,517,281.26,517.72,279.89Z"/><path d="M510.32,201.29c2.85,8,4.48,18.44,3.11,26.92a.32.32,0,0,1-.61,0c-1.36-8.92-.23-18-3.14-26.75C509.55,201.06,510.18,200.89,510.32,201.29Z"/><path d="M499.35,243.77c.59.66-.43,1.63-.95,1-2.13-2.73-5.14-3.48-8.46-3-.31,0-.45-.42-.13-.48C493.41,240.62,496.79,240.92,499.35,243.77Z"/><path d="M488.4,243.81a.8.8,0,0,1-.61,1.46c-2.54-.93-5.67-2.5-6.15-5.48a10.46,10.46,0,0,1,2.83-8.82c.34-.37.87.18.56.56-1.86,2.23-3.63,6.27-1.72,9.05C484.55,242.39,486.52,242.92,488.4,243.81Z"/><path d="M487.55,170.68c.33-.06.71.18.55.58-.9,2.21-1.25,5-3,6.84a.59.59,0,0,1-.52.7c-4.71.53-8.66-.43-13.27-1.14-5.38-.83-10.7.41-16.09.23a.67.67,0,0,1-.26,0c-7.58-.36-11.72,8.2-19.4,5.47a.6.6,0,0,1-.27-.9.36.36,0,0,1,.2-.22c4.9-2,9.54-6.33,13-10.38,1.81-2.13,3.41-4.25,6.39-4.15,2.14.07,4.47,1.43,6.7,1.63,2.83.26,5.59.81,8.44.92a141.42,141.42,0,0,0,17.1,0A.38.38,0,0,1,487.55,170.68ZM486,174.3c.33-1,.65-2.08,1.06-3.1a115.67,115.67,0,0,1-17.06,0c-4.12-.24-8.92-.34-12.77-1.84-5.37-2.09-9.64,4.45-13,7.72a27.82,27.82,0,0,1-7.59,5.5c4.76,1.23,6.88-2.09,10.86-4a14.29,14.29,0,0,1,7.51-1.71.61.61,0,0,1,.3.12c4.85.13,9.64-.85,14.51-.6s9.41,1.72,14.39,1.38A13.45,13.45,0,0,0,486,174.3Z"/><path d="M487.08,171.2c-.41,1-.73,2.06-1.06,3.1a13.45,13.45,0,0,1-1.82,3.41c-5,.34-9.48-1.12-14.39-1.38s-9.66.73-14.51.6a.61.61,0,0,0-.3-.12,14.29,14.29,0,0,0-7.51,1.71c-4,1.94-6.1,5.26-10.86,4a27.82,27.82,0,0,0,7.59-5.5c3.39-3.27,7.66-9.81,13-7.72,3.85,1.5,8.65,1.6,12.77,1.84A115.67,115.67,0,0,0,487.08,171.2Z"/><path class="cls-4" d="M478.28,363.23a5,5,0,0,1,1.74,4c-.41,5.11-4.21,9.58-7.16,13.55-.88,1.18-1.81,2.32-2.76,3.43a.49.49,0,0,0-.13.16c-2.6,3-5.43,5.83-8.25,8.66-6.57,6.58-11.43,14.3-15.89,22.41a30.36,30.36,0,0,0-4.21-3c-1-.6-2-1.17-3.11-1.71,4.69-5.45,7.42-12.15,9.76-19.07a0,0,0,0,1,0,0c4.15-12.28,7.12-25.19,17.7-32.91a.37.37,0,0,0,.18,0c3.42-1,6.29.36,9.11,2.21A31,31,0,0,1,478.28,363.23ZM476.37,370c.17-.44-.5-.73-.68-.29-4,9.75-9,17.34-19.93,19.37a.27.27,0,0,0-.07.51c3.4,1.94,9-2.56,11.59-4.53C472,381.42,474.24,375.39,476.37,370Z"/><path d="M477.74,192.35a.47.47,0,0,1-.48.8,33.59,33.59,0,0,0-6.62-2.87c1.42,3.84-2.48,8.64-6.5,8.58-4.5-.07-8.21-4-6.72-8.24a17.25,17.25,0,0,0-4.51,2.92c-.72.64-1.78-.4-1.07-1.08C459.51,185.16,469.59,187.5,477.74,192.35Zm-12.64,5.28c3-.85,6.05-4.51,4.15-7.59a.87.87,0,0,1-.06-.15,18.65,18.65,0,0,0-10.55.25C456.64,194.09,460.8,198.86,465.1,197.63Z"/><path d="M475.69,369.73c.18-.44.85-.15.68.29-2.13,5.37-4.36,11.4-9.09,15.06-2.54,2-8.19,6.47-11.59,4.53a.27.27,0,0,1,.07-.51C466.69,387.07,471.68,379.48,475.69,369.73Z"/><path d="M469.25,190c1.9,3.08-1.2,6.74-4.15,7.59-4.3,1.23-8.46-3.54-6.46-7.49a18.65,18.65,0,0,1,10.55-.25A.87.87,0,0,0,469.25,190Z"/><path d="M455.8,252.66c.46-.19.86.47.4.68-3.11,1.36-7.29,3.49-6.67,7.46a.29.29,0,0,1-.53.22C446.56,257.18,453.16,253.8,455.8,252.66Z"/><path class="cls-3" d="M455.76,435.39c1.6,3.37,2.41,6.07-1,8.74-4.29,3.3-10,.39-13.16-2.94-1.45-1.54-2.44-3.85-4-5.29a.6.6,0,0,0-.34-.57c-5.33-2.68-10.68-5.87-16.23-8.05.06-.45-.6-.72-.77-.24-2.19,6.07-8.82,8.53-13.52,12.17a.54.54,0,0,0-.21.37c-.33,0-.67-.05-1-.06-.65,0-.8,1-.15,1,10.32.77,21.56,1.72,31,6.23a12.87,12.87,0,0,1,7.29,13.65c-.69,5.08-6,9.14-8.77,13.13a.63.63,0,0,0-.05.12c-3.33-2.68-8.3-3.46-12.17-4.56-7.18-2-14.26-3.52-21.75-3.33-.46,0-.36.7.09.7,9.66-.15,18.79,2.81,28,5.47,5.84,1.7,9.45,6,9,12.22-.48,5.85-5.49,10.06-10.22,12.72-4.9-9.37-26-8.33-33.71-8.35-.58,0-.46.9.12.9,9.46.06,27.8-1.36,32.74,8.88,2.79,5.77-2.25,11.11-6.52,14.15-5.37,3.81-11.7,6.39-17.66,2.6,2.59-.74,5.11-1.22,7.83.57.48.33,1-.4.55-.71a9.47,9.47,0,0,0-6.18-1.37,17.71,17.71,0,0,0-4.27,1.17,14.05,14.05,0,0,1-9.36.19c-.4-.12-.66.48-.25.61a17.11,17.11,0,0,0,2.75.66,8.07,8.07,0,0,1-7.54,2c-.4-.07-.48.54-.09.62a10.85,10.85,0,0,0,3.07.2h0c-1.19,5.3-1.25,10.59-3.2,15.72s-4.4,9.89-8.7,13.42c-3.49,2.86-7.09,5.56-10.54,8.48s-6.81,4.6-11.23,4.45c-2.72-.1-5.44-.9-8.15-1.18-1-.1-1.19,1.4-.22,1.5,3.28.34,6.25,1,9.19,1-5.47,3.28-9.17,10.4-11.54,15.83-4.63,10.57-7.89,22-12,32.74-8.19,21.23-17.53,41.88-24,63.75-1.33,4.47-2.24,9-3.13,13.59A37.91,37.91,0,0,1,298.16,705c-3.29,4.41-6.31,9-9.35,13.63-2.94,4.42-7.64,7.73-12,10.65-8.38,5.64-17.58,10.07-26.12,15.46-6,3.8-14.85,7.38-19.34,13.54a.64.64,0,0,0-.56.33c-.21.36-.43.71-.65,1.06-.7.77-1.41,1.57-2.14,2.44-2.23,2.64-7.41,3.6-10.61,4.92a4.43,4.43,0,0,0-1.18.64,24.83,24.83,0,0,1-9.27,1.1c-10-.7-17.31-9.94-23.72-16.66-6.75-7.07-10.33-16.29-12.91-25.6-2.07-7.47-2-15.08-4.4-22.35,2.53,2.71,5.25,5.27,7,8.69.38.71,1.36.08,1.06-.62-3-6.84-10-10.14-12.56-17.48-3-8.53-2.36-18.51-1.83-27.39.09-1.42.22-2.84.38-4.27,1.57-1.73,3.23-3.4,4.83-5.11a58.06,58.06,0,0,0-3.79,8.68c-.18.51.59.85.77.33,5-14.16,15.52-24.91,27.83-33.1,9.08-6,19.11-10,29-14.41.12,0,.25,0,.38,0a.44.44,0,0,0,.39-.33c4.23-1.89,8.43-3.87,12.5-6.13,6-3.37,10.52-8.08,15.19-13.07a53.18,53.18,0,0,0,6.7-8.61c2.08-3.37,3.2-7.31,5.58-10.48S264.59,575,267,572c2.87-3.68,5.76-7.34,8.73-10.93a152.15,152.15,0,0,1,19.56-19.51.63.63,0,0,0,.08-.92c10.37-9.68,18.83-21.42,27.75-32.38a198.6,198.6,0,0,0,14.75-20.14c1.91-3.05,3.68-6.2,5.4-9.36,2.2-4,3.21-8.7,5.68-12.57a.55.55,0,0,0,.09-.29,77.36,77.36,0,0,0,6.5-14.4c2.15-6.07,3.37-12.68,7.79-17.56a.39.39,0,0,0,.24-.12c6.67-6.78,15.66-10.28,23.85-14.89,7.41-4.16,13.39-10.38,21.56-13.18a57.74,57.74,0,0,1,6.54-1.83,8.12,8.12,0,0,1,1.64-.18,24.65,24.65,0,0,0,3.9.9c.93.45,1.85,1,2.85,1.62,2.83,1.7,6.43,2.36,9.5,3.6,1.12.45,2.21.94,3.3,1.45a.8.8,0,0,0,.77.38,46.15,46.15,0,0,1,6.92,4.13c6.13,4.49,7,10.66,5.8,17.81-.1.64.91,1,1.12.31a17.9,17.9,0,0,0,.92-6.44C453.67,430,454.52,432.74,455.76,435.39Zm-63.54,5.11c.37,0,.61-.57.19-.69-6-1.72-13.43-1.09-19.41.52s-9.62,5.23-13.06,10.2c-.21.31.24.66.45.36,3.46-4.8,7.08-8,12.9-9.46C379.53,439.86,385.88,440.23,392.22,440.5Zm-9.53,23.8c.49-.07.53-.84,0-.88-4.67-.4-10.13-1.93-14.58.09-3.67,1.67-5.86,6.14-7.63,9.5-.2.38.4.63.6.26,2.11-3.93,4.61-8.75,9.43-9.58C374.55,463,378.63,464.89,382.69,464.3Zm-2.24,21.63a.31.31,0,0,0,.16-.59c-5.49-2.6-11.55,1.93-15.79,5-.29.21,0,.64.33.43a40.22,40.22,0,0,1,6.68-4C374.75,485.48,377.38,485.81,380.45,485.93Z"/><path d="M452.38,108.21a.33.33,0,0,1-.38.35c-2.81-.24-6.33-.74-9,.36-.5.2,1.9,1.86,2.16,2.1a.44.44,0,0,1-.19.74c-3.29.57-6.68.28-10,.9,0,0-5.31,1.44-2.09,2.45.88.27,1.8.47,2.67.77a5.34,5.34,0,0,1,2.09,1.14.45.45,0,0,1-.2.75c-.82.29-1.65.53-2.49.81a19.13,19.13,0,0,0-2.7,1l.17,4.11c.34.15,1.1.37,1.23.83.48,1.75-3,3-4.09,3.44-8.27,3.42,1.18.89,2.52,3a2.08,2.08,0,0,1-.89,2.85c-1.62,1.06-3.64,1.47-5.18,2.61s2.32,1.09,2.56,1.21c.84.39,1.48.65,1.77,1.7.09.3-.2,2.95-.65,2.83,2.37.62,5,.79,5.81,3.37.47,1.59-1.29,3.24-2.75,4.4h.41a.58.58,0,0,1,.56.43c1.15,5.1-7.87,8.95-12.18,11.88,2,.18,4.37.79,3.13,2.9-1.43,2.46-3.62,3.2-5.55,5.16s.61,1.46,1,2.87-1.28,2.35-2,3c-1.76,1.55-1.29.25-.87,1.76.25.91-1.11,1.78-1.63,2.2A35.66,35.66,0,0,0,410.3,185c-1.29,1.85-2.31,4.19-.63,5.88a3.71,3.71,0,0,1,.43,1c.29.76-1.15,1.86-1.49,2.24,0,0-1.31,4.63-1.44,4.63a1.18,1.18,0,0,1,.85.92c0,2.21,1.33,3.83,2,5.69.36,1,1.76,1.85,2,2.73.42,1.68-1,2.08-1,3.89a8.45,8.45,0,0,1-.69,3.36l.08,0c.6.32.07,1.21-.53.91h0A.57.57,0,0,1,409,216l-2.65-.79a.56.56,0,0,1-.53-.41c-.89-3.67-5.81-.76-7.13-3-.91-1.55,3.2-3.17.58-4.64-4.33-2.43-5.45-6.21-5-10.41a9.89,9.89,0,0,1-.57-1.32c-.29-.8.5-1.69-.66-.95a.35.35,0,0,1-.53-.3c.22-.53.29-.85.2-1h.45c0,.28.17.35.7,0a.34.34,0,0,1,.51.29c.05.5.09,1,.16,1.47a27.77,27.77,0,0,1,.79-3.07c.15-.48.9-.28.75.2a29.55,29.55,0,0,0-1.06,4.52,3.84,3.84,0,0,0,.32.54c.2.29-.14.57-.42.48a9.24,9.24,0,0,0,.51,4c1.87,4.74,2.94,2.72,5.19,5.26,1,1.08,1.23,2.28.24,3.43-1.27,1.48.37.93,1.17,1.13a14.76,14.76,0,0,1,3.86,1.46c1.11.62,2.24,1.23,3.4,1.84.54-1.81,1.73-6.16,1.4-6.5-.92-1-1.32-2.24-2.29-3.16-2-1.92-1.32-3.61-2.45-5.69-.37-.67-.74-1.37,0-2,1.35-1.15.7-2.66,2-3.91,1.94-1.87-.74-2.41-.59-4.17.16-2,1.09-3.21,2.27-4.84,0,0,0,0,.06-.06a11.85,11.85,0,0,1,2.66-3.56c.4-.32,3.59-2.53,3.13-2.69a.67.67,0,0,1-.3-1.11c.85-.84,4.83-3.26,1.63-4.54a.7.7,0,0,1-.41-1,11,11,0,0,1,2.91-3.05c1-.68,2-1.4,2.9-2.16l-.57-2.75c-.66,0-1.32,0-2,0a.69.69,0,0,1-.49-1.17c2.06-2,4.64-3.33,7-4.9,1.26-.83,9.08-6.43,4.83-6.34a.62.62,0,0,1-.43-1c.78-.66,6.38-4.84,1.79-6-1.23-.32-2.47-.58-3.69-.93a.62.62,0,0,1-.36-.9c1.66-3.81-2.22-3.37-4.47-3.79a.59.59,0,0,1-.34-.86c1.17-2.25,3.45-2.74,5.59-3.8,2.42-1.19.27-2.52-1.35-2.64a7.65,7.65,0,0,1-2.22-.41.56.56,0,0,1-.33-.8,6.18,6.18,0,0,1,2.82-2.38c.42-.21,4.89-2.56,4.56-2.71a4.32,4.32,0,0,1-2.93-3.2c-.29-1.24,1.18-2.41,2.14-2.83a24.63,24.63,0,0,1,2.94-1.09c2.24-.66,1.67-.64-.3-1.15-1-.26-6.15-2.2-2.87-3.83a17,17,0,0,1,6.43-1.31c1.38-.1,2.75-.16,4.13-.25,2.78-.16.6-.72-.85-1.72a.49.49,0,0,1,.11-.88c3.48-1.35,7-1.14,10.63-.77A.43.43,0,0,1,452.38,108.21Z"/><path class="cls-4" d="M435.7,436a35.27,35.27,0,0,0-3.25,3.34c-.6.67-1.18,1.35-1.79,2a15.11,15.11,0,0,0-1.46,1.57l-.2,0a82,82,0,0,0-10.56-2.16c2.2-3.39,4.82-6.49,6.85-10a1,1,0,0,0,0-.13c1.1.61,2.2,1.25,3.3,1.88C430.92,433.8,433.33,434.85,435.7,436Z"/><path class="cls-3" d="M424.51,430.15a.27.27,0,0,0-.08.07c-2.15,3.61-5.15,6.66-7.17,10.34-3-.39-6-.67-9-.87a37.6,37.6,0,0,0,7.23-5.15,17.27,17.27,0,0,0,5.1-6.29A42.92,42.92,0,0,1,424.51,430.15Z"/><path d="M412.3,400.18c1.05.82,2,1.67,3,2.44-9.31,1-17.22,7.65-24.48,12.88-8.81,6.35-19.29,9.34-27.11,17a.32.32,0,0,0-.24.1c-4.08,4-6,9.33-7.75,14.67-2.5,7.7-6.15,14.48-9.81,21.65a.38.38,0,0,0,0,.41c-.56,1.39-1,2.82-1.62,4.23a84.25,84.25,0,0,1-5.7,10.8,173.58,173.58,0,0,1-15.36,21.77c-10.33,12.67-20.33,27-32.86,37.57,0,0,0,0,0,0-11.62,9.86-19.39,23-29.94,33.89-5.34,5.53-7.23,13.28-12.28,19.17-6.55,7.64-13.53,13.61-22.64,18q-3.82,1.82-7.66,3.52c-6.94-1.85-14.63-2.25-21.71-2.89a159.61,159.61,0,0,0-19.79-.47,95.43,95.43,0,0,0-9.86.46c-.49,0-.5.83,0,.78s1.22-.09,1.83-.13a.3.3,0,0,0,.17,0l1.75-.07c-.29,1.59-.65,3.17-1.06,4.73a1,1,0,0,0-.24-.16c-2.28-.88-11.66-3.5-11.79-6.92-.16-4.4,2.78-9.83,4.19-13.92,3.24-9.4,6.08-18.9,9.83-28.12,3.34-8.21,8.22-15.39,10.23-24.09,2.2-9.51,5.51-18.65,8.32-28q4.32-14.4,7.65-29.08c2.3-10.07,4.14-19.69,9-28.93,4.41-8.38,8.19-17.07,12.64-25.42a87.67,87.67,0,0,0,5.15-11c1.57-4.27,4-8.28,5-12.72a.37.37,0,0,0,0-.28.54.54,0,0,0,.75-.27c1.63-3.44,6.82-4.18,9.15-7.34,4.92-6.67,12.93-8.19,20.53-10.13a106.65,106.65,0,0,0,17.71-5.82c6.27-2.86,11.46-7.41,17.61-10.49,5.71-2.86,11.23-6,16.79-9.11s11.44-7.17,17.54-9.27c5-1.73,10.13-2.8,14.33-6.27a17.68,17.68,0,0,1,9.59-4.24c2.73-.48,4.29-2.78,7.1-3.12l-.31.23a.52.52,0,0,0-.12.15h0l0,.06a.62.62,0,0,0-.06.31c.38,2.38,1.73,4,2.87,6.12,1.44,2.59,2,5.39,3.65,7.92,3.29,5.2,8.86,9.06,13.22,13.32,8.64,8.44,17.18,16.29,27.32,22.54l0,0C408.6,397.88,410.58,398.83,412.3,400.18Z"/><path d="M402.57,228.09a.59.59,0,1,1-1.16.16,4.58,4.58,0,0,0-2.62-3.84c-2-.85-3.17.74-3.55,2.56-.1.48-.82.28-.73-.19.05-.22.1-.44.17-.65a.46.46,0,0,1-.09-.06,41.45,41.45,0,0,0-3.93-4.23c-.47-.39.2-1,.68-.68a36.87,36.87,0,0,1,3.77,3.94,2.91,2.91,0,0,1,3.56-1.64A5.87,5.87,0,0,1,402.57,228.09Z"/><path d="M402.11,214.61c.65-.24.9.77.28,1a3.6,3.6,0,0,0-2.07,2.62c-.21,1.27.45,1.66,1.46,2.16a.62.62,0,0,1-.31,1.14,2.69,2.69,0,0,1-2.39-3.42A5,5,0,0,1,402.11,214.61Z"/><path d="M393.51,201.07v.18a.52.52,0,0,1-.38.49c-1.06.33-1.55-.56-2.57.51a12.15,12.15,0,0,0-2.36,3.7,28.41,28.41,0,0,0-2.29,7.17c-.07.51-.88.53-.82,0a30.32,30.32,0,0,1,2.67-8.49c.91-2,2.56-5.74,5.37-4.22A.76.76,0,0,1,393.51,201.07Z"/><path d="M392.41,439.81c.42.12.18.71-.19.69-6.34-.27-12.69-.64-18.93.93-5.82,1.46-9.44,4.66-12.9,9.46-.21.3-.66-.05-.45-.36,3.44-5,7.11-8.61,13.06-10.2S386.4,438.09,392.41,439.81Z"/><path d="M382.7,463.42c.52,0,.48.81,0,.88-4.06.59-8.14-1.31-12.17-.61-4.82.83-7.32,5.65-9.43,9.58-.2.37-.8.12-.6-.26,1.77-3.36,4-7.83,7.63-9.5C372.57,461.49,378,463,382.7,463.42Z"/><path d="M380.61,485.34a.31.31,0,0,1-.16.59c-3.07-.12-5.7-.45-8.62.89a40.22,40.22,0,0,0-6.68,4c-.29.21-.62-.22-.33-.43C369.06,487.27,375.12,482.74,380.61,485.34Z"/><path class="cls-3" d="M215.4,619.37,211.74,621a.46.46,0,0,0-.05-.23c-.78.34-1.57.63-2.37.89.45,0,.91-.1,1.36-.18-8.33,3.75-16.52,7.66-24.19,12.94a68.81,68.81,0,0,0-19.86,20.41c-2.14,2.34-4.36,4.63-6.46,7a174.27,174.27,0,0,1,4.63-22.47c2.05-7.88,5.12-15.33,6.28-23.43a221.94,221.94,0,0,1,23.21.74c4.33.31,8.64.8,12.94,1.34C209.83,618.35,212.65,619.08,215.4,619.37Z"/><rect id="_Slice_" data-name="&lt;Slice&gt;" class="cls-5" x="326.28" y="45.77" width="293.72" height="293.23"/></svg>